{"glyphs":{"0":{"ha":819,"x_min":50,"x_max":776,"o":"m 361 0 q 307 12 334 3 q 256 34 279 22 q 209 64 232 46 q 167 99 186 81 q 111 182 134 137 q 75 274 88 227 q 56 371 61 321 q 50 469 50 420 q 62 581 53 526 q 92 689 72 636 q 142 789 113 742 q 216 873 172 836 q 262 905 237 890 q 315 928 288 920 q 369 939 342 936 q 426 941 396 941 q 490 929 458 936 q 552 909 522 922 q 609 876 582 895 q 661 833 636 857 q 718 748 696 795 q 754 651 741 701 q 772 550 768 601 q 773 448 776 499 q 757 352 768 399 q 729 259 746 305 q 686 171 712 213 q 625 95 661 129 q 567 50 598 71 q 503 18 536 30 q 434 1 469 5 q 361 0 399 -3 m 490 170 q 524 197 509 180 q 552 232 538 213 q 575 270 566 251 q 595 308 585 289 q 610 355 604 331 q 623 404 617 380 q 629 454 628 429 q 631 507 631 480 l 625 507 l 210 327 l 210 321 q 224 282 216 302 q 241 244 232 262 q 264 209 251 227 q 293 178 277 191 q 321 159 307 167 q 353 146 336 151 q 387 142 369 142 q 423 142 404 142 q 441 146 431 145 q 458 152 450 148 q 475 160 467 156 q 490 170 483 164 m 601 652 l 604 658 q 582 697 593 677 q 555 734 571 718 q 521 764 538 750 q 483 785 503 777 q 460 791 472 788 q 435 794 448 793 q 412 796 423 795 q 388 798 401 798 q 358 791 372 795 q 331 780 345 788 q 305 761 317 772 q 282 739 293 750 q 245 681 260 712 q 218 616 229 650 q 202 547 208 582 q 197 477 197 513 l 202 477 l 601 652 z "},"1":{"ha":374,"x_min":45,"x_max":309,"o":"m 214 -46 l 187 -30 q 180 -19 184 -24 q 174 -8 176 -14 q 170 4 171 -3 q 167 16 170 11 l 167 693 l 164 696 q 151 686 159 690 q 136 681 142 682 q 119 680 129 680 q 102 680 110 680 l 66 699 q 57 711 61 704 q 50 726 53 718 q 46 742 47 734 q 45 758 45 750 q 73 811 53 788 q 114 858 94 834 q 153 906 134 882 q 193 952 171 930 q 205 960 198 958 q 218 964 212 963 q 232 967 225 966 q 247 968 239 968 l 293 944 l 309 911 l 309 5 q 304 -5 307 0 q 298 -16 301 -11 q 292 -26 296 -22 q 282 -35 288 -30 q 267 -43 274 -41 q 251 -46 260 -46 q 232 -46 241 -46 q 214 -46 222 -46 z "},"2":{"ha":808,"x_min":37,"x_max":762,"o":"m 201 -14 l 163 8 q 153 20 157 14 q 146 35 149 27 q 144 52 144 43 q 144 68 144 60 q 149 84 146 76 q 157 99 152 92 q 170 113 163 106 q 182 125 176 119 q 292 227 239 172 q 396 336 346 281 q 491 453 446 391 q 567 583 536 515 q 576 610 572 597 q 585 636 581 623 q 590 665 589 650 q 594 693 591 680 q 590 720 591 707 q 583 746 589 734 q 568 768 578 758 q 549 788 559 777 q 519 806 536 799 q 486 818 503 812 q 450 823 468 823 q 414 823 433 823 q 376 814 395 821 q 341 798 357 807 q 309 776 326 788 q 279 747 293 764 q 240 694 258 723 q 208 636 222 666 q 183 574 193 606 q 149 518 174 543 q 137 511 144 515 q 123 506 130 507 q 109 505 117 505 q 94 505 100 505 q 81 509 88 507 q 69 514 75 510 q 60 522 64 518 q 50 532 56 526 q 43 547 47 540 q 38 560 39 553 q 37 576 37 567 q 37 594 37 586 q 68 673 50 633 q 105 749 85 712 q 152 819 125 785 q 212 882 179 852 q 270 921 239 903 q 333 949 301 939 q 400 964 365 960 q 471 966 435 968 q 525 956 498 963 q 577 937 552 949 q 625 909 602 925 q 667 873 648 892 q 701 827 686 852 q 724 774 716 802 q 734 718 732 747 q 735 658 735 688 q 689 509 722 581 q 610 372 656 437 q 512 250 564 308 q 406 133 460 191 l 411 133 l 414 136 l 586 136 l 697 138 q 709 134 703 136 q 723 129 716 133 q 735 121 730 125 q 746 111 741 117 q 751 100 749 106 q 757 88 754 95 q 760 75 760 81 q 762 62 760 68 q 758 47 760 54 q 753 34 757 41 q 743 20 749 27 q 732 8 738 14 q 699 -4 716 -3 q 662 -5 681 -5 q 624 -5 643 -5 q 586 -8 605 -5 l 414 -8 l 201 -14 z "},"3":{"ha":770,"x_min":45,"x_max":724,"o":"m 382 22 q 330 31 355 27 q 278 43 304 35 q 226 58 252 52 q 180 87 199 65 q 174 100 178 94 q 168 114 170 107 q 167 130 167 121 q 167 148 167 140 l 189 183 q 201 193 194 189 q 214 198 208 197 q 229 201 221 199 q 244 202 237 202 q 298 184 271 191 q 354 171 326 178 q 411 164 382 164 q 469 164 439 164 q 492 170 481 167 q 515 176 503 172 q 538 189 528 180 q 557 205 549 197 q 566 217 563 210 q 571 231 568 224 q 574 244 574 237 q 574 259 574 251 q 568 274 571 267 q 560 288 566 281 q 549 301 555 294 q 538 313 544 308 q 488 345 514 331 q 431 363 461 358 q 372 372 401 369 q 317 396 342 374 q 308 408 312 401 q 301 423 304 415 q 298 439 298 431 q 298 456 298 448 q 302 469 301 461 q 308 483 304 477 q 317 494 312 488 q 328 505 323 499 q 388 530 358 518 q 445 558 418 543 q 497 593 472 574 q 544 636 522 612 q 559 658 552 647 q 571 680 566 669 q 579 703 576 690 q 582 728 582 715 q 576 746 579 736 q 570 762 574 755 q 559 776 566 769 q 544 789 552 783 q 515 804 530 798 q 486 814 500 811 q 454 817 472 817 q 420 817 437 817 q 362 799 391 811 q 308 770 334 787 q 261 732 282 753 q 218 690 240 712 q 201 669 210 680 q 183 646 191 658 q 165 624 175 633 q 142 609 156 614 l 107 604 l 61 628 q 52 643 56 636 q 46 658 47 650 q 45 675 45 666 q 45 693 45 685 q 66 732 53 715 q 95 768 80 750 q 127 804 110 787 q 161 838 145 822 q 234 892 197 868 q 313 933 271 917 q 400 956 355 949 q 490 960 445 963 q 537 951 514 958 q 583 933 560 944 q 625 907 606 922 q 663 876 644 892 q 690 840 680 860 q 709 800 701 819 q 720 757 716 780 q 724 712 724 734 q 713 650 722 680 q 688 593 704 620 q 651 542 671 566 q 606 496 631 518 l 568 467 q 608 439 587 453 q 646 408 628 426 q 677 370 663 391 q 701 328 690 350 q 708 304 705 316 q 713 278 711 292 q 716 250 716 264 q 716 221 716 235 q 707 184 713 202 q 693 149 701 167 q 673 117 685 132 q 644 88 661 102 q 586 53 617 68 q 521 30 555 38 q 452 22 487 22 q 382 22 418 22 z "},"4":{"ha":808,"x_min":42,"x_max":773,"o":"m 453 39 q 441 43 448 42 q 429 49 434 45 q 419 57 423 53 q 410 66 415 61 l 396 94 l 396 304 l 99 304 l 61 326 q 52 338 56 331 q 45 353 47 345 q 42 369 42 361 q 42 385 42 377 q 129 511 80 450 q 224 632 178 571 q 320 753 271 693 q 415 876 369 814 q 426 884 420 879 q 438 892 431 890 q 453 895 445 895 q 467 898 461 895 q 481 895 475 895 q 494 891 487 895 q 507 883 500 887 q 519 873 514 879 q 526 863 522 868 q 533 852 530 857 q 536 840 536 846 q 538 827 536 833 l 538 448 l 709 448 q 720 444 713 445 q 734 438 727 442 q 746 430 741 434 q 757 420 751 426 q 764 410 760 415 q 769 397 768 404 q 772 384 770 391 q 773 372 773 377 q 769 357 770 363 q 765 342 768 350 q 755 328 762 334 q 743 317 749 323 l 716 304 l 538 304 l 538 107 q 534 92 536 99 q 529 79 533 85 q 519 65 525 72 q 509 53 514 58 q 496 45 503 47 q 484 41 490 42 q 469 39 477 39 q 453 39 461 39 m 396 448 l 396 612 l 391 612 l 263 450 l 396 448 z "},"5":{"ha":906,"x_min":49,"x_max":860,"o":"m 469 -26 l 431 -4 q 422 7 426 0 q 415 22 418 14 q 412 38 412 30 q 412 54 412 46 q 416 68 415 60 q 422 81 418 76 q 431 92 426 87 q 442 103 437 98 q 480 121 461 111 q 517 142 499 130 q 549 170 534 155 q 581 201 564 184 q 612 246 600 222 q 633 294 624 270 q 643 347 642 319 q 644 403 644 376 q 636 429 642 416 q 625 452 631 441 q 609 475 618 464 q 589 496 600 486 q 562 514 575 505 q 532 528 548 524 q 498 532 515 532 q 464 532 480 532 q 366 499 412 524 q 275 447 319 475 q 196 380 232 419 q 106 338 160 340 l 68 359 l 49 397 l 49 894 l 73 936 l 106 952 l 804 952 l 840 933 q 848 922 842 928 q 856 909 853 916 q 859 895 859 902 q 860 880 859 888 q 857 865 859 872 q 853 852 856 859 q 845 838 850 845 q 834 826 840 831 l 796 810 l 191 810 l 191 567 l 194 564 q 269 612 229 591 q 350 648 308 632 q 433 671 392 665 q 521 675 475 678 q 574 665 548 673 q 625 644 600 656 q 671 614 650 632 q 712 578 693 597 q 747 526 731 553 q 773 470 764 499 q 787 411 783 441 q 791 349 791 381 q 777 273 788 311 q 749 200 766 235 q 708 133 731 165 q 658 73 685 100 q 615 38 636 54 q 571 9 594 22 q 524 -16 548 -4 q 469 -26 499 -28 z "},"6":{"ha":781,"x_min":43,"x_max":734,"o":"m 452 -58 q 374 -47 414 -56 q 300 -22 335 -39 q 233 19 264 -4 q 174 72 201 42 q 110 166 136 115 q 69 271 84 217 q 49 382 54 326 q 46 495 43 438 q 64 603 52 549 q 95 707 76 656 q 145 802 114 757 q 217 886 176 848 q 269 924 241 907 q 328 951 297 940 q 392 967 359 962 q 457 972 425 972 q 508 966 481 970 q 559 955 534 962 q 608 939 583 948 q 651 910 632 929 q 659 898 656 905 q 665 884 662 891 q 667 869 667 878 q 667 853 667 861 q 663 841 665 848 q 658 829 662 834 q 650 819 654 825 q 640 808 646 814 q 629 802 635 806 q 617 796 624 798 q 604 793 610 795 q 591 792 597 792 q 551 806 570 798 q 511 819 532 814 q 471 827 491 825 q 430 830 452 830 q 391 822 411 827 q 353 807 370 817 q 319 785 335 798 q 289 757 302 773 q 239 680 259 722 q 209 593 220 637 q 193 503 198 549 q 190 411 187 457 q 195 379 193 395 q 201 347 198 363 q 208 316 203 331 q 217 285 212 301 q 256 338 236 312 q 298 386 275 363 q 349 427 321 408 q 406 463 376 446 q 434 472 419 468 q 464 480 449 476 q 494 484 479 484 q 526 484 510 484 q 564 476 545 481 q 600 461 583 471 q 632 439 616 452 q 662 411 648 427 q 697 360 684 387 q 720 304 711 334 q 731 244 728 274 q 731 182 734 214 q 722 138 728 160 q 707 95 716 115 q 684 54 697 75 q 654 18 670 34 q 609 -15 632 -1 q 559 -38 586 -28 q 505 -53 532 -47 q 452 -58 479 -58 m 537 110 q 551 121 545 115 q 563 132 556 126 q 572 145 570 138 q 581 160 575 152 q 586 178 583 168 q 589 197 589 187 q 589 216 589 206 q 589 236 589 225 q 583 259 586 247 q 575 282 581 271 q 563 304 570 293 q 548 323 556 315 q 536 332 543 328 q 522 339 529 336 q 507 342 515 342 q 491 342 499 342 q 461 331 476 339 q 433 312 446 323 q 407 289 419 301 q 381 263 395 277 q 359 235 370 250 q 339 206 349 220 q 319 178 330 193 q 302 146 308 163 q 340 119 319 132 q 385 99 362 107 q 433 88 408 91 q 481 88 457 85 q 495 92 488 91 q 510 96 502 94 q 525 103 518 99 q 537 110 532 107 z "},"7":{"ha":873,"x_min":37,"x_max":822,"o":"m 420 52 l 385 71 q 376 83 380 76 q 370 96 372 90 q 368 110 369 103 q 363 125 366 117 q 430 280 393 203 q 500 433 467 357 q 570 587 533 510 q 639 742 606 665 l 199 742 l 199 731 q 214 669 208 700 q 229 605 221 637 q 243 540 237 572 q 252 475 250 507 q 248 464 250 471 q 245 452 247 457 q 239 442 243 446 q 229 433 235 438 q 216 423 224 427 q 201 418 208 419 q 184 416 194 416 q 167 416 175 416 l 126 441 q 98 534 107 486 q 76 632 88 583 q 53 729 64 681 q 37 826 42 777 q 41 838 39 831 q 45 850 42 845 q 52 860 47 856 q 61 869 56 864 l 94 886 l 765 886 q 777 882 770 883 q 789 876 784 880 q 799 868 795 872 q 808 859 803 864 q 817 845 814 853 q 821 830 819 837 q 822 814 822 823 q 822 796 822 804 q 740 612 781 704 q 655 429 699 521 q 571 245 612 338 q 479 65 530 152 q 468 58 475 62 q 453 53 461 54 q 437 52 445 52 q 420 52 429 52 z "},"8":{"ha":776,"x_min":42,"x_max":730,"o":"m 454 11 q 385 22 419 14 q 316 42 350 30 q 251 72 282 54 q 193 117 220 90 q 168 151 179 133 q 148 189 156 168 q 136 229 140 209 q 132 270 132 248 q 141 317 134 294 q 159 362 148 340 q 185 403 170 384 q 217 441 201 422 q 170 471 193 453 q 129 510 148 488 q 96 555 110 532 q 69 605 83 578 q 57 644 64 624 q 47 684 50 665 q 43 726 45 704 q 42 769 42 747 q 52 825 45 796 q 71 880 58 853 q 100 931 83 907 q 140 974 118 955 q 189 1008 164 993 q 244 1031 214 1023 q 304 1042 274 1039 q 363 1044 334 1044 q 432 1035 399 1042 q 499 1016 465 1028 q 563 983 533 1004 q 617 939 593 963 q 650 892 636 917 q 673 840 665 867 q 682 784 681 812 q 684 726 684 755 q 671 676 678 701 q 654 627 665 651 q 627 581 643 602 q 598 537 612 559 q 630 514 614 526 q 659 487 646 502 q 682 456 673 472 q 703 425 692 441 q 716 385 711 406 q 726 345 722 365 q 730 302 730 324 q 730 259 730 281 q 719 208 727 235 q 700 157 711 182 q 673 111 689 133 q 636 71 656 90 q 595 43 617 54 q 551 24 574 33 q 503 14 528 16 q 454 11 479 11 m 528 171 q 544 182 536 176 q 557 195 552 187 q 567 211 563 203 q 576 227 571 218 q 582 248 579 237 q 586 270 585 259 q 587 293 587 281 q 587 316 587 305 q 582 339 585 327 q 574 362 579 351 q 562 382 568 373 q 544 400 555 392 q 530 410 538 406 q 515 416 522 414 q 500 419 509 419 q 484 422 492 419 q 432 412 457 422 q 384 388 407 403 q 340 357 361 373 q 301 319 320 340 q 292 305 296 313 q 283 290 288 297 q 278 275 279 283 q 274 259 277 267 q 279 244 277 251 q 286 231 282 237 q 297 218 290 224 q 309 206 304 212 q 353 182 331 193 q 397 165 374 171 q 445 159 419 160 q 495 157 471 157 l 528 171 m 396 556 q 435 585 416 570 q 473 618 454 600 q 506 657 492 637 q 530 699 519 677 q 536 719 533 709 q 540 739 538 728 q 541 761 541 750 q 541 783 541 772 q 534 803 538 793 q 525 822 530 812 q 511 840 519 831 q 495 856 503 848 q 456 879 476 869 q 414 892 435 888 q 372 899 393 897 q 326 902 350 902 q 294 897 309 899 q 266 887 279 894 q 240 869 252 880 q 217 848 228 859 q 201 821 206 834 q 191 791 195 807 q 186 758 187 774 q 184 726 184 742 q 191 690 187 707 q 203 656 195 673 q 222 624 212 640 q 247 594 233 608 q 277 574 260 583 q 312 559 293 564 q 350 552 331 553 q 388 551 369 551 l 396 556 z "},"9":{"ha":819,"x_min":39,"x_max":779,"o":"m 544 -9 q 532 -5 538 -7 q 519 0 525 -4 q 510 8 514 4 q 500 18 506 12 q 495 28 498 23 q 490 39 492 34 q 487 50 487 43 q 484 62 487 57 q 540 179 509 122 q 592 295 571 236 q 624 418 613 354 q 632 545 635 481 l 629 548 q 595 513 613 529 q 557 484 576 498 q 517 460 538 471 q 473 438 495 449 q 429 423 452 430 q 383 411 406 416 q 338 404 361 406 q 290 403 315 403 q 240 412 266 406 q 191 430 214 419 q 149 457 168 441 q 110 492 129 473 q 75 549 88 518 q 52 613 61 581 q 41 678 42 646 q 39 745 39 711 q 50 798 42 772 q 71 849 58 823 q 100 897 83 875 q 138 937 118 918 q 197 975 165 959 q 260 1001 228 990 q 328 1016 293 1012 q 397 1020 363 1020 q 471 1004 435 1015 q 538 976 506 993 q 599 933 571 959 q 654 880 627 907 q 715 788 689 837 q 755 686 741 739 q 774 578 770 632 q 776 468 779 524 q 755 345 770 406 q 718 224 741 283 q 666 109 694 165 q 601 4 637 52 q 589 -3 595 -1 q 575 -7 582 -4 q 560 -9 568 -9 q 544 -9 552 -9 m 449 586 q 480 608 465 597 q 510 632 495 618 q 537 661 525 646 q 557 692 549 675 q 560 705 560 697 q 563 719 560 713 q 570 730 566 724 q 576 742 574 736 q 552 779 566 761 q 521 811 538 796 q 486 838 503 826 q 449 861 468 850 q 427 868 438 864 q 404 875 416 872 q 380 878 392 878 q 355 878 369 878 q 315 869 334 875 q 275 856 296 864 q 240 833 255 848 q 209 802 225 818 q 194 777 201 791 q 184 749 187 764 q 182 720 182 734 q 182 689 182 705 q 187 658 184 673 q 195 627 190 643 q 209 597 201 610 q 231 572 217 583 q 252 559 241 564 q 277 551 263 553 q 304 547 290 548 q 331 545 317 545 q 361 551 347 548 q 391 559 376 553 q 420 571 406 564 q 449 586 435 578 z "}," ":{"ha":694,"x_min":0,"x_max":0,"o":""},"!":{"ha":320,"x_min":49,"x_max":264,"o":"m 138 -5 q 121 0 130 -3 q 102 8 111 3 q 85 20 92 14 q 71 35 79 27 q 58 54 62 43 q 52 76 54 65 q 49 100 49 87 q 49 125 49 114 q 54 141 52 133 q 62 157 57 149 q 73 174 68 165 q 87 187 79 182 q 104 197 95 193 q 125 205 114 202 q 146 209 136 208 q 168 210 157 210 q 189 205 179 208 q 208 197 198 202 q 225 186 217 193 q 241 171 233 179 q 251 155 247 163 q 258 138 255 146 q 262 119 262 130 q 264 100 262 109 q 259 77 262 90 q 252 54 256 65 q 240 34 247 43 q 222 16 233 24 q 203 4 214 8 q 183 -3 193 0 q 161 -5 174 -5 q 138 -5 149 -5 m 146 373 l 106 392 l 84 431 l 84 895 l 103 933 q 118 944 111 939 q 133 952 125 949 q 151 955 141 955 q 168 955 160 955 l 209 933 l 228 895 l 228 431 l 209 395 q 194 385 201 389 q 179 378 187 381 q 163 374 171 376 q 146 373 155 373 z "},"\"":{"ha":591,"x_min":56,"x_max":547,"o":"m 113 697 l 72 722 q 64 734 66 727 q 58 749 61 742 q 56 765 56 755 q 56 783 56 774 q 83 864 69 823 q 111 943 96 905 q 137 1024 126 982 q 175 1099 148 1066 q 187 1107 180 1104 q 200 1111 194 1109 q 214 1112 206 1112 q 231 1112 222 1112 q 243 1108 236 1109 q 255 1103 250 1107 q 264 1095 260 1099 q 274 1085 269 1090 q 281 1074 279 1080 q 285 1063 282 1069 q 288 1051 288 1058 q 290 1039 288 1044 q 266 957 279 998 q 239 875 252 916 q 212 793 225 834 q 178 716 199 753 q 163 707 170 711 q 148 700 156 703 q 130 697 140 697 q 113 697 121 697 m 372 697 q 359 701 366 700 q 347 707 353 703 q 338 715 342 711 q 328 724 334 719 q 321 735 323 730 q 317 745 320 741 q 315 757 315 750 q 312 769 315 764 q 336 852 323 810 q 363 934 350 894 q 391 1015 377 974 q 426 1093 404 1055 q 440 1103 434 1099 q 454 1109 446 1107 q 472 1112 463 1112 q 490 1112 481 1112 l 530 1088 q 538 1074 536 1082 q 544 1059 541 1066 q 547 1043 547 1053 q 547 1025 547 1034 q 519 945 533 985 q 491 865 506 905 q 465 784 476 826 q 429 711 454 742 q 416 703 423 705 q 403 699 410 700 q 388 697 396 697 q 372 697 380 697 z "},"#":{"ha":863,"x_min":46,"x_max":821,"o":"m 262 -3 q 251 3 256 0 q 240 8 245 5 q 231 15 235 11 q 222 24 228 19 q 209 64 209 43 q 209 106 209 84 q 209 149 209 127 q 209 191 209 170 l 203 191 q 179 186 193 189 q 153 180 165 183 q 127 176 141 178 q 100 175 114 175 l 62 199 q 54 212 57 205 q 49 227 52 218 q 46 243 46 235 q 46 259 46 251 q 52 271 49 264 q 57 283 54 278 q 65 294 60 289 q 76 305 71 300 q 109 317 92 313 q 141 324 125 321 q 175 331 157 327 q 209 338 193 335 l 209 644 l 203 644 q 179 639 193 642 q 153 634 165 636 q 127 631 141 632 q 100 629 114 629 l 62 652 q 54 665 57 658 q 49 680 52 671 q 46 696 46 688 q 46 712 46 704 q 52 724 49 718 q 57 736 54 731 q 65 747 60 742 q 76 758 71 753 q 109 770 92 766 q 141 777 125 774 q 175 784 157 780 q 209 791 193 788 l 209 955 l 228 993 q 240 1002 235 998 q 254 1009 245 1006 q 270 1013 262 1012 q 286 1015 278 1015 q 298 1010 292 1012 q 312 1006 305 1009 q 324 998 319 1004 q 335 987 330 993 q 350 949 349 971 q 351 906 351 928 q 351 863 351 884 q 351 821 351 842 l 357 821 l 529 859 q 532 911 532 884 q 532 966 532 939 q 534 1021 532 993 q 562 1066 537 1050 q 572 1072 567 1069 q 583 1076 578 1074 q 595 1078 589 1077 q 608 1080 602 1080 q 623 1076 616 1077 q 636 1072 629 1074 q 648 1063 643 1069 q 659 1053 654 1058 q 674 1015 673 1036 q 675 972 675 993 q 675 930 675 952 q 675 887 675 909 l 686 887 l 755 901 q 768 897 761 898 q 781 892 774 895 q 793 884 788 890 q 804 873 799 879 q 812 862 810 868 q 817 849 815 856 q 819 836 818 842 q 821 821 821 829 l 796 774 q 768 760 783 764 q 736 753 753 755 q 706 747 720 750 q 675 742 692 745 l 675 434 l 686 434 l 755 448 q 768 444 761 445 q 781 439 774 442 q 793 431 788 437 q 804 420 799 426 q 812 408 810 415 q 817 395 815 401 q 819 382 818 389 q 821 368 821 376 l 796 321 q 768 307 783 311 q 736 300 753 302 q 706 294 720 297 q 675 289 692 292 l 675 125 l 651 79 q 636 69 643 73 q 621 64 629 65 q 604 62 613 62 q 586 62 594 62 l 548 87 q 533 125 534 103 q 532 169 532 146 q 532 213 532 191 q 532 256 532 235 l 518 256 l 351 221 q 351 168 351 194 q 351 114 351 141 q 350 60 351 87 q 327 14 349 33 q 313 4 321 8 q 297 -1 305 0 q 279 -3 289 -3 q 262 -3 270 -3 m 529 404 l 532 407 l 532 709 l 518 709 l 351 674 l 351 368 l 357 368 l 529 404 z "},"$":{"ha":792,"x_min":46,"x_max":747,"o":"m 313 -115 l 273 -94 q 263 -81 267 -88 q 258 -65 259 -73 q 255 -49 256 -57 q 254 -33 254 -41 l 264 54 q 209 71 237 60 q 155 95 180 81 q 106 125 130 109 q 60 159 81 141 q 53 171 54 164 q 49 184 52 178 q 46 199 46 191 q 46 216 46 208 q 50 228 49 221 q 56 240 52 235 q 64 250 60 245 q 73 259 68 254 q 84 264 79 262 q 95 270 90 267 q 107 273 100 273 q 119 275 114 273 q 160 259 141 273 q 199 233 179 245 q 240 212 218 221 q 283 197 262 202 l 308 399 q 263 420 286 410 q 218 445 240 431 q 178 475 197 458 q 141 510 160 491 q 107 556 122 532 q 83 607 92 581 q 69 661 73 633 q 68 718 65 688 q 76 754 71 736 q 90 788 81 772 q 109 819 98 804 q 133 848 119 834 q 177 875 155 863 q 224 895 199 887 q 275 905 248 903 q 330 906 302 906 l 368 901 q 372 933 370 917 q 376 966 373 949 q 382 998 378 982 q 400 1025 387 1015 q 412 1034 406 1031 q 425 1039 418 1036 q 438 1043 431 1042 q 453 1044 445 1044 q 465 1040 458 1042 q 479 1036 472 1039 q 491 1029 486 1034 q 502 1020 496 1025 q 509 1009 505 1015 q 515 997 513 1004 q 518 982 518 990 q 521 968 518 974 l 507 860 q 567 838 537 852 q 623 808 597 823 q 678 776 650 793 q 731 739 707 758 q 741 726 736 734 q 746 711 745 718 q 747 694 747 704 q 747 677 747 685 l 726 639 q 713 629 720 633 q 699 624 707 625 q 682 621 690 623 q 666 620 674 620 q 623 642 643 628 q 581 667 602 655 q 536 692 559 680 q 491 715 513 704 l 464 502 q 498 487 483 496 q 529 468 513 477 q 560 446 545 458 q 589 423 575 434 q 617 387 605 404 q 638 349 629 370 q 651 305 647 327 q 655 259 655 283 q 648 220 652 240 q 633 182 643 199 q 612 149 624 164 q 583 119 600 133 q 544 91 564 103 q 502 69 524 79 q 457 54 480 60 q 411 43 434 49 q 406 5 408 24 q 400 -33 403 -14 q 393 -68 397 -52 q 373 -99 389 -85 q 361 -107 368 -104 q 346 -113 354 -110 q 330 -115 338 -115 q 313 -115 321 -115 m 469 213 q 481 222 475 218 q 492 232 488 227 q 502 244 496 237 q 510 256 507 251 l 513 275 q 507 292 510 283 q 499 307 505 300 q 487 320 494 313 q 475 332 480 327 l 448 351 l 426 194 l 431 194 l 469 213 m 327 551 l 327 572 l 351 761 l 294 764 q 274 760 283 761 q 255 755 264 758 q 237 746 245 753 q 221 731 229 739 q 214 719 218 726 q 210 704 210 712 q 210 689 210 696 q 210 674 210 682 q 221 648 216 661 q 235 625 227 636 q 254 602 243 613 q 275 581 264 591 l 327 551 z "},"%":{"ha":1123,"x_min":52,"x_max":1072,"o":"m 845 -53 q 802 -45 823 -50 q 760 -30 780 -39 q 721 -7 739 -20 q 686 24 703 5 q 662 62 673 43 q 644 102 651 81 q 636 144 637 122 q 635 187 635 165 q 644 229 637 209 q 661 269 651 248 q 685 305 670 289 q 716 338 700 321 q 749 359 732 349 q 787 376 766 370 q 827 384 807 381 q 869 387 848 387 q 911 378 891 384 q 950 363 932 373 q 985 342 968 354 q 1017 313 1001 330 q 1044 274 1034 294 q 1063 231 1055 254 q 1072 184 1072 209 q 1072 136 1072 160 q 1062 99 1069 117 q 1048 65 1055 81 q 1029 34 1042 49 q 1004 5 1017 19 q 969 -20 987 -8 q 930 -38 951 -31 q 888 -49 910 -45 q 845 -53 867 -53 m 292 -31 l 247 -11 q 237 4 241 -3 q 231 19 233 11 q 228 38 228 27 q 228 57 228 49 q 357 271 283 168 q 503 475 430 373 q 648 679 575 578 q 796 880 722 780 q 808 890 802 886 q 823 897 815 894 q 840 899 831 899 q 856 899 848 899 q 869 895 861 897 q 883 890 878 894 q 894 880 888 886 q 905 869 899 875 q 910 857 907 864 q 916 845 913 850 q 918 833 918 840 q 918 818 918 826 q 777 608 850 709 q 628 404 703 507 q 481 196 553 300 q 343 -16 408 92 q 331 -22 338 -19 q 319 -27 324 -26 q 307 -30 313 -28 q 292 -31 300 -31 m 899 106 q 914 122 907 114 q 925 141 921 130 q 929 164 929 152 q 929 187 929 176 q 921 202 924 195 q 911 215 918 209 q 898 227 905 221 q 883 237 891 232 l 845 243 q 830 239 837 240 q 817 233 823 237 q 804 224 810 229 q 793 213 799 218 q 787 202 791 209 q 780 187 783 195 q 777 171 777 179 q 777 155 777 163 q 781 142 780 149 q 787 130 783 136 q 795 119 791 125 q 804 109 799 114 q 817 99 810 103 q 830 94 823 95 q 845 91 837 92 q 861 90 853 90 l 899 106 m 247 453 q 208 463 228 456 q 170 477 187 469 q 134 499 152 486 q 103 529 117 513 q 76 568 87 548 q 58 612 65 589 q 52 657 52 635 q 52 704 52 680 q 62 742 57 723 q 77 779 68 761 q 100 812 87 796 q 130 842 114 829 q 170 867 149 856 q 210 884 190 878 q 253 891 231 891 q 300 891 275 891 q 338 880 319 886 q 373 867 357 875 q 406 846 389 859 q 435 818 422 834 q 460 780 449 799 q 477 739 471 761 q 487 696 484 718 q 490 651 490 675 q 481 613 487 632 q 468 576 476 594 q 448 543 460 559 q 422 513 435 526 q 382 484 403 496 q 340 464 362 472 q 295 454 319 456 q 247 453 271 453 m 308 608 l 340 643 l 346 685 q 342 696 343 690 q 338 707 340 701 q 330 718 335 712 q 324 728 324 723 q 308 736 316 731 q 290 745 300 742 q 272 747 281 747 q 252 747 263 747 l 212 720 q 202 705 206 712 q 197 689 198 699 q 195 671 195 680 q 195 654 195 662 l 220 616 q 235 606 228 610 q 250 600 241 602 q 267 597 258 597 q 283 597 275 597 l 308 608 z "},"&":{"ha":901,"x_min":42,"x_max":857,"o":"m 217 -19 q 180 -12 199 -16 q 145 0 161 -8 q 113 18 129 8 q 83 43 96 27 q 64 71 72 57 q 50 103 56 85 q 43 137 45 121 q 42 172 42 153 q 62 251 47 213 q 99 322 77 289 q 148 387 121 355 q 203 445 175 418 q 145 511 175 477 q 92 581 115 544 q 56 659 69 617 q 45 747 42 701 q 52 778 47 764 q 64 806 56 792 q 81 833 72 819 q 104 857 91 846 q 165 895 132 882 q 234 918 199 909 q 305 928 269 928 q 380 928 342 928 q 437 917 410 925 q 494 898 465 909 q 547 871 522 887 q 593 833 571 854 q 613 803 604 819 q 628 770 623 787 q 635 735 633 753 q 636 699 636 718 q 618 639 631 669 q 589 583 606 609 q 548 535 571 557 q 503 491 525 513 l 429 434 l 590 305 q 639 347 614 326 q 686 392 663 369 q 731 438 708 415 q 787 464 754 461 q 800 461 792 461 q 815 458 808 461 q 827 450 822 456 q 838 442 833 445 q 849 427 844 434 q 856 411 854 420 q 857 392 857 401 q 857 372 857 382 q 844 347 852 358 q 825 326 836 336 q 804 306 814 315 q 784 286 795 297 l 705 210 l 838 118 q 849 103 844 110 q 856 87 854 96 q 857 68 857 77 q 857 49 857 60 l 838 16 q 827 8 833 14 q 815 0 822 3 q 800 -3 808 -3 q 787 -5 792 -3 q 732 16 757 -3 q 683 53 708 35 q 635 89 658 71 q 585 121 612 107 q 500 67 544 91 q 412 23 457 43 q 317 -8 366 3 q 217 -19 269 -19 m 410 180 l 465 216 l 309 345 q 278 315 293 331 q 250 285 263 300 q 224 252 236 270 q 202 216 212 235 q 195 201 199 208 q 190 184 191 194 q 187 167 189 175 q 186 151 186 159 l 194 134 q 205 127 199 129 q 217 126 212 126 q 229 125 222 126 q 244 123 236 123 q 288 132 266 126 q 330 144 309 137 q 370 160 350 151 q 410 180 391 170 m 326 540 q 373 570 350 552 q 416 606 396 587 q 454 647 435 625 q 487 693 473 669 l 492 726 q 481 741 487 734 q 468 751 476 747 q 453 760 460 755 q 438 769 446 764 q 403 777 420 773 q 366 783 385 781 q 328 784 347 784 q 290 784 309 784 q 263 779 277 781 q 237 771 250 776 q 214 760 225 766 q 194 742 203 753 l 189 712 q 211 662 197 685 q 241 618 225 639 q 277 578 258 598 q 315 540 296 557 l 323 537 l 326 540 z "},"'":{"ha":347,"x_min":45,"x_max":298,"o":"m 167 785 l 140 804 l 132 840 l 145 867 q 161 880 153 872 q 178 897 170 888 q 191 916 186 905 q 202 935 197 926 l 202 968 l 199 971 l 172 926 l 132 916 q 115 921 123 918 q 99 928 107 924 q 84 937 91 932 q 72 949 77 941 q 58 972 64 960 q 49 997 53 985 q 45 1024 45 1009 q 45 1053 45 1039 q 50 1070 47 1061 q 57 1086 53 1080 q 66 1101 61 1093 q 80 1115 72 1109 q 96 1124 88 1120 q 114 1130 104 1128 q 133 1133 123 1131 q 153 1134 142 1134 q 179 1127 167 1131 q 205 1118 191 1123 q 228 1103 218 1112 q 247 1082 237 1093 q 267 1054 258 1069 q 283 1023 277 1039 q 294 989 290 1006 q 298 952 298 971 q 292 916 296 935 q 278 878 288 897 q 257 842 269 859 q 232 812 245 826 q 217 800 224 807 q 202 789 210 793 q 186 785 194 785 q 167 785 178 785 z "},"(":{"ha":537,"x_min":50,"x_max":498,"o":"m 378 -77 q 324 -64 353 -72 q 270 -42 296 -56 q 222 -8 244 -28 q 179 34 201 12 q 113 142 138 84 q 75 262 88 201 q 56 387 61 324 q 50 514 50 449 q 64 639 53 575 q 95 763 75 703 q 146 879 115 823 q 225 978 176 935 q 273 1010 247 996 q 326 1036 298 1025 q 380 1050 353 1047 q 438 1053 408 1053 q 450 1048 444 1050 q 463 1043 457 1047 q 473 1035 468 1039 q 484 1025 479 1031 q 491 1010 487 1017 q 496 997 495 1004 q 498 981 498 990 q 498 964 498 972 l 473 926 q 431 911 454 910 q 385 906 408 913 q 344 887 362 899 q 309 859 326 875 q 248 764 271 815 q 213 658 225 713 q 197 546 201 602 q 193 433 193 490 q 203 342 198 387 q 222 254 209 297 q 259 172 236 212 q 315 100 282 133 q 345 80 328 90 q 380 68 362 71 q 416 63 397 65 q 452 47 435 61 q 461 33 457 39 q 468 18 465 26 q 472 1 471 9 q 473 -15 473 -7 q 469 -28 471 -20 q 464 -42 468 -37 q 454 -53 460 -47 q 444 -64 449 -58 q 430 -72 438 -69 q 414 -76 422 -75 q 396 -77 406 -77 q 378 -77 387 -77 z "},")":{"ha":521,"x_min":31,"x_max":481,"o":"m 85 -80 q 75 -75 80 -77 q 64 -69 69 -72 q 54 -62 58 -66 q 45 -53 50 -58 q 38 -41 42 -47 q 33 -26 34 -34 q 31 -11 31 -19 q 31 5 31 -3 l 50 41 q 95 61 69 60 q 145 66 121 62 q 191 87 170 71 q 228 122 212 103 q 285 218 263 165 q 317 324 307 270 q 334 433 328 378 q 336 545 339 488 q 326 632 334 589 q 305 718 317 675 q 271 799 293 761 q 217 869 250 837 q 184 891 201 880 q 148 903 167 902 q 110 908 129 905 q 75 928 91 911 q 66 940 69 933 q 61 954 64 947 q 57 967 58 960 q 56 982 56 974 q 60 994 58 987 q 64 1008 61 1001 q 71 1020 66 1015 q 80 1031 75 1025 q 92 1039 85 1036 q 106 1044 99 1042 q 119 1048 113 1047 q 134 1050 126 1050 q 193 1040 164 1047 q 251 1019 222 1034 q 302 983 279 1004 q 347 941 326 963 q 414 831 388 891 q 456 707 441 772 q 476 578 471 643 q 479 448 481 513 q 464 330 473 389 q 435 212 454 270 q 387 102 416 155 q 317 5 358 49 q 266 -33 293 -16 q 209 -62 239 -50 q 149 -79 179 -75 q 85 -80 118 -83 z "},"*":{"ha":873,"x_min":53,"x_max":826,"o":"m 460 42 q 445 46 452 45 q 431 50 438 47 q 419 58 425 53 q 408 69 414 64 q 389 140 392 102 q 380 212 387 178 q 370 285 373 247 q 359 358 368 323 q 302 311 331 334 q 244 264 274 288 q 186 216 214 241 q 119 189 157 191 q 105 193 111 191 q 92 197 99 194 q 80 205 85 199 q 69 214 75 210 q 62 227 66 220 q 57 239 58 233 q 54 251 56 244 q 53 266 53 258 q 57 278 56 271 q 61 292 58 285 q 68 304 64 298 q 77 315 72 309 l 288 484 q 235 511 260 498 q 183 538 209 525 q 131 566 157 552 q 91 606 104 579 l 85 639 q 90 651 88 644 q 94 665 91 658 q 100 676 96 671 q 110 686 104 681 q 122 696 114 692 q 138 701 130 700 q 156 703 146 703 q 174 703 165 703 l 328 628 l 328 644 l 312 768 q 316 780 315 773 q 320 793 317 787 q 327 806 323 800 q 336 817 331 811 q 349 826 342 822 q 365 831 357 830 q 382 833 373 833 q 400 833 392 833 q 411 827 406 830 q 422 822 416 825 q 431 815 427 819 q 441 806 435 811 q 454 765 452 787 q 460 720 457 743 q 465 676 463 697 q 473 633 468 655 q 533 682 503 658 q 593 730 563 705 q 654 780 624 754 q 724 800 684 806 q 735 795 730 798 q 746 789 741 792 q 755 783 751 787 q 765 773 760 779 q 772 761 768 768 q 777 746 776 754 q 779 730 779 738 q 779 713 779 722 l 760 678 l 552 511 q 623 475 586 492 q 694 437 659 457 q 766 401 730 418 q 823 350 803 385 l 826 309 l 807 274 q 796 264 803 269 q 783 258 789 260 q 768 254 776 255 q 751 252 760 252 q 689 279 719 263 q 628 311 659 296 q 566 342 597 326 q 506 372 536 358 l 506 353 l 536 99 l 517 64 q 505 54 511 58 q 491 47 498 50 q 476 43 484 45 q 460 42 468 42 z "},"+":{"ha":792,"x_min":45,"x_max":754,"o":"m 374 85 q 363 91 369 88 q 353 96 358 94 q 343 103 347 99 q 334 113 339 107 l 320 142 l 320 410 l 99 410 q 88 415 94 412 q 77 420 83 418 q 68 427 72 423 q 58 437 64 431 q 50 449 53 442 q 46 462 47 456 q 45 476 45 468 q 45 492 45 484 q 49 505 47 498 q 54 517 50 511 q 62 526 58 522 q 72 536 66 530 q 83 541 77 538 q 94 547 88 544 q 104 549 99 549 q 115 552 110 549 l 320 552 l 320 833 q 324 845 323 838 q 330 857 326 852 q 338 867 334 863 q 347 876 342 871 q 358 883 353 882 q 369 887 363 884 q 381 890 374 890 q 393 892 388 890 q 408 888 401 890 q 422 884 415 887 q 435 876 429 882 q 448 865 442 871 q 452 856 450 860 q 457 848 454 852 q 460 838 460 844 q 463 827 460 833 l 463 552 l 684 552 q 699 548 692 549 q 712 544 705 547 q 726 536 719 541 q 738 525 732 530 q 746 513 743 519 q 750 499 749 506 q 753 486 751 492 q 754 471 754 479 l 730 426 l 700 410 l 463 410 l 463 148 l 439 102 q 425 92 431 96 q 410 87 418 88 q 392 85 401 85 q 374 85 382 85 z "},",":{"ha":374,"x_min":61,"x_max":315,"o":"m 183 -126 l 156 -107 l 148 -72 l 161 -45 q 178 -31 170 -39 q 194 -15 186 -23 q 208 4 202 -7 q 218 23 213 15 l 218 57 l 216 60 l 189 15 l 148 4 q 132 9 140 7 q 115 16 123 12 q 100 25 107 20 q 88 38 94 30 q 75 61 80 49 q 65 85 69 73 q 61 113 61 98 q 61 141 61 127 q 66 159 64 149 q 73 175 69 168 q 83 190 77 182 q 96 203 88 198 q 113 213 104 209 q 130 218 121 217 q 149 221 140 220 q 170 222 159 222 q 195 216 183 220 q 221 206 208 212 q 244 191 235 201 q 263 171 254 182 q 283 142 274 157 q 300 111 293 127 q 311 77 307 95 q 315 41 315 60 q 308 4 312 23 q 294 -34 304 -15 q 273 -69 285 -53 q 248 -99 262 -85 q 233 -111 240 -104 q 218 -122 227 -118 q 202 -126 210 -126 q 183 -126 194 -126 z "},"-":{"ha":781,"x_min":47,"x_max":724,"o":"m 102 350 l 69 369 q 61 380 66 374 q 53 392 56 385 q 50 407 50 399 q 47 420 50 415 q 50 434 50 426 q 53 449 50 442 q 61 461 56 456 q 69 472 66 467 q 80 480 75 475 q 92 488 85 486 q 107 491 99 491 q 121 494 115 491 l 655 494 q 669 491 661 491 q 684 488 677 491 q 696 480 690 486 q 705 472 701 475 q 716 457 711 464 q 723 441 722 450 q 724 422 724 431 q 724 401 724 412 l 705 369 l 674 350 l 102 350 z "},".":{"ha":336,"x_min":56,"x_max":290,"o":"m 160 1 q 138 7 149 4 q 117 15 126 9 q 98 30 107 20 q 80 47 88 39 q 68 66 72 56 q 61 88 64 77 q 57 110 58 99 q 56 134 56 121 q 61 155 58 145 q 69 175 64 164 q 81 194 75 186 q 96 209 88 202 q 118 222 107 217 q 142 232 129 228 q 168 236 155 236 q 195 236 182 236 q 216 229 206 233 q 233 221 225 225 q 250 210 241 217 q 266 194 258 202 q 279 172 274 183 q 288 151 285 161 q 290 126 290 140 q 290 99 290 113 q 285 81 288 91 q 277 64 282 72 q 266 47 271 56 q 252 31 260 39 q 232 18 241 23 q 210 8 222 12 q 186 3 198 4 q 160 1 174 1 z "},"/":{"ha":591,"x_min":19,"x_max":572,"o":"m 92 -57 q 80 -54 85 -56 q 68 -52 75 -53 q 58 -47 62 -50 q 46 -41 53 -45 q 35 -29 41 -37 q 27 -15 30 -22 q 23 -1 24 -8 q 19 12 22 5 q 107 283 53 149 q 215 550 161 416 q 326 816 269 684 q 439 1081 384 948 q 450 1093 446 1088 q 460 1103 453 1099 q 475 1110 468 1107 q 490 1116 483 1114 q 503 1115 496 1115 q 517 1114 510 1115 q 531 1109 525 1112 q 544 1100 537 1105 q 554 1090 549 1096 q 562 1078 559 1084 q 567 1065 564 1072 q 572 1051 570 1059 q 469 783 526 916 q 359 515 412 651 q 250 244 305 378 q 151 -26 194 110 q 141 -39 148 -33 q 126 -47 134 -45 q 109 -53 118 -50 q 92 -57 100 -56 z "},":":{"ha":298,"x_min":33,"x_max":267,"o":"m 137 19 q 117 24 126 22 q 98 31 107 27 q 79 42 88 35 q 61 57 69 49 q 47 80 54 68 q 37 104 41 92 q 33 132 33 117 q 33 159 33 146 q 38 175 35 167 q 45 191 41 183 q 54 206 49 199 q 64 221 58 213 q 87 239 75 232 q 113 250 99 245 q 141 254 126 254 q 172 254 156 254 q 190 247 180 248 q 208 240 199 245 q 222 229 216 235 q 237 216 229 224 q 251 195 245 205 q 260 174 256 186 q 266 150 264 161 q 267 125 267 138 q 262 103 264 114 q 254 83 259 92 q 240 64 248 73 q 224 46 232 54 q 205 33 216 38 q 183 24 194 27 q 161 20 172 22 q 137 19 151 19 m 129 562 q 109 568 118 564 q 90 576 99 572 q 72 589 80 581 q 56 605 64 597 q 43 626 49 616 q 35 648 38 636 q 33 674 33 661 q 33 701 33 688 q 39 719 35 709 q 47 738 43 728 q 58 754 52 747 q 72 769 64 761 q 92 783 83 777 q 114 791 102 788 q 138 795 126 793 q 164 796 151 796 q 182 791 172 793 q 199 784 191 788 q 216 774 208 780 q 232 764 224 769 q 248 742 240 753 q 260 719 256 731 q 266 693 264 707 q 267 666 267 680 q 262 646 264 655 q 255 627 259 636 q 244 610 251 618 q 232 594 237 602 q 209 579 221 586 q 184 567 197 572 q 157 562 172 562 q 129 562 142 562 z "},";":{"ha":358,"x_min":49,"x_max":302,"o":"m 171 -136 l 146 -119 q 141 -110 144 -114 q 137 -100 138 -106 q 136 -90 136 -95 q 136 -79 136 -84 l 149 -56 q 165 -42 157 -50 q 180 -27 174 -34 q 193 -11 187 -20 q 203 7 198 -1 l 206 50 l 198 50 q 195 39 198 45 q 191 27 193 34 q 187 16 190 20 q 179 7 184 12 q 168 -1 174 1 q 155 -4 163 -4 q 140 -4 146 -4 q 125 -4 133 -4 q 113 1 119 -1 q 99 8 106 4 q 87 18 92 12 q 76 28 81 23 q 62 52 68 39 q 53 77 57 64 q 49 106 49 91 q 49 134 49 121 q 54 151 52 142 q 61 166 57 159 q 71 180 65 174 q 84 193 76 187 q 102 202 92 198 q 119 209 111 206 q 138 212 127 212 q 160 212 149 212 q 186 205 174 209 q 210 197 198 201 q 231 180 221 193 q 251 161 240 168 q 271 133 262 148 q 288 102 281 118 q 297 68 294 85 q 302 31 300 50 q 294 -12 300 9 q 278 -52 289 -34 q 252 -87 267 -71 q 221 -119 237 -103 q 212 -127 217 -122 q 199 -134 206 -133 q 186 -136 193 -136 q 171 -136 179 -136 m 149 574 q 132 579 141 576 q 114 587 122 582 q 99 598 106 593 q 84 612 92 604 q 71 631 76 623 q 61 652 65 640 q 56 677 57 665 q 54 703 54 689 q 60 724 57 713 q 68 745 62 735 q 81 764 73 754 q 98 781 90 773 q 117 795 106 789 q 138 803 127 800 q 160 807 149 806 q 184 808 171 808 q 205 803 195 806 q 223 796 214 800 q 241 785 232 792 q 259 770 251 779 q 274 747 267 760 q 285 723 281 735 q 289 696 289 711 q 289 667 289 681 q 283 651 286 659 q 277 635 281 643 q 267 621 273 627 q 256 606 262 614 q 233 589 245 595 q 208 578 221 582 q 180 574 195 574 q 149 574 165 574 z "},"<":{"ha":646,"x_min":42,"x_max":625,"o":"m 450 -8 q 347 75 393 27 q 252 171 301 123 q 155 265 202 218 q 58 358 107 312 q 50 370 53 363 q 45 385 47 377 q 42 401 42 393 q 42 418 42 410 q 149 547 88 488 q 269 667 210 606 q 388 789 328 728 q 506 909 448 849 q 518 917 511 914 q 533 922 525 920 q 549 925 541 925 q 566 925 557 925 l 604 906 q 613 894 609 901 q 620 879 617 887 q 624 863 623 871 q 625 846 625 854 q 535 729 590 781 q 427 623 480 677 q 321 515 374 568 q 216 407 269 461 q 296 328 256 366 q 377 250 336 289 q 458 171 418 210 q 533 88 498 132 l 538 57 l 517 11 q 502 1 509 5 q 488 -5 495 -3 q 469 -8 480 -8 q 450 -8 458 -8 z "},"=":{"ha":738,"x_min":43,"x_max":705,"o":"m 95 176 l 62 195 q 52 210 57 203 q 45 227 46 217 q 43 245 43 236 q 43 266 43 255 l 62 297 q 73 305 68 300 q 85 313 79 311 q 100 316 92 316 q 114 319 109 316 l 632 319 q 646 316 637 316 q 661 313 654 316 q 673 305 667 311 q 684 297 678 300 q 692 286 686 292 q 700 275 697 281 q 703 260 703 269 q 705 247 703 252 q 703 233 703 241 q 700 218 703 225 q 692 206 697 212 q 684 195 686 201 l 651 176 l 95 176 m 127 532 l 95 551 q 84 566 90 559 q 77 582 79 572 q 76 601 76 591 q 76 621 76 610 l 95 654 q 106 662 100 656 q 118 670 111 667 q 133 673 125 673 q 146 675 141 673 l 600 675 q 613 673 605 673 q 628 670 621 673 q 640 662 635 667 q 651 654 646 656 q 662 639 656 646 q 669 623 667 632 q 670 604 670 613 q 670 583 670 594 l 651 551 l 618 532 l 127 532 z "},">":{"ha":646,"x_min":28,"x_max":612,"o":"m 170 -3 l 134 19 q 126 30 129 23 q 121 43 123 37 q 117 57 118 50 q 115 72 115 64 q 122 94 118 83 q 133 114 126 104 q 149 132 140 123 q 167 148 159 140 l 435 415 q 328 524 382 469 q 222 635 274 579 q 111 743 170 690 q 28 865 53 795 q 33 880 31 873 q 38 894 34 887 q 47 906 42 901 q 58 917 53 911 q 71 924 64 922 q 84 928 77 925 q 98 930 91 930 q 113 930 104 930 q 141 918 129 928 q 165 897 153 909 q 190 872 178 884 q 212 849 202 860 q 319 739 263 792 q 425 629 374 685 q 536 522 476 574 q 612 396 595 469 q 600 370 609 382 q 579 347 590 358 q 557 326 568 336 q 536 304 547 315 q 447 219 490 263 q 359 134 404 175 q 273 47 315 94 q 170 -3 231 0 z "},"?":{"ha":754,"x_min":43,"x_max":707,"o":"m 377 5 q 357 11 368 8 q 336 18 346 14 q 319 28 327 22 q 302 43 311 35 q 290 61 294 52 q 282 80 286 71 q 277 100 278 90 q 275 122 275 111 q 281 142 278 133 q 288 161 283 152 q 297 178 292 171 q 311 194 302 186 q 332 208 321 202 q 354 217 343 213 q 378 221 365 221 q 404 221 391 221 q 419 216 412 218 q 434 209 426 213 q 448 201 442 205 q 461 191 453 197 q 476 170 469 180 q 487 148 483 160 q 491 122 491 136 q 491 95 491 109 q 486 79 488 87 q 479 64 483 71 q 469 49 475 57 q 458 35 464 41 q 441 22 450 27 q 420 14 431 16 q 399 8 410 11 q 377 5 388 5 m 362 354 q 350 358 357 357 q 338 362 343 359 q 327 370 332 365 q 316 381 321 376 q 304 399 308 389 q 300 422 300 410 q 300 446 300 434 q 300 472 300 458 l 302 586 l 300 621 q 304 635 302 629 q 308 648 305 642 q 316 661 311 655 q 327 671 321 666 q 339 680 332 677 q 354 685 346 682 q 370 688 362 688 q 385 688 377 688 l 412 685 q 449 690 431 688 q 484 699 467 693 q 517 713 502 704 q 545 736 532 723 q 555 751 551 745 q 560 766 559 758 q 563 783 562 774 q 564 799 564 791 q 560 817 562 807 q 555 834 559 826 q 545 850 551 842 q 532 864 540 859 q 495 883 515 876 q 454 894 475 890 q 412 898 434 898 q 369 898 391 898 q 332 892 351 895 q 296 883 313 890 q 260 866 278 876 q 229 842 243 856 q 203 806 216 826 q 189 764 191 785 q 183 720 186 742 q 159 682 180 699 q 146 674 153 677 q 132 670 140 671 q 117 669 125 669 q 100 669 109 669 l 65 688 q 54 703 60 696 q 47 718 49 709 q 45 734 46 726 q 43 753 43 742 q 54 811 46 783 q 75 866 62 840 q 106 916 87 892 q 145 960 125 939 q 213 1004 178 987 q 288 1029 248 1020 q 366 1040 327 1039 q 445 1042 404 1042 q 503 1032 475 1039 q 559 1013 532 1025 q 610 985 586 1001 q 652 944 633 968 q 678 905 666 925 q 696 863 690 884 q 704 819 701 842 q 707 772 707 796 q 697 727 704 750 q 680 684 690 704 q 655 646 669 663 q 623 613 642 629 q 583 586 604 597 q 538 567 562 575 q 492 553 515 559 q 445 545 469 548 q 444 499 445 521 q 442 454 442 477 q 439 409 442 431 q 418 370 437 387 q 406 362 412 365 q 392 357 399 359 q 377 354 385 354 q 362 354 369 354 z "},"@":{"ha":933,"x_min":27,"x_max":910,"o":"m 465 -110 q 381 -98 422 -107 q 301 -71 340 -88 q 229 -27 262 -54 q 165 33 195 0 q 113 106 136 68 q 73 184 90 144 q 45 267 57 224 q 27 354 33 311 l 27 524 q 41 626 33 575 q 66 727 49 677 q 111 821 84 777 q 176 903 138 865 q 249 956 209 936 q 334 989 289 977 q 423 1006 378 1001 q 513 1009 468 1012 q 587 994 551 1004 q 661 968 624 985 q 726 929 697 952 q 783 876 755 906 q 845 784 821 834 q 886 678 869 734 q 906 568 902 623 q 907 456 910 513 q 897 385 905 420 q 878 315 888 349 q 848 248 867 281 q 804 189 829 216 q 770 161 788 172 q 732 142 753 151 q 690 132 712 133 q 646 130 667 130 q 624 137 635 133 q 602 146 613 141 q 582 160 591 151 q 564 178 572 170 q 529 159 548 167 q 492 146 510 151 q 453 140 473 141 q 411 138 433 138 q 377 146 395 141 q 345 157 359 151 q 316 174 330 164 q 289 197 302 183 q 266 232 275 213 q 250 271 256 251 q 244 313 244 292 q 244 357 244 335 q 252 391 248 376 q 266 423 256 407 q 286 454 275 439 q 311 483 297 469 q 347 507 330 496 q 385 524 365 518 q 429 529 406 529 q 473 529 452 529 l 518 515 l 521 518 q 513 540 518 529 q 502 562 507 551 q 490 583 496 572 q 473 602 483 594 q 463 608 468 605 q 452 614 457 612 q 439 617 446 617 q 425 617 433 617 l 389 591 q 380 572 384 583 q 372 552 376 562 q 362 533 368 543 q 349 515 357 524 q 336 509 343 513 q 323 503 330 505 q 308 500 316 502 q 292 499 300 499 q 279 503 286 502 q 267 509 273 505 q 256 517 262 513 q 245 526 251 521 q 241 537 244 532 q 236 549 239 543 q 233 563 233 556 q 231 575 233 570 q 239 612 233 594 q 255 647 245 631 q 277 680 264 663 q 302 709 289 696 q 336 734 319 723 q 373 751 354 745 q 412 760 392 758 q 454 761 433 761 q 488 753 471 758 q 521 739 505 747 q 552 722 537 731 q 581 699 567 712 q 625 638 608 671 q 655 568 643 605 q 670 494 667 532 q 675 418 673 456 q 671 390 673 404 q 669 361 670 376 q 663 332 667 346 q 656 305 659 319 l 675 273 l 709 300 q 741 357 728 327 q 758 420 753 388 q 764 487 764 453 q 764 553 764 521 q 751 622 758 589 q 731 686 745 655 q 699 747 718 718 q 656 802 681 777 q 610 833 635 821 q 559 854 586 846 q 505 864 532 863 q 449 865 477 865 q 395 857 422 863 q 342 842 368 852 q 293 814 316 831 q 251 774 270 796 q 201 680 217 731 q 178 574 184 628 q 171 467 171 521 q 171 359 171 412 q 187 289 176 324 q 214 220 198 254 q 252 155 231 186 q 300 100 273 125 q 343 69 321 84 q 391 46 365 54 q 442 35 416 38 q 494 33 468 33 q 537 39 515 35 q 581 49 559 43 q 623 62 602 54 q 667 68 643 71 l 705 49 q 713 34 709 41 q 720 19 718 27 q 724 3 723 11 q 726 -14 726 -5 l 708 -54 q 651 -82 681 -73 q 590 -98 621 -91 q 528 -107 559 -104 q 465 -110 496 -110 m 483 297 l 499 319 q 491 335 494 327 q 484 351 488 343 q 475 368 480 359 q 463 380 471 376 q 454 384 460 382 q 445 385 449 385 q 435 385 441 385 q 425 385 430 385 q 414 379 419 382 q 404 372 408 376 q 396 362 400 368 q 389 351 392 357 l 387 311 l 411 283 l 446 281 l 483 297 z "},"A":{"ha":1025,"x_min":37,"x_max":964,"o":"m 94 3 q 83 8 88 5 q 72 14 77 11 q 62 20 66 16 q 53 30 58 24 q 47 41 50 35 q 42 52 45 46 q 39 62 39 57 q 37 73 39 68 q 69 155 47 117 q 111 233 91 194 q 152 312 130 273 q 190 391 174 351 q 179 392 184 391 q 168 396 174 393 q 159 401 163 399 q 149 410 155 404 q 140 425 144 418 q 133 438 136 431 q 130 454 130 445 q 130 472 130 464 l 152 513 q 167 522 160 518 q 180 529 174 526 q 197 532 187 532 q 214 532 206 532 l 258 524 q 320 644 290 583 q 382 764 350 704 q 441 885 414 823 q 519 990 468 947 l 555 993 l 594 971 q 693 758 646 865 q 787 543 741 650 q 884 330 834 437 q 964 114 935 224 q 960 103 962 109 q 955 92 959 98 q 947 83 951 87 q 937 73 943 79 q 925 66 932 71 q 910 61 918 62 q 894 60 902 60 q 878 60 886 60 q 867 65 872 62 q 856 71 861 68 q 846 77 850 73 q 837 87 842 81 l 732 319 l 345 368 q 294 274 317 321 q 245 181 271 227 q 198 87 220 136 q 133 5 176 38 l 94 3 m 662 475 l 538 750 l 411 505 l 659 472 l 662 475 z "},"B":{"ha":852,"x_min":65,"x_max":796,"o":"m 270 -37 q 222 -33 245 -34 q 176 -28 199 -31 q 129 -22 152 -26 q 87 -1 106 -18 l 68 37 l 68 384 l 65 387 l 65 962 q 71 972 68 967 q 76 983 73 978 q 83 993 79 989 q 92 1002 87 997 q 182 1028 136 1021 q 277 1040 229 1035 q 372 1046 324 1044 q 467 1047 419 1047 q 538 1040 502 1044 q 609 1023 575 1035 q 675 993 643 1010 q 731 948 707 975 q 762 901 750 926 q 783 848 774 875 q 793 794 791 821 q 793 738 796 768 q 783 699 788 719 q 766 661 777 678 q 742 628 755 643 q 712 597 728 613 q 684 577 699 586 q 653 560 669 568 q 621 545 637 552 q 589 533 605 538 l 589 525 l 646 481 q 678 434 663 460 q 704 380 693 408 q 718 322 715 351 q 720 263 720 293 q 711 208 718 236 q 692 153 704 179 q 663 104 680 127 q 624 61 646 80 q 544 11 586 31 q 456 -19 502 -9 q 363 -33 411 -28 q 270 -37 316 -37 m 505 152 q 524 165 515 157 q 541 183 532 174 q 556 202 551 193 q 567 222 562 212 l 578 298 q 572 327 575 312 q 562 353 570 342 q 544 376 553 365 q 524 397 534 387 q 452 438 491 422 q 373 464 414 454 q 292 479 332 473 q 208 484 251 484 l 208 387 l 210 384 l 210 113 l 311 107 q 361 111 335 110 q 410 117 387 113 q 458 130 434 122 q 505 152 483 138 m 602 694 q 617 704 610 700 q 629 715 624 708 q 639 728 635 722 q 648 743 643 735 l 651 789 q 646 806 648 798 q 640 823 643 815 q 632 840 637 831 q 621 856 627 848 q 563 887 594 878 q 498 901 532 897 q 431 905 464 905 q 365 905 397 905 l 208 886 l 208 627 l 308 627 q 384 633 346 629 q 459 644 422 637 q 533 663 496 651 q 602 694 570 675 z "},"C":{"ha":939,"x_min":57,"x_max":871,"o":"m 526 5 q 423 18 475 8 q 323 49 372 28 q 232 100 275 69 q 153 172 189 132 q 109 237 126 202 q 80 309 92 271 q 62 385 68 347 q 60 464 57 423 q 75 556 65 509 q 105 647 84 604 q 153 729 126 690 q 216 800 180 768 q 278 845 245 825 q 347 879 311 865 q 422 898 382 892 q 499 901 461 903 q 584 884 543 898 q 665 850 625 871 q 738 803 704 830 q 800 743 772 776 q 814 726 806 735 q 826 707 822 716 q 831 688 830 699 q 833 663 833 677 q 829 652 830 658 q 825 642 827 647 q 818 632 822 636 q 808 623 814 628 q 797 614 803 617 q 783 609 791 612 q 766 606 774 606 q 750 606 758 606 l 712 625 q 684 658 699 642 q 652 688 669 674 q 618 711 636 701 q 582 732 601 722 q 552 743 567 738 q 522 751 537 749 q 490 755 507 754 q 456 757 472 757 q 412 749 434 754 q 370 732 391 743 q 332 709 350 722 q 297 680 313 696 q 252 620 270 652 q 222 551 235 587 q 205 478 210 514 q 202 404 199 442 q 212 357 205 380 q 231 312 218 334 q 259 270 243 290 q 294 235 275 250 q 356 194 324 210 q 423 165 388 178 q 495 152 458 153 q 568 151 532 151 q 610 160 590 153 q 651 175 631 167 q 689 197 671 183 q 723 227 707 210 q 734 239 728 235 q 743 252 739 244 q 755 264 747 260 q 769 274 764 269 l 811 279 q 823 274 817 277 q 836 269 830 271 q 846 260 841 266 q 857 250 852 255 q 863 238 860 244 q 868 227 865 232 q 871 214 871 221 q 871 199 871 208 q 861 174 868 186 q 845 149 854 161 q 825 126 836 137 q 803 104 814 115 q 742 61 774 80 q 673 30 709 42 q 600 13 636 18 q 526 5 564 8 z "},"D":{"ha":846,"x_min":41,"x_max":799,"o":"m 202 -15 q 167 -11 183 -12 q 133 -7 151 -9 q 98 1 115 -4 q 71 23 81 7 q 52 249 52 133 q 49 481 52 365 q 43 712 46 597 q 41 943 41 827 l 65 981 q 94 994 79 991 q 125 997 109 997 q 159 1000 142 997 q 191 1000 175 1002 q 328 986 259 997 q 461 952 396 975 q 584 892 526 929 q 688 806 642 856 q 742 724 720 768 q 777 635 764 681 q 795 541 791 590 q 799 444 799 492 q 788 353 796 397 q 764 266 780 309 q 722 184 747 222 q 663 115 696 146 q 562 47 617 75 q 446 5 507 20 q 325 -14 385 -9 q 202 -15 264 -18 m 513 182 q 549 206 532 193 q 581 237 567 220 q 606 274 595 255 q 628 312 617 293 q 642 359 636 336 q 650 406 647 381 q 654 456 652 430 q 655 506 655 481 q 646 570 652 538 q 627 633 639 602 q 594 692 614 665 q 551 741 574 719 q 468 795 513 773 q 376 829 423 817 q 281 848 330 842 q 183 856 232 853 l 183 784 l 197 132 l 321 129 q 369 135 345 132 q 418 145 393 138 q 467 160 442 152 q 513 182 491 168 z "},"E":{"ha":836,"x_min":31,"x_max":789,"o":"m 279 5 q 255 8 269 8 q 231 11 241 8 q 209 19 220 14 q 191 35 198 24 q 138 241 159 136 q 99 451 118 346 q 61 661 80 556 q 31 871 42 766 l 53 909 q 210 940 129 933 q 370 956 290 947 q 530 975 449 966 q 692 993 612 985 q 704 989 697 990 q 718 985 711 987 q 730 977 724 982 q 741 966 735 971 q 747 954 743 960 q 753 941 751 947 q 755 929 754 936 q 757 914 757 922 q 753 902 754 909 q 749 890 751 895 q 742 879 746 884 q 735 868 738 873 q 600 839 670 844 q 462 825 530 834 q 324 808 393 815 q 186 793 255 802 l 186 783 l 222 556 l 263 556 l 644 572 q 656 568 650 570 q 669 564 662 567 q 681 556 675 562 q 692 545 686 551 q 699 533 694 540 q 704 521 703 526 q 707 509 705 515 q 708 494 708 502 q 704 481 705 488 q 700 469 703 475 q 693 458 697 464 q 686 448 689 453 q 582 425 639 423 q 470 422 525 426 q 359 416 415 418 q 250 410 304 415 l 304 148 l 684 148 l 724 151 q 736 146 730 148 q 750 143 743 145 q 762 136 757 141 q 773 125 768 130 q 780 113 776 119 q 785 100 784 106 q 788 88 787 95 q 789 73 789 81 q 785 61 787 68 q 781 49 784 54 q 774 38 779 43 q 768 27 770 33 q 750 16 760 22 q 730 9 741 11 q 708 8 719 8 q 686 5 697 8 l 279 5 z "},"F":{"ha":781,"x_min":37,"x_max":730,"o":"m 184 -30 l 144 -8 q 109 234 117 111 q 88 479 100 357 q 63 725 76 602 q 37 968 50 848 l 58 1009 q 88 1025 71 1023 q 125 1028 106 1028 q 163 1028 144 1028 q 201 1031 182 1028 l 381 1031 l 384 1034 l 564 1034 l 670 1036 l 711 1015 q 720 1000 716 1006 q 727 986 724 993 q 730 970 730 979 q 730 952 730 960 l 708 911 q 677 895 694 898 q 640 892 659 892 q 602 892 621 892 q 564 890 583 892 l 384 890 l 381 887 l 190 887 l 190 861 l 220 608 q 315 604 269 605 q 411 598 362 602 q 508 594 460 594 q 597 570 556 594 q 606 555 602 562 q 613 541 610 548 q 616 525 616 534 q 616 507 616 515 l 594 467 q 576 456 586 461 q 557 449 567 450 q 537 448 548 448 q 517 448 526 448 l 239 464 l 233 456 q 244 350 239 403 q 254 243 250 297 q 262 137 258 190 q 269 30 266 84 l 247 -11 q 232 -20 239 -16 q 218 -27 225 -24 q 202 -30 212 -30 q 184 -30 193 -30 z "},"G":{"ha":1015,"x_min":52,"x_max":966,"o":"m 707 -26 q 696 -22 701 -23 q 685 -16 690 -20 q 675 -8 680 -12 q 666 1 671 -4 q 654 30 658 15 q 646 60 650 45 q 637 90 642 75 q 628 118 633 104 q 567 72 600 91 q 498 41 534 53 q 423 24 461 28 q 346 23 385 20 q 297 34 321 26 q 248 53 273 42 q 202 79 224 64 q 161 113 180 94 q 107 187 130 146 q 72 273 84 228 q 56 363 60 317 q 52 454 52 408 q 72 599 57 528 q 111 741 87 670 q 170 876 136 811 q 256 994 205 940 q 302 1029 278 1013 q 355 1055 327 1046 q 411 1067 382 1063 q 469 1069 439 1072 q 559 1044 515 1061 q 641 1001 602 1027 q 715 944 680 975 q 783 880 750 913 q 817 843 799 861 q 850 806 834 825 q 880 765 865 787 q 892 716 895 743 l 868 670 q 853 661 860 665 q 839 655 846 656 q 822 654 831 654 q 804 654 812 654 q 792 658 799 656 q 780 663 785 659 q 770 673 774 667 q 761 684 766 678 q 707 750 736 719 q 646 812 677 781 q 580 868 614 842 q 507 913 545 894 q 487 918 496 916 q 467 924 477 921 q 445 926 456 926 q 423 926 434 926 q 397 918 410 924 q 375 905 385 913 q 355 887 365 897 q 335 867 346 878 q 273 761 297 819 q 231 644 248 703 q 203 522 213 585 q 194 397 194 460 q 202 344 197 370 q 217 292 208 317 q 241 243 227 266 q 278 201 256 220 q 308 182 292 190 q 342 170 324 174 q 378 165 359 165 q 415 165 396 165 q 463 180 439 171 q 507 203 486 190 q 547 236 529 217 q 591 260 564 255 l 591 274 l 540 460 q 505 465 524 465 q 467 465 486 465 q 429 465 448 465 q 391 465 410 465 l 319 460 q 308 464 313 463 q 297 469 302 465 q 288 477 292 473 q 278 487 283 481 q 271 499 275 492 q 266 514 267 506 q 264 530 264 522 q 264 547 264 538 q 270 557 267 552 q 275 568 273 563 q 282 578 278 574 q 292 587 286 582 q 349 604 319 602 q 409 606 378 605 q 471 608 439 608 q 532 608 502 608 q 638 602 586 605 q 743 593 690 600 q 851 585 796 587 q 949 552 906 582 q 956 540 952 547 q 962 526 960 533 q 964 513 963 519 q 966 498 966 506 l 941 452 q 925 442 933 446 q 907 437 917 438 q 888 435 898 435 q 868 435 879 435 l 690 454 l 690 446 q 718 344 704 395 q 745 241 731 293 q 773 139 758 190 q 796 37 788 88 l 772 -9 q 757 -19 764 -15 q 742 -24 750 -23 q 724 -26 734 -26 q 707 -26 715 -26 z "},"H":{"ha":890,"x_min":35,"x_max":841,"o":"m 693 -49 l 650 -24 q 640 -8 644 -16 q 635 9 636 0 q 633 30 633 19 q 633 52 633 41 l 661 411 l 595 411 l 245 397 l 245 381 q 256 294 251 338 q 267 210 262 251 q 278 125 273 168 q 286 38 283 81 l 264 0 q 252 -9 259 -5 q 239 -15 245 -14 q 224 -18 232 -16 q 208 -19 216 -19 q 195 -15 202 -16 q 182 -11 189 -14 q 170 -3 175 -8 q 159 8 164 3 q 118 241 132 122 q 90 475 104 359 q 60 709 75 591 q 35 944 46 826 l 60 985 q 71 993 65 990 q 85 998 77 996 q 102 1001 94 1001 q 118 1001 110 1001 q 130 996 123 998 q 142 990 137 993 q 153 982 148 987 q 164 971 159 977 q 186 865 180 920 q 199 755 191 810 q 214 648 208 701 q 227 540 221 594 l 301 540 l 671 556 q 680 660 677 608 q 688 765 682 712 q 693 871 693 818 q 723 968 693 925 q 735 977 728 974 q 750 982 742 979 q 766 985 758 985 q 781 985 773 985 q 793 979 787 982 q 806 974 800 977 q 817 966 811 971 q 827 955 822 960 q 834 943 833 949 q 838 929 836 936 q 841 916 841 922 q 841 901 841 909 q 822 665 830 783 q 804 431 814 548 q 791 193 795 313 q 747 -35 787 73 q 735 -42 742 -41 q 722 -46 728 -43 q 708 -49 715 -49 q 693 -49 701 -49 z "},"I":{"ha":510,"x_min":58,"x_max":454,"o":"m 132 7 q 119 11 126 9 q 107 16 113 12 q 96 24 102 20 q 85 34 91 28 q 79 49 83 42 q 73 62 75 56 q 72 78 72 69 q 72 95 72 87 q 77 106 75 100 q 83 117 80 111 q 90 126 85 122 q 99 136 94 130 q 117 145 107 141 q 136 149 126 149 q 157 149 146 149 q 179 149 168 149 l 179 370 l 176 373 l 176 886 q 149 886 163 886 q 119 887 134 886 q 94 897 104 888 q 72 916 83 905 q 65 928 66 921 q 61 941 64 935 q 58 955 58 948 q 58 970 58 962 q 62 982 61 975 q 66 994 64 989 q 73 1003 69 1000 q 83 1012 77 1006 l 113 1028 l 389 1028 l 427 1004 q 435 993 433 1000 q 441 979 438 986 q 444 964 444 972 q 444 948 444 956 q 439 936 441 943 q 435 924 438 929 q 427 913 433 918 q 416 902 422 907 q 395 891 406 894 q 372 887 384 888 q 347 886 361 886 q 320 886 334 886 l 320 373 l 323 370 l 323 149 q 355 149 339 149 q 387 149 372 149 q 416 142 403 149 q 441 122 430 136 q 448 107 444 114 q 453 94 452 100 q 454 78 454 87 q 454 61 454 69 l 430 23 l 395 7 l 132 7 z "},"J":{"ha":825,"x_min":46,"x_max":777,"o":"m 355 -9 q 298 4 327 -4 q 241 27 270 12 q 190 60 213 42 q 145 100 167 79 q 101 165 118 130 q 71 239 84 201 q 52 314 57 277 q 46 392 46 351 q 49 419 49 406 q 52 446 49 433 q 58 472 54 460 q 73 495 62 484 q 85 505 79 500 q 99 510 92 509 q 113 513 106 511 q 129 514 121 514 q 141 510 134 511 q 155 506 148 509 q 167 498 161 503 q 178 487 172 492 q 184 475 180 481 q 190 461 189 468 q 193 448 191 454 q 194 433 194 441 l 191 346 q 199 303 194 324 q 213 262 205 282 q 233 222 221 241 q 262 187 245 203 q 297 159 278 171 q 337 140 316 146 q 381 133 358 133 q 426 133 404 133 q 465 145 445 138 q 505 163 486 152 q 540 187 524 174 q 572 217 556 201 q 605 299 595 255 q 620 388 614 343 q 628 477 625 433 q 633 567 631 522 l 633 954 q 596 954 614 954 q 559 952 578 954 q 524 956 540 951 q 494 975 507 962 q 484 987 488 981 q 479 1002 480 994 q 476 1017 477 1009 q 475 1034 475 1025 q 479 1046 477 1039 q 484 1058 480 1053 q 492 1069 488 1063 q 502 1080 496 1074 q 511 1085 507 1082 q 519 1090 515 1088 q 529 1093 524 1093 q 540 1096 534 1093 l 712 1096 q 724 1092 718 1093 q 738 1088 731 1090 q 750 1080 745 1085 q 761 1069 755 1074 l 777 1031 l 777 567 q 770 444 774 506 q 757 319 766 381 q 723 199 747 258 q 655 95 699 141 q 591 47 625 69 q 517 11 556 26 q 437 -8 477 -4 q 355 -9 396 -12 z "},"K":{"ha":901,"x_min":24,"x_max":845,"o":"m 183 -47 l 144 -26 q 102 227 114 98 q 76 485 90 357 q 49 741 62 613 q 24 998 35 869 l 46 1034 q 58 1043 52 1039 q 72 1048 65 1047 q 87 1051 79 1050 q 103 1053 95 1053 l 149 1028 q 178 888 174 960 q 191 745 183 815 q 206 602 199 675 q 224 460 213 529 q 363 574 294 515 q 500 690 431 632 q 635 811 570 747 q 783 907 701 875 l 829 883 q 838 868 834 875 q 844 853 842 861 q 845 836 845 845 q 845 818 845 826 q 838 802 842 810 q 827 787 834 793 q 814 773 821 780 q 802 761 807 766 l 537 529 q 608 439 572 483 q 680 349 644 395 q 754 258 715 302 q 802 157 793 214 l 780 117 q 765 107 772 111 q 751 100 758 103 q 735 98 745 98 q 718 98 726 98 l 677 119 l 423 438 q 380 400 403 419 q 334 363 357 381 q 289 326 311 346 q 240 292 267 305 l 240 270 l 267 11 l 245 -28 q 231 -38 237 -34 q 217 -45 224 -42 q 201 -47 210 -47 q 183 -47 191 -47 z "},"L":{"ha":808,"x_min":35,"x_max":754,"o":"m 88 5 q 77 9 83 8 q 66 15 72 11 q 58 23 61 19 q 49 33 54 27 q 42 47 46 41 q 37 61 38 54 q 35 77 35 68 q 35 95 35 87 q 68 306 54 199 q 100 517 83 412 q 130 730 118 623 q 183 933 142 837 q 194 939 189 936 q 205 944 199 941 q 217 947 210 947 q 229 949 224 947 q 244 945 237 947 q 258 941 251 944 q 271 933 264 939 q 283 922 278 928 q 290 910 286 917 q 294 897 293 903 q 297 883 296 890 q 298 868 298 876 l 189 149 l 251 149 l 699 157 q 711 153 704 155 q 723 148 718 152 q 732 140 728 144 q 742 130 736 136 q 749 118 747 125 q 753 103 751 111 q 754 87 754 95 q 754 71 754 79 l 734 33 q 617 12 680 11 q 494 11 555 14 q 373 8 434 8 q 254 5 312 8 l 88 5 z "},"M":{"ha":955,"x_min":45,"x_max":899,"o":"m 103 -33 l 60 -8 q 52 9 56 0 q 46 30 47 19 q 45 52 45 41 q 45 73 45 62 q 56 282 53 178 q 66 492 60 387 q 72 702 73 597 q 100 903 71 807 q 113 911 106 909 q 127 917 119 914 q 144 920 136 920 q 160 920 152 920 q 172 914 165 917 q 184 909 179 911 q 195 901 190 906 q 206 890 201 895 l 471 472 l 476 472 q 549 571 514 521 q 616 671 583 621 q 680 774 648 720 q 751 871 711 829 l 796 876 q 808 872 802 873 q 821 867 815 871 q 830 860 826 864 q 840 850 834 856 q 861 659 859 755 q 871 466 864 562 q 884 273 878 370 q 899 79 891 175 q 895 65 897 73 q 890 52 894 57 q 880 41 886 46 q 869 30 875 35 q 857 23 864 24 q 844 19 850 22 q 830 16 837 16 q 815 16 823 16 l 772 41 q 749 169 751 103 q 741 301 746 235 q 731 435 735 368 q 719 567 727 502 q 669 491 694 529 q 616 418 643 453 q 562 346 589 384 q 500 281 534 308 l 460 275 l 416 300 l 217 605 q 208 447 209 526 q 201 289 206 368 q 195 130 195 210 q 157 -19 195 49 q 145 -26 152 -24 q 132 -30 138 -27 q 118 -33 125 -33 q 103 -33 111 -33 z "},"N":{"ha":890,"x_min":38,"x_max":842,"o":"m 127 -8 q 115 -5 122 -5 q 103 0 109 -4 q 94 8 98 4 q 84 18 90 12 q 62 210 65 113 q 56 404 60 307 q 46 597 52 500 q 38 792 41 694 l 62 830 q 75 838 68 836 q 88 844 81 841 q 103 846 95 846 q 119 846 111 846 q 132 842 125 844 q 144 837 138 841 q 155 829 149 833 q 164 819 160 825 q 271 673 216 746 q 385 530 327 601 q 499 390 442 460 q 613 250 556 320 q 637 401 627 326 q 661 551 647 476 q 684 702 674 625 q 726 846 693 779 q 738 854 731 852 q 751 860 745 857 q 766 863 758 863 q 783 863 774 863 q 793 859 788 860 q 806 854 799 857 q 817 848 812 852 q 826 838 821 844 q 836 823 831 830 q 841 807 840 817 q 842 788 842 798 q 842 768 842 779 q 811 579 826 674 q 780 390 796 484 q 751 201 764 296 q 701 20 739 107 q 689 12 696 15 q 675 8 682 9 q 661 7 669 7 q 644 7 652 7 q 633 12 639 9 q 621 18 627 15 q 610 26 616 20 q 600 37 605 31 l 194 538 l 191 522 l 210 45 q 206 34 208 39 q 201 23 205 28 q 193 14 197 18 q 183 4 189 9 q 171 -3 178 -1 q 158 -7 164 -5 q 144 -8 152 -8 q 127 -8 136 -8 z "},"O":{"ha":863,"x_min":50,"x_max":822,"o":"m 369 -23 q 305 -14 336 -20 q 245 7 274 -7 q 191 39 217 20 q 142 83 164 58 q 92 164 113 119 q 61 255 72 209 q 50 349 50 301 q 50 446 50 397 q 69 568 56 509 q 106 685 83 627 q 160 795 129 743 q 236 891 191 848 q 277 920 255 907 q 321 939 298 932 q 370 947 345 945 q 420 948 396 948 q 496 935 457 945 q 571 907 536 924 q 638 868 606 891 q 697 815 670 845 q 757 730 732 776 q 796 633 781 684 q 817 532 811 583 q 819 430 822 481 q 803 334 814 381 q 773 241 792 288 q 727 155 754 195 q 663 83 700 114 q 598 35 633 56 q 525 1 563 15 q 448 -18 487 -12 q 369 -23 410 -23 m 528 160 q 564 187 547 171 q 597 221 582 203 q 623 259 612 239 q 644 301 633 279 q 660 351 652 326 q 671 401 667 376 q 675 453 675 427 q 675 506 675 479 q 665 573 673 541 q 643 637 658 605 q 608 699 628 670 q 560 749 587 727 q 515 777 538 765 q 468 795 492 789 q 418 803 444 802 q 366 804 393 804 q 331 782 347 796 q 301 750 315 768 q 277 713 288 732 q 255 675 266 694 q 224 593 236 635 q 204 510 212 552 q 195 423 197 468 q 194 335 194 378 q 201 290 197 315 q 213 244 206 266 q 233 202 220 222 q 260 163 247 182 q 296 140 277 149 q 336 126 315 130 q 380 122 358 122 q 423 122 401 122 q 449 127 435 125 q 476 136 463 130 q 502 146 490 141 q 528 160 514 152 z "},"P":{"ha":944,"x_min":60,"x_max":913,"o":"m 256 -14 q 244 -9 252 -11 q 229 -5 236 -8 q 217 1 222 -3 q 206 11 212 5 q 184 103 184 54 q 179 199 184 152 q 171 294 174 245 q 155 389 168 343 q 129 406 141 397 q 104 425 117 415 q 80 445 92 434 q 62 469 68 456 l 60 513 l 79 548 q 92 557 84 553 q 109 564 100 562 q 126 567 117 567 q 144 567 136 567 l 144 572 l 119 783 q 107 784 114 783 q 95 789 100 785 q 85 796 90 793 q 76 804 81 799 q 66 819 71 812 q 61 834 62 826 q 60 852 60 842 q 60 868 60 861 l 79 903 l 103 917 q 104 936 103 928 q 109 952 106 944 q 117 967 111 960 q 130 979 122 974 q 141 986 136 982 q 153 991 146 990 q 167 994 160 993 q 182 996 174 996 q 197 991 190 993 q 210 986 203 990 q 222 977 217 982 q 233 966 228 971 l 236 958 l 241 958 q 319 975 278 968 q 399 986 359 982 q 478 990 438 990 q 559 990 518 990 q 639 977 600 985 q 715 954 678 968 q 787 914 753 939 q 848 861 821 890 q 878 817 864 840 q 898 768 891 793 q 909 715 905 742 q 913 661 913 688 q 901 585 910 624 q 875 510 891 545 q 837 442 859 475 q 788 381 815 410 q 718 327 755 351 q 639 288 681 302 q 553 267 597 273 q 465 264 510 262 q 427 270 446 267 q 389 278 408 273 q 351 289 370 283 q 313 300 332 294 l 313 289 q 319 232 316 262 q 324 174 321 202 q 328 118 327 146 q 332 60 330 90 q 330 45 330 52 q 326 31 330 38 q 317 18 321 24 q 308 5 313 11 q 297 -1 302 3 q 285 -8 292 -5 q 270 -11 278 -11 q 256 -14 262 -11 m 635 442 q 671 468 654 453 q 703 499 689 483 q 726 534 716 515 q 747 572 736 553 q 755 598 753 586 q 762 623 758 610 q 766 650 766 636 q 769 677 766 663 q 764 708 766 693 q 755 738 761 723 q 741 765 750 753 q 719 788 731 777 q 654 825 689 812 q 583 842 618 837 q 511 848 548 848 q 435 848 473 848 q 392 842 414 845 q 347 836 370 840 q 302 826 324 831 q 259 818 281 821 l 259 802 l 300 467 q 354 441 327 453 q 411 420 381 429 q 470 408 441 412 q 529 407 499 404 q 556 412 543 410 q 583 419 570 415 q 610 429 597 423 q 635 442 624 434 z "},"Q":{"ha":1134,"x_min":38,"x_max":1080,"o":"m 949 49 q 917 60 933 54 q 886 75 901 65 q 858 96 871 84 q 831 122 845 109 l 783 190 q 716 144 753 163 q 642 114 680 125 q 564 102 605 103 q 483 100 524 100 q 404 117 442 106 q 328 145 365 127 q 259 186 292 163 q 197 240 227 210 q 127 330 157 281 q 77 431 98 378 q 47 540 57 483 q 41 654 38 597 q 52 718 43 685 q 72 781 60 750 q 104 840 84 812 q 146 891 125 867 q 221 944 180 922 q 307 978 262 966 q 398 994 351 990 q 491 996 445 998 q 563 982 526 993 q 631 954 600 971 q 692 913 663 936 q 747 864 720 891 q 814 773 785 821 q 861 673 842 726 q 888 566 879 621 q 898 453 898 510 q 894 420 895 438 q 890 385 892 403 q 882 351 887 368 q 873 319 876 335 q 894 285 884 302 q 914 251 903 267 q 937 219 925 235 q 968 193 949 203 l 993 193 l 1020 195 l 1058 176 q 1067 161 1063 168 q 1074 146 1072 155 q 1078 130 1077 138 q 1080 114 1080 122 l 1058 71 q 1035 57 1047 62 q 1008 50 1023 52 q 978 49 993 49 q 949 49 963 49 m 655 273 l 707 319 q 686 346 696 332 q 665 372 677 359 q 640 393 652 384 q 610 411 627 403 q 594 415 602 414 q 576 418 586 416 q 557 419 567 419 q 540 419 548 419 q 522 415 532 416 q 505 411 513 414 q 488 403 496 408 q 472 392 480 397 q 458 370 464 381 q 452 347 453 359 q 449 323 450 335 q 448 297 448 311 l 458 251 q 481 245 469 248 q 507 243 494 243 q 533 243 521 243 q 559 243 545 243 q 585 248 572 245 q 609 254 597 251 q 633 262 621 256 q 655 273 644 267 m 308 340 l 308 359 q 319 399 313 378 q 332 437 324 419 q 354 473 340 456 q 384 505 368 491 q 429 534 406 524 q 479 552 453 545 q 532 560 505 559 q 586 562 559 562 q 630 553 608 559 q 674 537 652 548 q 715 514 696 526 q 753 486 734 502 l 755 491 q 742 576 753 534 q 712 657 731 618 q 667 731 693 696 q 610 796 642 766 q 566 826 589 812 q 517 846 543 840 q 464 853 491 853 q 410 853 437 853 q 362 845 387 850 q 315 830 338 840 q 270 806 292 821 q 232 772 248 791 q 206 731 216 753 q 191 686 197 709 q 184 637 186 662 q 183 589 183 613 q 198 519 189 553 q 224 454 208 486 q 259 392 240 422 q 305 338 278 362 l 308 340 z "},"R":{"ha":1009,"x_min":50,"x_max":954,"o":"m 872 -47 l 829 -26 q 768 46 799 11 q 705 115 738 81 q 640 184 673 149 q 570 248 608 220 q 530 235 552 240 q 487 226 509 229 q 442 222 465 222 q 397 222 419 222 l 301 243 l 301 235 l 323 33 q 319 19 320 27 q 315 5 317 11 q 307 -5 312 0 q 296 -15 301 -9 q 283 -23 290 -20 q 270 -27 277 -26 q 256 -30 263 -28 q 241 -31 250 -31 l 198 -9 q 174 76 176 30 q 165 167 171 122 q 156 256 160 212 q 138 343 152 300 l 56 430 l 50 475 l 75 515 q 84 522 80 518 q 94 528 88 526 q 106 530 100 529 q 117 532 111 532 l 117 551 l 61 913 l 85 958 q 100 967 94 963 q 114 972 106 971 q 132 974 122 974 q 149 974 141 974 q 160 970 155 971 q 171 964 165 968 q 180 956 176 960 q 190 947 184 952 q 199 929 195 939 q 205 909 203 920 q 208 888 206 899 q 214 869 209 878 q 302 907 258 891 q 393 935 346 922 q 488 951 441 947 q 583 952 536 955 q 646 939 616 947 q 704 918 675 930 q 758 886 732 905 q 804 842 784 867 q 833 796 821 821 q 852 747 845 772 q 860 696 859 723 q 861 643 861 670 q 842 555 856 600 q 809 471 829 510 q 761 396 789 433 q 700 327 732 359 q 771 256 735 292 q 841 182 807 220 q 910 106 875 144 q 954 16 945 68 q 949 3 951 11 q 945 -10 948 -5 q 937 -20 943 -15 q 926 -31 932 -26 q 914 -39 921 -37 q 901 -43 907 -42 q 887 -46 894 -45 q 872 -47 880 -47 m 452 365 l 452 370 q 444 382 446 376 q 439 396 441 389 q 438 411 438 403 q 438 427 438 419 l 463 467 q 476 475 468 472 q 491 480 484 477 q 507 483 498 483 q 525 483 517 483 q 545 473 536 477 q 562 462 555 469 q 578 445 570 454 q 597 430 586 435 q 647 485 624 454 q 688 548 670 515 q 713 617 705 581 q 719 690 722 654 q 713 712 716 701 q 707 732 711 723 q 694 750 703 742 q 678 766 686 758 q 639 792 659 783 q 595 806 618 802 q 549 810 572 810 q 500 810 525 810 q 433 796 465 804 q 366 777 400 788 q 300 751 332 766 q 239 720 269 736 l 236 707 l 279 414 q 319 392 298 403 q 361 376 340 381 q 404 366 381 370 q 452 365 427 362 z "},"S":{"ha":781,"x_min":43,"x_max":736,"o":"m 324 -50 q 254 -38 289 -45 q 186 -18 218 -31 q 120 9 153 -4 q 60 47 87 23 q 53 60 57 53 q 47 73 49 66 q 45 86 46 80 q 43 100 43 92 l 68 146 q 83 156 76 152 q 98 161 90 160 q 115 163 106 163 q 132 163 125 163 q 197 130 164 146 q 263 104 229 114 q 333 92 297 95 q 404 92 369 90 q 450 100 429 95 q 494 114 472 106 q 536 136 515 122 q 572 168 556 149 q 581 180 575 174 q 588 194 586 187 q 591 208 590 201 q 593 222 593 214 q 588 239 590 231 q 581 254 586 247 q 568 267 575 260 q 556 279 562 274 q 452 336 507 317 q 341 374 396 354 q 237 430 286 395 q 148 509 189 465 q 113 559 129 533 q 87 614 98 586 q 73 674 76 643 q 73 738 71 705 q 90 800 79 770 q 116 857 100 829 q 152 911 132 886 q 197 959 172 937 q 258 1003 224 983 q 325 1036 292 1023 q 396 1057 358 1050 q 472 1063 434 1063 q 519 1055 496 1061 q 566 1039 543 1050 q 608 1014 589 1028 q 644 981 628 1000 q 681 925 666 956 q 704 863 696 894 q 716 798 712 831 q 720 732 720 765 q 715 722 718 727 q 709 711 712 716 q 703 701 707 705 q 693 692 699 697 q 682 686 688 689 q 671 681 677 684 q 659 678 666 678 q 647 675 652 678 q 632 680 639 678 q 618 684 625 681 q 605 692 612 686 q 593 703 598 697 q 578 750 578 724 q 572 801 578 776 q 557 850 567 826 q 529 894 548 875 q 509 907 518 902 q 487 917 499 913 q 463 921 475 921 q 437 921 450 921 q 391 909 412 916 q 348 890 369 902 q 308 863 327 878 q 270 829 289 848 q 245 797 256 812 q 227 762 235 781 q 217 723 218 743 q 216 681 216 703 q 227 651 221 665 q 240 624 232 637 q 259 598 248 610 q 283 575 270 586 q 379 513 327 536 q 488 473 431 490 q 593 427 545 457 q 682 354 642 397 q 707 321 696 338 q 724 285 718 304 q 734 245 731 266 q 736 203 736 225 q 727 159 734 182 q 709 114 720 136 q 682 75 699 92 q 647 42 666 58 q 576 -4 614 15 q 495 -35 537 -23 q 410 -50 453 -47 q 324 -50 366 -53 z "},"T":{"ha":1063,"x_min":47,"x_max":1016,"o":"m 471 53 l 431 75 q 420 92 426 83 q 414 113 415 102 q 412 136 412 123 q 412 159 412 148 l 434 758 l 107 758 l 66 780 q 57 795 61 788 q 50 808 53 802 q 47 824 47 815 q 47 841 47 833 l 69 882 l 107 901 l 956 901 l 997 879 q 1006 864 1002 871 q 1013 850 1010 857 q 1016 834 1016 844 q 1016 818 1016 825 l 994 777 l 956 758 l 576 758 q 571 512 574 587 q 564 363 568 437 q 560 215 560 290 q 533 72 560 140 q 518 62 525 66 q 505 56 511 58 q 488 53 498 53 q 471 53 479 53 z "},"U":{"ha":803,"x_min":53,"x_max":746,"o":"m 334 14 q 282 23 309 16 q 231 42 255 30 q 186 69 208 54 q 145 106 164 84 q 90 199 110 148 q 61 305 69 251 q 53 414 53 359 q 53 524 53 469 q 57 578 56 551 q 62 631 58 605 q 68 686 66 658 q 88 736 69 715 q 103 746 96 742 q 118 753 110 750 q 137 755 126 755 q 156 755 148 755 l 191 736 q 199 726 194 731 q 208 713 205 720 q 210 699 210 707 q 213 685 210 690 q 205 608 208 647 q 199 530 202 570 q 197 452 197 491 q 197 373 197 412 q 203 323 199 349 q 216 273 208 297 q 236 225 224 248 q 269 186 248 202 q 301 168 285 175 q 335 159 317 161 q 372 156 353 156 q 410 156 391 156 q 438 164 423 159 q 467 176 453 170 q 492 193 480 183 q 514 216 503 202 q 564 301 547 254 q 591 398 582 349 q 602 496 601 448 q 604 597 604 545 q 598 647 601 620 q 591 700 595 674 q 581 750 587 726 q 574 802 574 774 q 578 814 576 807 q 583 826 579 821 q 591 835 587 831 q 601 844 595 838 q 612 850 606 846 q 624 856 617 854 q 637 859 631 857 q 652 860 644 860 q 667 856 661 857 q 681 850 674 854 q 693 842 688 846 q 704 831 699 837 q 727 747 719 791 q 741 659 735 704 q 746 572 746 614 q 746 483 746 529 q 731 375 741 429 q 705 269 722 321 q 658 170 688 216 q 587 87 628 125 q 530 50 560 65 q 469 26 500 35 q 403 15 437 16 q 334 14 369 14 z "},"V":{"ha":944,"x_min":35,"x_max":890,"o":"m 480 19 l 445 38 q 330 235 381 132 q 227 440 278 338 q 125 645 175 543 q 35 854 76 747 q 39 868 38 860 q 45 883 41 876 q 53 895 49 890 q 62 906 57 901 q 75 913 68 909 q 88 918 81 917 q 102 921 95 920 q 117 922 109 922 l 163 898 q 243 731 202 815 q 324 564 283 647 q 408 398 365 480 q 494 235 450 316 q 568 371 532 302 q 640 510 605 439 q 704 653 674 581 q 774 793 734 726 q 787 800 780 796 q 799 806 793 804 q 811 808 804 807 q 826 810 818 810 q 838 806 831 807 q 852 802 845 804 q 863 795 859 799 q 873 785 868 791 q 883 770 879 777 q 888 755 887 764 q 890 738 890 747 q 890 720 890 728 q 814 542 853 631 q 730 368 774 453 q 640 199 685 283 q 540 33 594 114 q 528 26 534 30 q 513 20 521 22 q 496 19 505 19 q 480 19 488 19 z "},"W":{"ha":971,"x_min":31,"x_max":929,"o":"m 270 -12 q 255 -7 263 -9 q 240 0 247 -4 q 227 9 233 4 q 214 23 220 15 q 137 222 163 117 q 91 432 111 327 q 53 642 71 537 q 31 856 35 747 l 54 897 q 68 905 60 902 q 83 910 76 907 q 99 913 90 913 q 117 913 109 913 l 152 894 q 187 736 179 818 q 210 571 195 654 q 241 408 225 488 q 281 250 258 327 q 316 338 300 292 q 350 429 332 384 q 384 519 368 473 q 427 605 400 564 q 441 613 433 610 q 456 618 449 616 q 472 621 463 621 q 490 621 481 621 l 524 602 q 575 522 551 562 q 625 441 600 481 q 680 362 651 400 q 736 286 708 324 q 757 424 750 354 q 770 563 764 494 q 779 703 777 632 q 810 837 780 774 q 825 846 818 842 q 840 852 831 850 q 857 853 848 853 q 875 853 867 853 q 886 849 880 850 q 897 844 891 848 q 906 836 902 840 q 916 826 910 831 q 925 808 921 818 q 929 788 929 799 q 929 766 929 777 q 929 745 929 755 q 916 587 921 667 q 902 429 910 507 q 883 273 894 351 q 831 125 872 195 q 815 113 823 119 q 798 103 807 106 q 777 99 788 100 q 755 98 766 98 q 725 107 739 100 q 697 123 711 114 q 671 145 684 133 q 646 171 659 157 q 604 222 624 195 q 564 276 583 250 q 526 331 545 302 q 490 387 507 359 q 452 290 468 338 q 416 193 435 241 q 382 94 397 144 q 332 4 368 43 q 319 -4 327 -1 q 304 -9 311 -7 q 288 -12 297 -12 q 270 -12 278 -12 z "},"X":{"ha":971,"x_min":41,"x_max":913,"o":"m 103 -39 l 60 -18 q 50 -4 54 -12 q 43 12 46 4 q 41 30 41 20 q 41 47 41 39 q 111 145 71 100 q 193 237 152 190 q 275 329 233 285 q 357 419 316 373 q 275 512 316 465 q 194 606 233 559 q 110 700 155 654 q 57 807 65 746 l 81 848 q 95 856 87 853 q 110 861 103 859 q 126 864 117 864 q 144 864 136 864 l 179 845 l 457 526 q 543 617 499 572 q 629 707 586 662 q 717 794 673 751 q 810 875 761 837 l 856 880 l 891 861 q 901 849 897 856 q 907 834 905 842 q 911 818 910 826 q 913 802 913 810 q 909 787 910 793 q 903 773 907 780 q 892 760 899 766 q 880 749 886 754 q 795 669 837 711 q 713 586 753 627 q 632 503 673 545 q 553 416 591 460 q 635 332 594 373 q 717 248 675 290 q 804 170 758 206 q 891 92 850 133 l 897 58 q 892 45 894 53 q 888 31 891 37 q 880 20 886 26 q 869 9 875 15 q 857 1 864 4 q 844 -3 850 -1 q 830 -5 837 -4 q 815 -7 823 -7 q 730 44 769 12 q 655 110 692 76 q 582 180 618 144 q 510 252 545 217 l 454 311 q 374 225 414 269 q 296 138 335 182 q 220 51 256 95 q 141 -34 184 7 l 103 -39 z "},"Y":{"ha":971,"x_min":37,"x_max":956,"o":"m 441 -53 q 426 -49 433 -50 q 412 -45 419 -47 q 399 -37 406 -42 q 387 -26 392 -31 q 380 -14 384 -20 q 374 0 376 -7 q 372 14 373 7 q 370 28 370 20 l 406 400 q 307 513 357 457 q 209 626 258 568 q 106 738 160 684 q 37 861 52 792 l 60 902 q 73 910 65 907 q 88 916 81 913 q 104 918 95 918 q 122 918 114 918 l 157 899 l 471 541 l 479 541 l 837 1016 q 850 1024 842 1021 q 865 1029 859 1027 q 882 1032 872 1032 q 899 1032 891 1032 l 935 1013 q 944 1001 940 1008 q 951 986 948 994 q 955 970 954 978 q 956 954 956 962 q 795 722 880 834 q 620 498 711 610 q 532 240 529 387 q 487 -37 534 94 q 476 -42 481 -39 q 465 -47 471 -45 q 453 -50 460 -50 q 441 -53 446 -50 z "},"Z":{"ha":971,"x_min":46,"x_max":944,"o":"m 380 0 q 332 3 355 3 q 283 3 308 3 q 235 5 259 3 q 191 27 210 8 q 182 42 186 35 q 176 57 178 49 q 175 75 175 65 q 175 92 175 84 q 307 253 237 175 q 446 410 377 331 q 583 569 515 488 q 712 734 650 650 l 707 734 q 559 722 633 726 q 411 715 486 718 q 262 708 336 712 q 113 699 189 704 q 100 703 107 701 q 85 707 92 704 q 73 713 79 709 q 62 723 68 718 q 53 738 57 731 q 47 753 49 745 q 46 770 46 761 q 46 788 46 780 l 65 822 q 264 852 161 849 q 469 860 366 854 q 674 872 571 865 q 879 890 777 879 q 894 886 887 887 q 907 880 901 884 q 920 871 914 876 q 930 860 925 865 q 937 848 936 854 q 941 834 939 841 q 944 821 944 827 q 944 806 944 814 q 820 634 887 718 q 684 468 753 551 q 545 306 614 385 q 404 145 475 227 l 502 142 l 505 145 l 844 145 l 879 126 q 887 115 882 121 q 895 103 892 110 q 898 89 898 96 q 901 76 898 81 q 898 61 898 68 q 894 47 898 54 q 886 34 890 41 q 876 22 882 27 q 865 15 871 19 q 854 8 860 11 q 842 5 849 5 q 830 3 836 5 l 502 3 l 380 0 z "},"[":{"ha":537,"x_min":64,"x_max":498,"o":"m 151 -115 l 110 -96 q 81 180 80 39 q 77 462 83 321 q 71 744 72 602 q 64 1025 69 886 q 68 1038 66 1031 q 72 1051 69 1044 q 79 1063 75 1058 q 88 1074 83 1069 q 99 1081 94 1077 q 111 1088 104 1085 q 125 1092 118 1090 q 140 1093 132 1093 q 225 1078 182 1085 q 312 1065 269 1072 q 398 1053 355 1058 q 479 1023 441 1047 q 486 1013 481 1017 q 492 1001 490 1008 q 495 986 495 994 q 498 972 495 978 q 494 959 495 967 q 490 944 492 951 q 483 932 487 937 q 473 921 479 926 q 463 914 468 918 q 450 907 457 910 q 435 905 444 905 q 422 902 427 905 l 209 937 l 209 886 l 228 37 l 244 37 l 399 53 q 410 49 404 50 q 423 45 416 47 q 435 37 430 42 q 446 26 441 31 q 454 14 452 20 q 458 1 457 7 q 461 -11 460 -4 q 463 -26 463 -18 l 441 -72 q 371 -95 408 -94 q 297 -100 334 -96 q 224 -109 260 -104 q 151 -115 187 -113 z "},"\\":{"ha":1015,"x_min":52,"x_max":975,"o":"m 453 4 q 441 8 448 7 q 429 14 434 9 q 418 22 423 18 q 407 31 412 26 q 399 41 401 35 q 395 53 396 46 q 392 66 393 60 q 391 81 391 73 l 401 179 q 321 180 361 179 q 245 181 282 180 q 168 179 208 182 q 96 198 129 176 q 85 213 91 206 q 77 228 80 220 q 75 245 75 236 q 75 263 75 255 q 79 274 77 267 q 83 286 80 281 q 90 296 85 292 q 99 305 94 300 q 130 319 113 316 q 167 321 148 321 q 205 321 186 321 q 243 321 224 321 l 412 316 l 420 403 q 350 406 385 406 q 281 408 315 406 q 212 411 247 411 q 153 441 178 411 q 146 453 148 446 q 142 467 145 460 q 140 480 140 473 q 140 495 140 487 q 164 537 144 524 q 186 549 175 545 q 209 553 197 553 q 233 553 221 553 q 258 553 245 553 l 339 548 q 264 640 304 597 q 186 729 224 684 q 104 817 148 774 q 54 895 61 859 q 77 956 52 936 q 90 965 83 962 q 104 970 96 968 q 121 972 113 971 q 137 974 129 974 q 153 968 145 971 q 168 961 161 966 q 182 949 175 956 q 194 937 189 943 l 495 597 q 590 720 544 659 q 683 842 636 780 q 776 966 730 905 q 876 1082 822 1028 q 914 1088 895 1092 q 926 1084 920 1085 q 938 1078 933 1082 q 948 1070 943 1074 q 959 1061 954 1066 q 967 1048 964 1055 q 971 1035 970 1042 q 974 1021 972 1028 q 975 1006 975 1015 q 912 908 972 987 q 808 771 852 829 q 722 655 765 713 q 633 540 680 597 q 687 536 661 537 q 742 533 713 534 q 798 530 770 532 q 846 510 825 529 q 856 496 852 502 q 863 483 860 490 q 865 467 865 476 q 865 449 865 457 q 861 437 863 444 q 857 425 860 430 q 850 415 854 419 q 841 406 846 411 q 819 393 830 397 q 795 389 808 389 q 769 389 781 389 q 743 389 757 389 l 563 397 l 557 313 q 618 313 587 313 q 680 312 650 313 q 739 311 709 311 q 792 289 768 311 q 802 275 798 283 q 808 261 806 267 q 811 245 811 255 q 811 228 811 236 q 789 187 803 203 q 764 174 779 179 q 732 168 749 168 q 702 168 716 168 q 671 168 688 168 l 541 171 q 541 127 541 149 q 538 88 540 106 q 530 52 536 71 q 509 20 525 34 q 496 14 503 18 q 484 7 490 9 q 469 4 477 4 q 453 4 461 4 z "},"]":{"ha":510,"x_min":41,"x_max":473,"o":"m 357 -113 q 288 -104 321 -107 q 219 -98 254 -102 q 149 -91 184 -94 q 90 -61 114 -88 q 83 -49 84 -56 q 79 -35 81 -42 q 76 -22 76 -28 q 76 -7 76 -15 l 100 37 q 117 46 109 42 q 133 52 125 50 q 152 53 141 53 q 171 53 163 53 l 305 39 q 315 262 313 149 q 319 488 316 376 q 324 711 321 600 q 330 937 327 823 l 313 937 l 100 905 q 88 910 95 907 q 76 916 81 913 q 65 924 71 918 q 54 935 60 929 q 49 947 52 940 q 43 959 46 954 q 41 971 41 964 q 41 986 41 978 q 45 998 43 990 q 50 1012 46 1006 q 60 1023 54 1017 q 71 1034 65 1028 q 156 1055 111 1050 q 243 1069 201 1061 q 330 1084 286 1077 q 416 1093 373 1090 q 429 1089 422 1090 q 441 1084 435 1088 q 450 1076 446 1080 q 460 1066 454 1072 q 473 1029 473 1050 q 473 989 473 1009 q 473 949 473 970 q 473 910 473 929 q 467 656 468 783 q 461 404 465 529 q 458 151 457 279 q 427 -96 460 23 q 411 -106 419 -102 q 395 -111 403 -110 q 376 -113 387 -113 q 357 -113 365 -113 z "},"^":{"ha":515,"x_min":61,"x_max":464,"o":"m 115 867 q 104 871 110 869 q 94 876 99 872 q 84 884 88 880 q 75 894 80 888 q 68 905 72 899 q 62 920 64 911 q 61 936 61 928 q 61 952 61 944 q 73 978 64 966 q 92 1004 83 990 q 111 1029 102 1017 q 132 1053 121 1042 q 164 1078 148 1066 q 198 1099 180 1090 q 236 1111 216 1107 q 277 1112 256 1115 q 313 1103 296 1109 q 347 1086 331 1096 q 380 1065 363 1077 q 410 1039 396 1053 q 429 1016 418 1028 q 449 991 439 1004 q 461 966 458 979 q 464 936 464 952 q 460 924 461 930 q 454 911 458 917 q 446 901 450 906 q 437 891 442 897 q 422 884 429 888 q 408 879 415 880 q 392 878 401 878 q 374 878 382 878 q 363 883 369 880 q 353 888 358 886 q 343 895 347 891 q 334 905 339 899 q 320 922 328 914 q 302 940 312 930 q 285 956 293 949 q 266 968 277 963 l 256 968 q 231 944 243 958 q 208 918 218 930 q 186 891 197 905 q 159 869 175 878 l 115 867 z "},"_":{"ha":781,"x_min":47,"x_max":724,"o":"m 102 -3 l 69 16 q 61 27 66 22 q 53 39 56 33 q 50 54 50 46 q 47 68 50 62 q 50 81 50 73 q 53 96 50 90 q 61 109 56 103 q 69 119 66 114 q 80 127 75 122 q 92 136 85 133 q 107 138 99 138 q 121 141 115 138 l 655 141 q 669 138 661 138 q 684 136 677 138 q 696 127 690 133 q 705 119 701 122 q 716 104 711 111 q 723 88 722 98 q 724 69 724 79 q 724 49 724 60 l 705 16 l 674 -3 l 102 -3 z "},"`":{"ha":477,"x_min":66,"x_max":406,"o":"m 317 758 q 305 764 312 761 q 292 772 298 766 q 279 783 285 777 q 269 793 274 788 q 212 862 241 829 q 155 929 182 895 q 98 997 129 963 q 69 1077 66 1031 q 73 1088 72 1082 q 79 1099 75 1093 q 87 1107 83 1104 q 96 1116 91 1111 q 109 1123 102 1119 q 123 1128 115 1127 q 140 1130 132 1130 q 156 1130 148 1130 q 168 1124 161 1127 q 180 1116 174 1122 q 193 1106 187 1111 q 203 1096 198 1101 q 260 1027 231 1061 q 317 959 290 993 q 375 892 345 925 q 403 812 406 859 q 399 802 400 807 q 395 791 399 796 q 387 781 391 785 q 377 772 382 777 q 365 765 372 769 q 350 760 358 761 q 334 758 342 758 q 317 758 326 758 z "},"a":{"ha":987,"x_min":43,"x_max":949,"o":"m 400 -11 q 353 -3 376 -8 q 308 14 330 3 q 267 39 286 24 q 232 73 248 54 q 200 124 213 98 q 179 179 187 151 q 170 237 171 208 q 168 297 168 267 q 178 342 171 321 q 195 387 184 363 q 219 429 206 410 q 251 464 232 448 q 292 491 270 480 q 336 509 313 502 q 384 515 359 515 q 433 515 408 515 q 458 510 445 513 q 486 503 472 507 q 513 495 499 499 q 537 483 526 491 l 540 494 q 532 533 537 513 q 518 571 526 553 q 498 606 510 589 q 472 636 486 623 q 447 654 458 647 q 420 666 435 661 q 389 673 406 671 q 357 674 373 674 q 309 665 332 671 q 264 647 286 658 q 224 623 243 636 q 190 591 206 609 q 179 576 184 583 q 168 562 174 570 q 155 548 163 553 q 138 540 146 543 l 100 537 l 60 562 q 52 575 54 567 q 46 589 49 583 q 43 605 43 595 q 43 623 43 614 q 56 648 49 636 q 72 673 62 661 q 92 696 81 685 q 114 718 103 707 q 178 764 144 745 q 251 796 213 783 q 328 814 289 810 q 408 815 368 818 q 456 803 433 810 q 505 785 480 796 q 549 758 529 774 q 589 723 570 742 q 663 587 637 661 q 688 433 688 513 q 728 288 688 354 q 823 161 769 221 q 849 142 837 151 q 878 133 861 134 q 908 127 894 132 q 933 109 922 122 q 941 96 939 103 q 947 81 944 90 q 949 65 949 73 q 949 49 949 57 q 945 37 947 43 q 940 24 944 30 q 932 15 936 19 q 922 5 928 11 q 911 -1 917 3 q 900 -7 906 -5 q 888 -9 894 -8 q 875 -11 883 -11 q 830 -1 853 -8 q 787 15 807 5 q 747 39 766 24 q 712 71 728 54 l 662 132 q 639 96 651 114 q 610 62 627 79 q 576 34 594 46 q 537 11 559 22 q 505 0 521 5 q 471 -7 488 -5 q 436 -9 453 -8 q 400 -11 419 -11 m 491 148 q 506 160 499 153 q 518 175 513 167 q 528 191 524 183 q 537 208 532 199 l 553 289 q 533 312 545 300 q 509 334 521 324 q 484 351 496 343 q 458 363 472 359 q 439 369 448 366 q 419 372 430 372 q 397 372 408 372 q 376 372 387 372 l 335 346 q 323 327 327 338 q 315 305 319 316 q 311 282 311 294 q 308 259 311 270 q 313 228 311 243 q 321 199 316 213 q 335 174 327 186 q 357 151 343 161 q 376 138 365 142 q 397 133 387 134 q 422 132 408 132 q 445 132 435 132 l 491 148 z "},"b":{"ha":830,"x_min":30,"x_max":789,"o":"m 205 -61 q 194 -57 199 -58 q 183 -52 189 -56 q 174 -43 178 -47 q 164 -34 170 -39 q 142 58 148 9 q 130 152 137 106 q 117 246 123 198 q 102 340 110 294 l 69 362 q 61 376 64 368 q 56 391 58 384 q 54 407 54 397 q 54 425 54 416 l 75 463 l 85 476 q 68 595 77 534 q 52 717 58 656 q 39 837 46 777 q 30 959 33 897 l 52 996 q 62 1005 56 1001 q 76 1010 69 1009 q 91 1013 83 1012 q 107 1015 99 1015 q 119 1010 113 1012 q 133 1006 126 1009 q 145 998 140 1004 q 156 987 151 993 q 178 879 175 935 q 189 768 180 823 q 203 658 197 713 q 218 545 210 602 l 224 545 q 287 574 254 562 q 354 594 320 586 q 422 608 388 602 q 491 613 456 613 q 548 605 519 610 q 604 589 576 600 q 655 560 631 578 q 701 524 680 543 q 743 468 726 498 q 770 404 760 438 q 785 335 781 370 q 787 266 789 300 q 776 202 784 233 q 753 140 768 171 q 720 81 739 109 q 677 34 701 54 q 625 -3 652 12 q 568 -27 598 -18 q 508 -39 538 -37 q 445 -39 477 -42 q 407 -33 426 -37 q 369 -23 388 -28 q 331 -11 350 -18 q 293 4 312 -4 q 289 -8 290 -1 q 286 -22 288 -15 q 279 -34 283 -28 q 270 -45 275 -39 q 255 -54 262 -50 q 240 -60 248 -58 q 222 -61 232 -61 q 205 -61 213 -61 m 560 125 q 582 142 571 133 q 602 164 593 152 q 618 189 612 176 q 631 212 625 201 q 637 239 633 225 q 643 265 642 252 q 644 294 644 278 q 644 324 644 311 q 637 351 642 338 q 628 378 633 365 q 614 403 623 392 q 598 427 606 414 q 566 449 582 438 q 532 464 549 460 q 495 469 515 468 q 456 471 475 471 q 400 461 429 468 q 345 445 372 454 q 292 422 317 435 q 240 397 267 408 l 240 387 l 275 176 q 328 145 301 160 q 384 119 355 130 q 442 104 412 109 q 505 103 472 100 l 560 125 z "},"c":{"ha":798,"x_min":33,"x_max":761,"o":"m 330 49 q 269 61 300 54 q 210 80 239 68 q 156 111 182 92 q 109 153 130 130 q 75 206 90 178 q 50 264 60 235 q 37 324 41 294 q 33 385 33 354 q 45 463 35 423 q 69 538 54 502 q 107 607 84 575 q 160 666 130 639 q 202 696 179 682 q 250 716 225 709 q 301 724 275 723 q 354 726 327 726 q 397 713 376 720 q 439 697 419 707 q 478 675 460 688 q 513 647 496 663 q 521 633 518 642 q 526 618 524 625 q 529 603 529 612 q 529 586 529 594 l 505 545 q 492 538 499 543 q 479 532 486 534 q 465 529 473 529 q 449 529 457 529 q 415 544 430 532 q 384 566 400 556 q 349 581 368 575 q 311 586 330 586 q 288 579 300 583 q 266 568 275 575 q 248 552 256 562 q 231 534 239 543 q 205 492 217 515 q 187 446 193 469 q 179 399 182 423 q 176 351 176 374 q 183 319 179 335 q 194 286 187 302 q 210 256 201 270 q 233 232 220 243 q 273 208 251 216 q 319 195 294 199 q 368 191 343 191 q 416 191 392 191 q 490 206 454 197 q 562 227 526 216 q 632 254 597 237 q 705 270 667 270 l 742 248 q 751 236 747 243 q 757 222 755 229 q 760 208 758 216 q 761 191 761 199 l 736 145 q 642 103 692 122 q 540 71 591 84 q 436 52 488 57 q 330 49 384 46 z "},"d":{"ha":841,"x_min":38,"x_max":796,"o":"m 526 -9 q 513 -5 521 -8 q 499 3 505 -3 q 488 14 494 8 q 477 24 483 19 q 446 19 461 22 q 416 15 431 16 q 384 12 400 14 q 351 11 368 11 q 286 20 319 14 q 224 39 254 27 q 166 71 194 52 q 117 114 138 90 q 77 172 95 141 q 50 237 60 203 q 39 307 41 270 q 38 378 38 343 q 52 444 43 411 q 75 509 60 477 q 109 567 90 540 q 152 621 127 594 q 205 665 176 646 q 267 695 235 684 q 335 713 300 707 q 406 720 370 720 q 441 716 423 718 q 477 711 458 715 q 514 701 496 707 q 548 690 532 696 q 560 788 553 739 q 574 885 567 837 q 582 983 581 933 q 613 1074 583 1034 q 625 1082 618 1080 q 639 1086 632 1085 q 653 1088 646 1088 q 669 1088 661 1088 q 681 1084 674 1085 q 693 1078 688 1082 q 703 1070 699 1074 q 712 1061 707 1066 q 722 1042 718 1053 q 726 1020 726 1031 q 726 997 726 1009 q 726 974 726 985 l 680 624 q 694 612 688 616 q 709 601 701 608 q 724 587 718 594 q 734 572 731 581 l 739 532 l 718 491 q 705 481 712 486 q 692 476 699 477 q 677 473 685 475 q 661 472 669 472 l 632 229 l 635 227 q 660 239 648 232 q 682 252 671 245 q 707 262 693 259 q 736 264 720 264 l 777 243 q 787 229 783 235 q 793 214 791 222 q 796 197 796 206 q 796 179 796 187 l 774 141 q 736 118 755 127 q 696 99 718 109 q 654 81 674 90 q 616 62 635 73 q 612 46 613 54 q 608 30 610 38 q 598 15 605 22 q 586 3 591 8 q 574 -5 581 -3 q 559 -9 567 -8 q 543 -9 551 -9 q 526 -9 534 -9 m 483 171 l 483 190 l 526 543 q 491 560 510 553 q 453 571 472 567 q 416 576 434 575 q 376 578 397 578 q 335 570 354 575 q 298 553 316 564 q 266 529 281 543 q 235 499 251 515 q 210 459 221 480 q 192 416 199 438 q 182 372 184 395 q 179 324 179 349 q 186 288 182 305 q 196 254 190 270 q 212 223 202 237 q 237 195 221 209 q 273 174 254 182 q 311 161 292 165 q 351 156 330 157 q 395 155 373 155 l 483 171 z "},"e":{"ha":960,"x_min":39,"x_max":924,"o":"m 452 -5 q 370 11 411 0 q 292 41 330 22 q 222 85 255 60 q 160 144 190 111 q 109 214 130 176 q 71 292 87 251 q 47 374 54 332 q 39 458 41 416 q 47 534 41 496 q 71 609 54 572 q 110 676 87 646 q 163 734 133 707 q 232 779 195 761 q 306 807 269 796 q 384 823 343 818 q 465 826 425 829 q 513 815 490 821 q 560 799 537 810 q 604 772 583 788 q 640 736 624 755 q 670 689 656 715 q 692 638 684 663 q 703 585 700 613 q 705 529 705 556 q 697 471 703 499 q 680 414 692 442 q 651 362 667 387 q 613 316 635 338 q 572 286 594 300 q 526 263 551 273 q 476 250 500 254 q 425 245 452 245 q 370 254 397 248 q 317 269 343 259 q 267 290 292 278 q 220 319 241 302 l 217 313 q 247 266 231 289 q 283 222 263 243 q 324 186 302 202 q 373 160 346 171 q 411 149 392 155 q 449 141 430 144 q 488 138 468 138 q 529 138 507 138 q 620 163 575 146 q 706 200 665 179 q 784 252 747 221 q 869 283 821 283 q 880 278 875 281 q 891 273 886 275 q 901 266 897 270 q 910 256 905 262 q 918 244 916 251 q 922 231 921 237 q 924 216 924 224 q 924 199 924 208 q 918 188 921 194 q 913 176 916 182 q 905 165 910 171 q 894 155 899 160 q 793 87 845 117 q 686 34 742 57 q 570 1 629 11 q 452 -5 510 -8 m 503 411 q 517 422 510 416 q 529 437 524 429 q 538 453 534 445 q 548 469 543 461 q 555 492 551 480 q 560 517 559 505 q 562 543 562 529 q 562 570 562 556 q 556 595 559 583 q 548 618 553 608 q 534 640 543 629 q 515 658 526 650 q 490 673 503 666 q 461 681 476 680 q 430 682 446 682 q 397 682 414 682 q 350 671 373 677 q 305 656 327 666 q 264 631 283 646 q 228 597 244 616 l 212 567 q 225 540 222 556 q 233 510 228 524 q 250 483 239 496 q 271 458 260 469 q 309 429 289 442 q 351 407 330 416 q 397 393 373 397 q 446 389 422 389 q 461 393 454 392 q 476 397 468 395 q 491 403 484 400 q 503 411 498 406 z "},"f":{"ha":787,"x_min":38,"x_max":742,"o":"m 343 -50 q 331 -46 338 -47 q 317 -42 324 -45 q 305 -35 311 -39 q 294 -26 300 -31 q 267 57 275 14 q 251 144 259 100 q 236 231 243 187 q 227 319 229 275 q 183 321 206 321 q 138 323 160 321 q 95 327 117 324 q 57 346 73 330 q 47 361 52 354 q 41 374 43 368 q 38 391 38 381 q 38 408 38 400 l 57 446 q 73 457 65 452 q 91 465 81 463 q 110 467 100 467 q 130 467 119 467 l 213 463 l 213 494 l 212 578 q 220 679 213 629 q 239 777 227 728 q 275 872 251 826 q 340 949 300 918 q 374 970 357 960 q 411 986 392 979 q 451 993 430 993 q 494 993 472 993 q 540 981 515 990 q 585 959 564 971 q 624 932 605 947 q 659 899 643 918 q 696 846 680 875 q 723 788 712 818 q 738 728 734 758 q 742 665 742 697 q 736 633 739 648 q 730 604 734 618 q 720 575 726 589 q 704 551 715 562 q 692 543 699 545 q 679 537 685 540 q 666 533 673 534 q 651 532 659 532 q 639 536 646 534 q 625 540 632 537 q 613 547 618 543 q 602 556 608 551 q 593 571 597 564 q 587 586 589 578 q 586 604 586 594 q 586 621 586 613 q 594 640 591 629 q 598 662 597 651 q 600 684 600 673 q 600 704 600 694 q 590 736 597 720 q 575 768 583 753 q 556 796 567 783 q 532 823 545 810 q 515 834 524 829 q 499 844 507 840 q 481 850 491 848 q 461 853 472 853 q 447 849 453 850 q 435 842 441 848 q 425 831 430 837 q 414 821 419 826 q 377 740 389 783 q 359 654 365 697 q 354 566 354 610 q 354 477 354 521 l 357 457 q 408 456 384 457 q 458 453 433 454 q 509 449 483 452 q 553 425 534 446 q 562 412 559 419 q 566 399 564 406 q 568 385 567 392 q 570 370 570 378 q 566 357 567 365 q 560 343 564 349 q 551 332 556 338 q 540 321 545 327 q 524 313 532 316 q 507 309 515 311 q 488 308 499 308 q 469 308 477 308 l 370 313 l 370 300 q 382 226 376 262 q 395 153 389 190 q 410 80 400 117 q 419 5 419 43 l 397 -31 q 385 -39 392 -37 q 372 -45 378 -42 q 358 -49 365 -47 q 343 -50 351 -50 z "},"g":{"ha":1058,"x_min":37,"x_max":1025,"o":"m 605 -172 q 568 -163 586 -170 q 535 -146 551 -156 q 505 -125 519 -137 q 476 -98 490 -113 q 458 -72 465 -84 q 446 -46 452 -60 q 438 -18 441 -33 q 433 14 435 -3 q 444 56 435 35 q 463 96 452 76 q 487 134 473 117 q 517 167 500 151 q 548 191 532 180 q 583 210 564 202 q 621 224 602 218 q 659 232 640 229 l 659 270 l 651 319 q 582 271 618 292 q 505 239 545 251 q 425 221 465 227 q 340 218 384 216 q 277 229 308 221 q 217 252 247 237 q 161 286 187 267 q 114 330 136 305 q 81 379 95 354 q 57 433 66 404 q 42 491 47 461 q 37 551 37 521 q 52 629 39 591 q 82 701 64 666 q 125 769 100 736 q 179 827 149 802 q 241 873 209 852 q 310 910 274 895 q 384 932 346 925 q 460 939 422 939 q 527 928 495 936 q 590 903 559 920 q 647 867 621 887 q 697 821 673 846 q 732 773 716 799 q 759 720 749 747 q 776 665 769 693 q 785 606 783 636 q 781 595 783 601 q 777 583 780 589 q 770 572 774 578 q 766 562 766 567 q 780 483 777 524 q 788 402 783 442 q 796 321 793 362 q 802 240 799 281 l 888 240 l 962 259 q 974 255 967 256 q 986 251 981 254 q 996 244 991 248 q 1006 237 1001 240 q 1016 222 1012 229 q 1023 208 1020 216 q 1025 190 1025 199 q 1025 172 1025 180 l 1001 132 q 958 111 981 119 q 910 100 935 103 q 860 98 886 98 q 810 98 834 98 l 810 90 l 812 22 q 807 -20 810 0 q 796 -58 804 -41 q 775 -92 788 -76 q 749 -123 762 -107 q 718 -146 735 -137 q 682 -163 700 -156 q 646 -171 665 -170 q 605 -172 627 -172 m 648 -22 q 666 1 662 -11 q 670 28 670 14 q 670 58 670 43 q 670 90 670 73 l 662 90 q 646 84 654 87 q 631 76 637 81 q 617 66 624 71 q 605 54 610 62 l 578 5 l 616 -30 l 635 -30 l 648 -22 m 514 396 q 549 419 532 407 q 582 448 567 431 q 608 483 597 464 q 629 521 618 502 q 635 536 632 529 q 639 551 637 543 q 646 564 640 559 q 654 578 651 570 q 640 624 643 598 q 625 673 637 650 q 597 716 613 696 q 562 753 581 736 q 532 773 548 764 q 499 788 517 783 q 463 795 481 793 q 425 796 444 796 q 376 784 400 793 q 328 761 351 774 q 287 731 305 747 q 250 696 269 715 q 220 656 233 677 q 197 615 206 636 q 182 570 187 594 q 179 521 176 545 q 187 488 182 505 q 201 457 193 472 q 220 429 209 442 q 244 401 231 415 q 280 378 260 388 q 321 366 300 369 q 365 362 343 362 q 408 362 387 362 q 435 366 422 363 q 463 373 449 369 q 490 382 476 377 q 514 396 503 388 z "},"h":{"ha":879,"x_min":24,"x_max":845,"o":"m 190 -42 l 149 -18 q 109 238 122 109 q 80 497 95 368 q 50 756 65 627 q 24 1015 35 886 q 30 1025 27 1020 q 35 1036 33 1031 q 42 1046 38 1042 q 52 1055 46 1050 q 64 1063 57 1061 q 79 1067 71 1066 q 95 1069 87 1069 q 111 1069 103 1069 l 146 1050 q 180 897 174 977 q 197 740 187 818 q 214 582 206 662 q 232 425 222 502 q 263 479 248 452 q 300 532 278 507 q 346 575 321 556 q 400 608 370 594 q 433 617 416 613 q 465 624 449 621 q 498 627 480 627 q 534 627 515 627 q 572 618 553 624 q 609 606 591 613 q 643 587 627 600 q 673 562 659 575 q 720 477 704 524 q 741 380 736 430 q 747 281 745 330 q 764 184 750 233 q 784 183 774 184 q 802 179 793 182 q 818 171 810 176 q 831 157 826 165 q 838 142 834 149 q 844 129 842 136 q 845 113 845 122 q 845 95 845 103 l 821 57 q 807 49 815 52 q 791 43 799 46 q 773 41 783 41 q 755 41 764 41 q 730 46 742 43 q 705 56 718 49 q 683 69 693 62 q 662 87 673 76 q 618 176 629 127 q 605 275 608 225 q 598 374 602 324 q 564 468 594 425 q 545 479 556 476 q 524 482 534 481 q 500 483 513 483 q 477 483 488 483 q 458 477 467 481 q 439 467 449 473 q 422 452 430 460 q 406 435 414 444 q 349 327 368 387 q 316 208 330 267 q 292 88 302 149 q 251 -26 281 27 q 237 -35 245 -31 q 223 -41 229 -39 q 208 -42 217 -42 q 190 -42 198 -42 z "},"i":{"ha":358,"x_min":34,"x_max":315,"o":"m 236 -50 q 224 -46 231 -47 q 210 -42 217 -45 q 198 -34 203 -39 q 187 -23 193 -28 q 167 81 170 27 q 159 189 164 136 q 149 297 153 243 q 140 406 145 351 q 144 418 142 411 q 149 431 145 425 q 157 444 153 438 q 167 454 161 449 q 177 459 172 457 q 189 464 182 461 q 202 467 195 467 q 214 469 209 467 q 229 465 222 467 q 243 460 236 464 q 256 452 250 457 q 269 441 263 446 q 289 335 285 389 q 297 226 293 281 q 307 117 301 171 q 315 8 312 62 q 309 -3 312 3 q 304 -15 307 -9 q 296 -26 301 -20 q 285 -37 290 -31 q 274 -42 279 -39 q 262 -46 269 -45 q 250 -49 255 -47 q 236 -50 244 -50 m 153 610 q 130 617 142 613 q 107 627 118 621 q 85 639 96 632 q 66 656 75 646 q 52 680 58 667 q 41 703 45 692 q 35 728 37 715 q 34 758 34 742 q 39 781 37 769 q 47 803 42 793 q 61 823 53 812 q 77 842 69 834 q 102 860 88 853 q 129 871 115 867 q 157 876 142 875 q 187 878 172 878 q 213 871 201 875 q 236 861 225 867 q 258 848 247 856 q 277 829 269 840 q 292 806 285 818 q 302 780 298 793 q 307 753 307 766 q 307 723 307 739 q 300 701 304 712 q 290 678 296 689 q 277 658 285 667 q 258 640 269 648 q 235 625 247 632 q 209 614 222 618 q 182 610 195 610 q 153 610 170 610 z "},"j":{"ha":662,"x_min":38,"x_max":623,"o":"m 283 -172 q 236 -164 259 -170 q 191 -148 213 -159 q 151 -121 170 -137 q 117 -85 133 -104 q 77 -21 92 -56 q 53 50 62 14 q 41 125 43 87 q 38 201 38 163 l 60 243 q 75 252 68 248 q 88 259 81 256 q 104 262 95 262 q 122 262 114 262 l 161 240 q 182 176 183 212 q 186 107 180 141 q 205 42 191 73 q 245 -12 218 11 q 258 -20 251 -18 q 271 -26 264 -23 q 286 -28 278 -28 q 302 -28 294 -28 q 324 -22 313 -26 q 345 -11 335 -18 q 363 5 354 -4 q 381 22 373 14 q 419 92 404 54 q 442 170 434 130 q 450 249 450 209 q 450 330 450 289 l 426 491 l 448 534 q 463 544 456 540 q 476 551 469 548 q 492 553 483 553 q 510 553 502 553 l 551 532 q 575 459 570 496 q 586 384 581 422 q 593 307 591 346 q 594 228 594 267 q 581 136 589 182 q 556 45 572 90 q 513 -38 540 1 q 450 -110 486 -77 q 412 -136 431 -123 q 372 -156 393 -148 q 330 -168 351 -164 q 283 -172 308 -172 m 461 654 q 439 661 450 656 q 419 670 429 665 q 400 682 410 675 q 384 697 391 689 q 369 718 376 707 q 358 741 362 728 q 351 765 354 753 q 349 791 349 777 q 354 818 351 804 q 363 844 357 831 q 378 867 370 856 q 396 888 387 878 q 419 903 407 897 q 444 913 431 910 q 469 918 456 916 q 496 921 483 921 q 524 914 510 918 q 549 905 537 910 q 572 890 562 899 q 594 869 583 880 q 608 848 602 859 q 617 826 613 837 q 622 803 621 815 q 623 777 623 791 q 618 751 621 764 q 610 727 616 739 q 597 706 605 715 q 578 686 589 697 q 553 669 567 675 q 525 658 540 662 q 494 654 510 654 q 461 654 477 654 z "},"k":{"ha":760,"x_min":33,"x_max":720,"o":"m 189 -42 q 174 -38 180 -39 q 160 -33 167 -37 q 149 -23 153 -28 q 138 -12 144 -18 q 125 35 125 9 q 123 85 125 60 q 122 137 122 111 q 119 187 122 163 l 111 187 l 98 184 q 85 189 92 187 q 72 193 79 190 q 60 199 65 195 q 49 209 54 203 q 39 224 43 217 q 34 239 35 231 q 33 256 33 247 q 33 274 33 266 q 38 284 35 279 q 43 294 41 289 q 50 304 46 300 q 60 313 54 308 l 114 349 l 114 430 l 98 967 l 117 1001 q 132 1010 125 1006 q 146 1017 138 1015 q 164 1020 153 1020 q 183 1020 175 1020 q 194 1015 189 1017 q 205 1009 199 1012 q 214 1002 210 1006 q 224 993 218 998 q 243 856 243 926 q 245 715 243 785 q 250 576 248 646 q 256 435 251 506 q 355 498 305 468 q 454 559 404 529 q 555 623 505 589 q 661 667 605 656 l 701 646 q 711 633 707 640 q 716 618 715 627 q 719 602 718 610 q 720 586 720 594 q 716 574 718 581 q 711 562 715 567 q 703 551 707 556 q 693 540 699 545 l 480 403 q 534 338 507 370 q 587 273 562 305 q 641 209 613 241 q 671 133 669 176 q 667 121 669 127 q 662 109 666 114 q 654 98 658 103 q 644 87 650 92 q 633 79 639 81 q 622 75 628 76 q 609 72 616 73 q 594 71 602 71 q 579 75 586 73 q 566 80 572 76 q 552 91 559 84 q 540 103 545 98 l 357 330 l 259 269 l 259 236 l 267 20 q 263 8 264 15 q 258 -4 262 1 q 250 -15 254 -9 q 240 -26 245 -20 q 229 -33 235 -28 q 217 -38 224 -37 q 203 -41 210 -39 q 189 -42 197 -42 z "},"l":{"ha":363,"x_min":34,"x_max":323,"o":"m 88 -37 l 50 -12 q 42 3 45 -4 q 37 19 39 9 q 34 37 34 28 q 34 54 34 46 q 45 292 42 174 q 54 528 47 411 q 62 764 61 646 q 94 996 64 883 q 106 1005 99 1001 q 119 1010 113 1009 q 134 1013 126 1012 q 151 1015 142 1015 l 197 990 q 208 966 205 979 q 212 939 212 954 q 212 909 212 924 q 212 880 212 894 l 180 103 q 214 103 197 103 q 248 103 231 103 q 281 98 266 103 q 307 79 296 92 q 315 66 312 73 q 320 53 317 60 q 323 38 323 46 q 323 23 323 30 q 319 11 320 18 q 313 -1 317 4 q 305 -12 309 -7 q 296 -23 301 -18 l 269 -37 l 88 -37 z "},"m":{"ha":1015,"x_min":41,"x_max":985,"o":"m 217 -16 q 206 -11 212 -14 q 195 -5 201 -8 q 186 1 190 -3 q 176 11 182 5 q 136 169 152 90 q 103 329 119 248 q 69 489 87 410 q 41 650 52 568 q 45 662 43 655 q 50 674 46 669 q 58 684 54 680 q 68 693 62 688 q 80 700 73 696 q 95 705 87 704 q 111 707 103 707 q 127 707 119 707 l 165 685 q 183 644 179 666 q 193 601 187 623 q 202 558 198 579 q 212 515 206 537 q 230 544 220 529 q 254 572 240 559 q 282 594 267 585 q 313 612 297 604 q 335 617 324 614 q 357 621 346 620 q 380 623 368 623 q 403 623 392 623 q 431 616 416 620 q 458 604 446 612 q 482 585 471 595 q 505 564 494 574 q 518 544 513 553 q 529 524 524 534 q 540 502 534 513 q 551 480 545 491 q 564 510 559 494 q 579 540 570 526 q 598 568 589 553 q 621 593 608 582 q 655 614 637 606 q 690 629 673 623 q 727 636 707 636 q 769 636 747 636 q 800 629 785 633 q 829 618 815 625 q 856 601 842 612 q 880 579 869 590 q 920 511 907 551 q 934 433 932 472 q 936 353 936 393 q 936 273 936 313 l 935 178 l 936 156 q 945 153 941 156 q 954 148 949 151 q 962 141 958 145 q 968 134 966 137 q 975 123 971 129 q 981 111 979 118 q 983 98 982 104 q 985 84 985 92 q 981 71 982 79 q 977 57 979 62 q 968 46 974 52 q 958 35 963 41 q 945 27 952 30 q 932 22 939 24 q 918 19 926 19 q 902 19 910 19 q 884 24 894 22 q 867 31 875 27 q 850 41 859 35 q 834 54 842 46 q 808 97 818 73 q 796 146 799 121 q 792 198 793 172 q 791 251 791 224 l 796 380 q 793 408 793 393 q 791 437 793 423 q 784 464 788 450 q 769 488 780 477 q 761 494 766 494 q 749 494 755 494 q 736 494 742 494 q 726 494 731 494 q 713 484 720 491 q 705 471 707 477 q 699 457 703 464 q 692 445 694 450 q 667 357 675 401 q 650 269 659 313 q 631 179 640 224 q 597 98 621 134 q 582 88 589 92 q 567 83 575 84 q 549 81 559 81 q 532 81 540 81 q 521 87 526 84 q 510 92 515 90 q 500 99 505 95 q 491 107 496 103 q 466 201 472 153 q 450 295 460 248 q 430 389 441 342 q 389 477 419 437 l 368 480 q 357 472 362 477 q 347 461 351 467 q 339 449 343 456 q 332 437 335 442 q 315 361 321 399 q 307 285 308 324 q 304 206 305 245 q 302 126 302 167 l 305 49 q 301 37 302 43 q 297 23 300 30 q 290 11 294 16 q 281 0 286 5 q 266 -9 273 -5 q 251 -15 259 -14 q 234 -16 243 -16 q 217 -16 225 -16 z "},"n":{"ha":787,"x_min":35,"x_max":758,"o":"m 675 -22 q 648 -15 662 -19 q 621 -5 635 -11 q 597 11 608 0 q 575 33 586 22 q 538 127 545 76 q 532 229 532 178 q 529 333 532 281 q 491 426 526 385 q 479 433 486 431 q 465 435 472 434 q 451 437 458 437 q 438 439 444 437 q 406 435 422 437 q 374 427 389 434 q 346 411 359 420 q 321 388 332 401 q 275 302 292 347 q 248 209 259 256 q 229 113 237 161 q 198 22 221 65 q 183 11 190 16 q 168 4 176 5 q 149 3 160 3 q 130 3 138 3 l 95 22 q 65 178 68 98 q 56 338 62 259 q 43 498 49 418 q 35 661 38 579 l 54 696 q 65 704 60 699 q 77 711 71 709 q 92 713 84 712 q 106 718 100 715 q 119 715 111 715 q 134 712 127 715 q 146 704 141 709 q 157 696 152 699 q 178 640 176 671 q 182 578 179 609 q 187 517 184 548 q 190 456 190 486 l 198 456 q 206 471 201 464 q 216 486 212 477 q 229 499 221 494 q 243 513 237 505 q 294 547 267 532 q 351 569 321 562 q 411 579 381 576 q 472 579 441 582 q 511 572 491 576 q 549 559 532 567 q 583 537 567 551 q 613 507 600 524 q 658 418 646 467 q 673 319 670 369 q 675 220 675 270 q 685 121 675 170 q 701 119 693 121 q 718 115 709 118 q 732 106 726 113 q 745 95 739 100 q 751 80 747 87 q 757 66 755 73 q 758 50 758 60 q 758 33 758 41 l 734 -5 q 720 -14 728 -11 q 705 -19 712 -16 q 690 -22 699 -22 q 675 -22 682 -22 z "},"o":{"ha":770,"x_min":33,"x_max":736,"o":"m 313 -16 q 255 -7 283 -14 q 199 12 227 0 q 149 42 172 24 q 106 81 125 60 q 71 136 87 106 q 46 195 54 165 q 35 256 38 224 q 33 321 33 289 q 46 406 35 365 q 73 487 57 448 q 113 563 90 526 q 167 629 136 600 q 202 652 183 642 q 243 671 221 663 q 286 680 264 680 q 332 680 308 680 q 416 665 374 674 q 499 638 458 655 q 577 598 540 621 q 644 543 614 575 q 686 486 669 515 q 716 424 704 456 q 732 357 728 392 q 734 286 736 321 q 720 227 728 256 q 697 170 712 197 q 663 119 682 144 q 620 73 644 95 q 552 27 589 46 q 476 -1 515 8 q 395 -15 437 -11 q 313 -16 354 -19 m 499 163 q 525 181 513 171 q 549 203 537 191 q 568 231 562 216 q 583 259 575 245 q 589 279 586 270 q 591 300 591 289 q 591 323 591 311 q 591 346 591 335 q 583 377 589 362 q 570 405 578 392 q 552 431 562 418 q 529 456 543 445 q 476 492 505 477 q 416 518 448 507 q 355 533 385 529 q 292 540 324 537 q 264 524 278 534 q 241 499 251 513 q 224 472 232 486 q 208 445 216 458 q 193 404 199 423 q 182 361 186 384 q 176 316 178 338 q 175 270 175 294 q 180 239 178 254 q 190 210 183 224 q 205 185 197 197 q 227 163 213 174 q 263 141 243 149 q 304 130 283 133 q 347 127 324 127 q 391 127 369 127 q 419 133 404 130 q 448 140 434 136 q 473 149 461 144 q 499 163 486 155 z "},"p":{"ha":879,"x_min":33,"x_max":834,"o":"m 254 -170 l 213 -149 q 191 -64 191 -109 q 184 24 191 -19 q 171 111 176 66 q 155 199 165 156 q 140 209 146 205 q 125 218 133 213 q 113 231 117 224 q 103 245 109 237 l 98 283 q 102 295 100 289 q 107 307 103 301 q 115 317 111 312 q 125 328 119 323 l 133 331 l 133 350 l 103 507 q 90 511 98 510 q 76 515 81 513 q 64 522 71 518 q 52 530 57 526 q 42 543 46 536 q 37 557 38 549 q 34 574 35 566 q 33 590 33 582 q 37 602 35 595 q 42 614 38 609 q 50 625 46 620 q 60 636 54 631 l 79 650 l 73 688 q 77 700 76 693 q 81 712 79 707 q 90 723 84 718 q 100 734 95 728 q 111 741 106 736 q 123 746 117 745 q 137 749 130 747 q 152 750 144 750 q 168 746 160 747 q 183 739 176 745 q 196 727 190 734 q 208 715 202 720 q 285 746 245 731 q 365 771 324 761 q 446 785 406 781 q 529 789 486 789 q 593 780 562 787 q 653 762 624 773 q 709 731 682 750 q 758 688 736 712 q 792 639 777 666 q 817 583 807 612 q 830 526 826 555 q 834 467 834 496 q 822 395 831 431 q 798 326 812 358 q 761 264 783 294 q 712 210 739 235 q 645 164 680 183 q 571 133 610 145 q 490 118 532 121 q 408 118 448 115 l 311 137 l 311 129 q 320 70 316 99 q 328 11 324 41 q 335 -49 332 -19 q 338 -109 338 -79 l 316 -152 q 301 -161 308 -157 q 288 -168 294 -165 q 271 -170 281 -170 q 254 -170 262 -170 m 581 292 q 608 309 594 298 q 633 334 621 320 q 654 361 646 347 q 671 391 663 374 q 681 416 677 404 q 688 444 685 429 q 690 472 690 458 q 690 502 690 486 q 684 530 688 515 q 673 557 680 544 q 657 583 666 571 q 637 606 648 595 q 601 629 621 620 q 560 643 581 639 q 518 647 540 647 q 475 647 496 647 q 414 636 445 644 q 354 618 384 628 q 296 597 324 609 q 237 574 267 585 l 237 557 l 286 297 q 330 281 308 289 q 374 269 351 273 q 420 262 397 264 q 467 259 442 259 q 498 263 483 262 q 526 269 513 264 q 553 278 540 273 q 581 292 567 283 z "},"q":{"ha":825,"x_min":30,"x_max":793,"o":"m 529 -183 l 494 -165 q 483 -151 488 -157 q 476 -136 477 -144 q 473 -119 475 -127 q 472 -100 472 -111 l 494 64 l 486 66 q 452 59 469 61 q 416 56 434 57 q 381 54 399 54 q 346 54 363 54 q 283 66 313 57 q 224 90 254 75 q 168 125 194 104 q 122 170 142 145 q 80 232 98 199 q 52 300 62 264 q 35 374 41 336 q 33 450 30 412 q 43 515 35 483 q 65 578 52 547 q 98 636 79 609 q 140 688 117 663 q 199 730 167 712 q 267 759 232 747 q 337 774 302 770 q 410 779 372 779 q 469 772 439 776 q 529 760 499 768 q 587 745 559 753 q 642 723 614 736 q 654 730 647 726 q 667 734 661 734 q 682 734 674 734 q 699 734 690 734 q 709 730 704 731 q 720 724 715 728 q 730 716 726 720 q 739 707 734 712 l 758 669 q 768 662 764 666 q 777 652 772 658 q 785 642 783 647 q 791 631 788 636 l 793 593 q 789 581 791 587 q 784 568 788 574 q 776 559 780 563 q 766 549 772 555 l 726 536 l 682 320 l 685 317 l 723 320 q 734 316 728 317 q 745 311 739 315 q 754 302 750 307 q 764 293 758 298 q 772 282 769 289 q 776 269 774 275 q 777 254 777 262 q 777 237 777 245 q 773 225 774 232 q 768 213 772 218 q 760 203 764 208 q 750 194 755 199 l 647 132 q 633 55 639 94 q 623 -22 628 16 q 617 -100 617 -60 q 589 -171 617 -141 q 576 -178 583 -175 q 562 -182 570 -180 q 545 -183 553 -183 q 529 -183 537 -183 m 518 227 l 594 590 q 538 610 567 601 q 483 625 510 620 q 426 633 456 631 q 366 636 396 636 q 330 629 349 633 q 293 618 311 625 q 260 600 275 612 q 229 574 245 587 q 201 534 213 555 q 183 490 189 513 q 176 441 178 467 q 175 391 175 415 q 184 347 178 369 q 201 307 191 326 q 225 271 210 289 q 256 237 240 254 q 292 214 273 224 q 332 201 311 205 q 375 197 354 197 q 418 197 396 197 q 444 202 431 199 q 469 209 456 205 q 495 217 483 213 q 518 227 507 221 z "},"r":{"ha":825,"x_min":38,"x_max":783,"o":"m 193 -19 l 152 5 q 119 181 127 92 q 96 359 111 270 q 65 537 81 448 q 38 715 49 627 l 57 750 q 69 760 62 755 q 83 766 76 764 q 98 770 90 769 q 114 772 106 772 q 126 768 119 769 q 140 764 133 766 q 152 757 146 761 q 163 747 157 753 q 178 718 174 734 q 184 685 182 701 q 190 652 187 669 q 195 618 193 635 l 201 618 q 259 665 227 646 q 327 699 292 685 q 398 719 362 712 q 472 726 434 726 q 538 716 505 723 q 602 694 572 709 q 660 661 632 680 q 709 616 688 643 q 743 564 728 591 q 766 506 758 537 q 779 446 774 475 q 783 384 783 416 q 779 354 780 370 q 774 323 777 338 q 766 296 772 308 q 747 273 761 283 q 732 266 739 270 q 719 260 726 262 q 703 259 712 259 q 685 259 693 259 l 651 281 q 643 293 646 286 q 637 307 640 300 q 633 320 635 313 q 632 335 632 327 q 636 357 635 346 q 639 378 637 368 q 640 401 640 389 q 640 425 640 414 q 633 456 637 439 q 623 487 629 472 q 605 517 616 502 q 581 543 594 532 q 549 563 567 553 q 514 576 532 572 q 477 582 496 581 q 439 583 458 583 q 399 575 419 581 q 359 560 378 570 q 324 537 340 551 q 292 507 308 524 q 271 480 281 494 q 255 452 262 467 q 243 422 248 437 q 232 392 237 408 q 247 307 240 349 q 259 222 254 264 q 269 136 264 179 q 278 49 273 92 q 274 34 275 41 q 269 20 273 27 q 259 7 264 14 q 248 -5 254 0 q 236 -14 243 -11 q 222 -18 229 -16 q 208 -19 216 -19 q 193 -19 201 -19 z "},"s":{"ha":754,"x_min":30,"x_max":718,"o":"m 330 -3 q 252 8 292 0 q 178 30 213 16 q 110 64 144 43 q 46 111 76 84 q 38 125 41 117 q 33 140 35 133 q 30 156 30 146 q 30 174 30 165 l 52 210 q 64 220 57 216 q 77 225 71 224 q 92 228 84 227 q 109 229 100 229 q 168 197 141 218 q 225 163 194 175 q 289 145 256 152 q 357 141 321 138 q 389 146 373 144 q 420 155 406 149 q 448 169 434 160 q 472 191 461 178 l 477 210 q 457 236 469 224 q 431 258 445 248 q 405 274 418 267 q 378 289 392 281 q 324 308 351 300 q 271 330 297 316 q 222 361 245 343 q 180 400 199 378 q 152 438 165 418 q 130 481 138 458 q 118 529 122 505 q 114 578 114 553 q 122 619 117 600 q 137 659 127 639 q 160 696 146 680 q 189 728 174 712 q 231 755 208 745 q 277 773 254 766 q 326 783 300 780 q 376 785 351 785 q 463 770 418 780 q 548 742 507 761 q 627 701 589 723 q 701 652 666 680 q 709 641 707 647 q 715 627 712 635 q 718 610 718 618 q 718 594 718 602 q 713 582 715 589 q 708 570 712 575 q 700 560 704 564 q 690 551 696 556 q 675 544 682 548 q 662 538 669 540 q 646 537 655 537 q 629 537 637 537 q 560 576 594 556 q 491 612 526 597 q 418 634 456 627 q 340 642 381 642 q 320 637 330 639 q 302 632 311 635 q 286 623 294 629 q 270 608 278 616 q 263 595 267 602 q 258 582 259 589 q 256 568 256 575 q 256 553 256 562 q 263 533 259 543 q 273 514 267 524 q 286 496 278 505 q 302 480 294 488 q 372 442 335 456 q 446 413 410 429 q 517 373 483 397 q 578 319 551 349 q 597 290 589 305 q 610 260 605 275 q 618 229 616 245 q 621 194 621 213 q 613 158 618 175 q 598 125 608 141 q 575 94 589 109 q 548 65 562 79 q 498 34 524 46 q 444 14 472 22 q 387 3 415 5 q 330 -3 359 0 z "},"t":{"ha":673,"x_min":41,"x_max":631,"o":"m 391 -14 q 363 -8 377 -11 q 338 0 350 -5 q 317 15 327 5 q 297 35 308 24 q 256 133 267 81 q 243 235 245 184 q 239 339 240 286 q 237 442 237 392 l 164 442 l 100 439 l 60 461 q 50 476 54 469 q 43 490 46 483 q 41 506 41 496 q 41 524 41 515 q 46 536 43 529 q 52 548 49 543 q 60 559 54 553 q 71 570 65 564 q 112 583 90 583 q 156 583 134 583 q 201 586 178 583 q 245 586 224 589 q 248 649 245 618 q 254 711 251 680 q 259 773 256 742 q 286 829 262 804 q 301 836 294 831 q 315 841 308 840 q 330 842 321 842 q 347 842 339 842 l 385 818 q 393 806 391 812 q 397 792 396 799 q 400 779 399 785 q 401 764 401 772 l 388 591 l 486 591 l 576 594 q 587 589 582 591 q 598 583 593 586 q 608 576 604 581 q 617 567 612 572 q 624 555 620 562 q 629 540 628 548 q 631 524 631 532 q 631 507 631 515 l 612 472 q 558 450 587 450 q 499 450 529 450 q 439 449 469 450 q 380 448 410 448 l 380 289 q 384 250 382 270 q 388 209 385 229 q 395 169 391 189 q 404 130 399 149 l 442 127 q 453 130 448 130 q 463 133 458 130 q 472 138 467 136 q 480 146 477 141 q 490 171 488 157 q 492 197 491 184 q 500 221 494 210 q 518 240 507 232 q 530 247 524 243 q 545 252 537 251 q 561 254 553 254 q 576 254 568 254 q 587 248 582 251 q 598 243 593 245 q 608 236 604 240 q 617 227 612 232 q 627 210 623 218 q 631 192 631 202 q 631 172 631 182 q 631 152 631 163 q 623 118 628 136 q 609 85 617 100 q 590 57 601 71 q 567 30 579 43 q 528 5 548 16 q 484 -9 507 -5 q 438 -14 461 -14 q 391 -14 415 -14 z "},"u":{"ha":825,"x_min":33,"x_max":791,"o":"m 251 -8 q 216 1 232 -3 q 183 15 199 5 q 153 37 167 24 q 125 62 138 49 q 69 162 87 109 q 42 273 52 216 q 33 387 33 330 q 33 502 33 445 q 37 538 35 521 q 39 574 38 556 q 47 608 41 591 q 71 636 54 625 q 83 642 76 639 q 95 647 90 644 q 107 650 100 650 q 122 650 114 650 l 161 631 q 172 616 167 623 q 180 602 178 609 q 183 585 183 594 q 183 567 183 575 q 178 528 180 548 q 175 486 175 507 q 174 444 175 464 q 172 401 172 423 q 178 334 175 368 q 187 267 180 300 q 205 202 194 235 q 243 145 216 170 q 256 138 248 141 q 273 136 264 136 q 289 136 281 136 q 305 136 297 136 q 331 143 319 138 q 354 156 343 148 q 375 174 365 164 q 396 191 385 183 q 450 267 426 227 q 481 353 475 308 q 486 448 488 399 q 513 534 483 496 q 525 544 518 540 q 540 549 532 548 q 556 552 548 551 q 572 553 564 553 q 585 549 578 551 q 597 544 591 548 q 608 536 602 540 q 617 526 613 532 q 631 496 628 513 q 635 463 633 480 q 636 426 636 445 q 636 391 636 407 l 628 351 q 633 312 631 332 q 642 273 636 292 q 655 236 647 254 q 677 202 663 218 l 701 197 l 736 199 l 774 175 q 783 163 780 170 q 788 149 785 156 q 791 135 791 142 q 791 119 791 127 q 787 107 788 114 q 781 95 785 100 q 773 84 777 90 q 764 73 769 79 q 745 64 755 68 q 723 58 734 60 q 701 56 712 57 q 680 54 690 54 q 648 61 663 57 q 619 72 633 65 q 591 90 605 79 q 567 111 578 100 l 543 142 q 509 103 526 122 q 471 66 491 84 q 429 35 450 49 q 384 11 407 22 q 353 1 368 5 q 320 -5 338 -3 q 285 -8 302 -8 q 251 -8 267 -8 z "},"v":{"ha":700,"x_min":27,"x_max":663,"o":"m 275 43 l 237 62 q 151 175 191 115 q 85 300 110 235 q 46 435 60 366 q 27 575 33 505 q 31 586 30 579 q 37 598 33 593 q 45 608 41 604 q 54 617 49 612 q 66 624 60 620 q 81 629 73 628 q 97 631 90 631 q 113 631 104 631 l 148 612 q 178 510 172 564 q 199 404 183 456 q 240 304 216 353 q 300 216 264 256 q 358 267 328 240 q 415 322 388 294 q 465 381 442 350 q 507 448 488 412 q 514 467 510 458 q 522 486 518 475 q 532 505 526 496 q 545 521 537 513 q 557 529 551 526 q 571 534 563 532 q 587 537 579 537 q 604 537 595 537 q 616 533 609 534 q 628 528 623 532 q 637 519 633 524 q 647 510 642 515 q 652 499 650 505 q 658 488 655 494 q 661 476 661 483 q 663 464 661 469 q 632 380 652 420 q 586 304 612 340 q 530 235 560 267 q 467 170 499 202 q 422 132 445 151 q 376 95 399 114 q 330 58 353 76 q 275 43 308 41 z "},"w":{"ha":879,"x_min":30,"x_max":845,"o":"m 286 35 q 258 47 273 41 q 229 64 243 54 q 204 84 216 73 q 182 109 193 95 q 114 218 141 159 q 71 341 87 278 q 43 469 54 404 q 30 600 33 534 q 34 612 33 605 q 39 623 35 618 q 47 633 43 628 q 57 644 52 639 q 68 650 62 647 q 79 655 73 652 q 91 658 84 658 q 103 661 98 658 q 118 656 111 658 q 132 652 125 655 q 145 644 138 650 q 157 633 152 639 q 180 532 176 586 q 196 425 184 477 q 225 321 208 373 q 270 224 243 270 l 278 224 q 307 290 292 256 q 336 357 321 324 q 366 421 351 389 q 403 483 381 453 q 416 491 408 488 q 431 496 425 494 q 446 499 437 499 q 464 499 456 499 l 505 475 l 616 335 q 646 389 632 362 q 673 442 659 415 q 701 498 688 469 q 742 543 715 526 l 788 548 l 829 524 q 836 511 831 518 q 842 498 840 505 q 845 483 845 491 q 845 467 845 475 q 804 385 826 423 q 761 305 783 346 q 719 224 739 264 q 671 146 699 183 q 658 140 665 144 q 644 134 651 136 q 628 133 637 133 q 610 133 618 133 l 572 157 l 469 292 l 461 292 q 436 229 450 259 q 407 169 422 199 q 381 107 392 138 q 349 49 370 76 q 334 42 340 46 q 320 37 327 38 q 304 35 313 35 q 286 35 294 35 z "},"x":{"ha":781,"x_min":33,"x_max":745,"o":"m 144 41 l 103 60 q 94 75 98 68 q 85 90 90 81 q 81 106 81 98 q 81 125 81 114 l 100 163 q 146 199 125 180 q 189 240 168 218 q 231 283 210 262 q 270 327 251 305 q 204 406 237 368 q 140 487 171 445 q 73 568 109 529 q 33 658 38 608 l 52 696 q 66 705 60 701 q 81 712 73 709 q 98 716 90 715 q 114 718 106 718 q 129 713 122 715 q 142 708 136 712 q 155 697 149 704 q 165 685 160 690 l 362 434 l 368 434 q 433 509 400 472 q 500 581 467 545 q 570 650 534 616 q 646 712 605 685 l 685 718 l 728 693 q 738 680 734 688 q 743 665 742 671 q 745 648 745 658 q 745 632 745 639 l 720 591 q 650 530 682 564 q 587 463 618 496 q 524 395 556 429 q 464 324 491 362 q 515 273 488 297 q 571 225 543 248 q 634 189 600 202 q 696 155 669 175 q 701 142 699 149 q 707 130 704 136 q 709 118 709 125 q 709 103 709 111 q 705 90 707 98 q 700 76 704 81 q 690 65 696 71 q 680 54 685 60 q 667 49 674 52 q 655 43 661 46 q 644 41 650 41 q 629 41 637 41 q 555 68 591 49 q 487 111 518 87 q 425 162 456 136 q 368 218 395 189 q 323 173 343 197 q 278 127 302 149 q 231 84 254 106 q 182 46 208 62 l 144 41 z "},"y":{"ha":906,"x_min":35,"x_max":872,"o":"m 119 -187 l 81 -165 q 72 -153 76 -160 q 66 -140 68 -146 q 64 -125 65 -133 q 62 -109 62 -117 q 71 -84 65 -95 q 85 -64 76 -73 q 104 -45 95 -54 q 125 -24 114 -35 l 300 148 q 229 261 264 205 q 159 376 193 317 q 85 490 125 434 q 35 612 46 547 l 57 650 q 69 658 62 655 q 83 663 76 661 q 96 667 90 666 q 111 669 103 669 q 123 665 117 666 q 137 661 130 663 q 149 654 144 658 q 160 644 155 650 l 408 247 q 507 342 457 293 q 606 436 556 391 q 702 533 656 481 q 815 598 747 585 q 827 594 821 595 q 840 589 834 593 q 849 581 845 585 q 859 571 853 576 q 867 557 864 566 q 871 543 869 549 q 872 526 872 536 q 872 509 872 517 q 865 492 869 500 q 854 477 861 484 q 841 465 848 471 q 826 450 834 458 q 653 284 739 369 q 479 118 567 199 q 309 -52 392 37 q 119 -187 225 -141 z "},"z":{"ha":760,"x_min":38,"x_max":726,"o":"m 543 11 q 429 34 486 24 q 315 53 372 43 q 201 71 259 62 q 92 106 142 79 q 83 117 87 111 q 77 130 79 123 q 75 145 76 137 q 73 161 73 153 q 77 174 76 167 q 83 187 79 180 q 91 199 87 194 q 100 210 95 205 q 199 288 151 248 q 298 367 248 327 q 397 448 349 407 q 491 532 445 488 q 380 553 437 545 q 269 571 324 562 q 155 584 213 581 q 52 620 98 587 q 45 632 49 625 q 39 647 41 639 q 38 663 38 655 q 38 680 38 671 q 43 690 41 685 q 49 701 46 696 q 56 711 52 707 q 65 720 60 715 q 80 728 73 726 q 95 732 87 731 q 113 734 103 734 q 130 734 122 734 q 275 713 202 723 q 421 689 349 704 q 566 665 494 674 q 707 628 639 655 q 716 613 712 620 q 723 600 720 606 q 726 584 726 593 q 726 567 726 575 l 704 526 q 608 444 655 486 q 513 360 562 401 q 414 278 464 319 q 319 194 365 237 q 394 184 357 191 q 469 171 431 178 q 545 157 507 164 q 612 126 583 151 q 620 115 617 121 q 625 102 623 109 q 628 87 628 95 q 628 71 628 79 q 624 58 625 65 q 618 46 623 52 q 610 35 614 41 q 601 24 606 30 q 590 18 597 22 q 575 12 583 14 q 559 11 567 11 q 543 11 551 11 z "},"{":{"ha":537,"x_min":53,"x_max":514,"o":"m 366 -132 q 340 -125 353 -129 q 316 -115 328 -121 q 293 -102 304 -110 q 271 -85 282 -94 q 251 -57 260 -72 q 236 -26 241 -42 q 228 7 231 -9 q 222 42 225 23 l 222 233 q 217 277 220 255 q 209 323 214 300 q 194 368 203 346 q 168 406 184 389 q 144 419 157 416 q 118 423 132 422 q 92 431 104 425 q 69 449 80 438 q 61 460 64 454 q 57 472 58 465 q 54 486 56 479 q 53 500 53 492 q 57 512 56 506 q 61 524 58 518 q 68 534 64 529 q 75 545 72 540 q 96 559 85 553 q 122 564 107 564 q 149 567 137 564 q 168 583 160 570 q 183 614 179 597 q 189 648 187 632 q 190 682 190 665 q 190 719 190 700 q 184 768 187 742 q 178 818 182 793 q 171 867 174 842 q 168 918 168 891 q 176 956 171 937 q 190 993 182 974 q 210 1027 198 1012 q 236 1058 222 1042 q 275 1086 255 1074 q 319 1107 296 1099 q 366 1115 342 1115 q 414 1115 389 1115 q 430 1111 422 1112 q 446 1107 438 1109 q 461 1099 454 1104 q 473 1085 468 1093 q 481 1073 479 1080 q 486 1059 484 1066 q 488 1046 487 1053 q 490 1031 490 1039 l 468 987 q 453 978 460 982 q 438 972 446 974 q 420 970 430 970 q 403 970 411 970 l 366 972 l 328 945 q 321 933 326 940 q 316 920 317 926 q 313 905 315 913 q 312 888 312 897 q 321 831 317 861 q 328 773 326 802 q 332 715 331 745 q 334 656 334 686 q 328 613 331 635 q 319 571 326 591 q 304 530 312 551 q 282 495 296 510 q 320 437 304 468 q 345 372 336 406 q 358 304 353 338 q 366 236 363 271 l 366 49 l 377 15 l 406 12 l 449 20 q 461 16 454 18 q 475 12 468 15 q 487 5 481 9 q 498 -4 492 1 q 507 -19 503 -12 q 513 -34 511 -26 q 514 -52 514 -42 q 514 -69 514 -61 q 510 -80 511 -75 q 505 -91 509 -85 q 496 -100 500 -96 q 487 -110 492 -104 q 458 -122 473 -118 q 429 -129 444 -126 q 397 -132 414 -132 q 366 -132 381 -132 z "},"|":{"ha":255,"x_min":58,"x_max":202,"o":"m 115 -95 l 75 -68 l 58 -27 l 58 1024 q 62 1039 61 1029 q 68 1055 64 1048 q 77 1067 72 1061 q 88 1080 83 1073 q 100 1086 94 1082 q 113 1093 107 1089 q 125 1096 118 1096 q 140 1096 132 1096 l 183 1070 l 202 1027 l 202 -30 q 198 -44 199 -37 q 193 -58 197 -52 q 184 -69 189 -65 q 175 -80 180 -73 q 163 -87 170 -83 q 148 -93 156 -91 q 132 -95 140 -95 q 115 -95 123 -95 z "},"}":{"ha":537,"x_min":45,"x_max":506,"o":"m 146 -126 q 123 -122 136 -123 q 100 -118 111 -121 q 79 -110 90 -115 q 61 -94 69 -104 q 53 -80 56 -88 q 47 -65 50 -72 q 45 -49 45 -58 q 45 -31 45 -39 l 66 7 q 78 16 72 12 q 92 23 84 20 q 109 26 100 26 q 125 26 117 26 l 179 18 q 186 24 184 20 q 189 33 187 28 q 190 42 190 37 q 193 50 190 47 l 193 231 q 201 302 195 266 q 214 373 206 338 q 239 441 222 408 q 277 503 255 473 q 251 550 260 525 q 236 601 241 575 q 229 654 231 627 q 225 708 228 681 q 229 760 228 735 q 235 812 231 785 q 243 865 239 840 q 247 918 247 891 l 222 962 q 210 970 217 964 q 197 977 203 975 q 183 979 190 978 q 168 981 176 981 l 130 975 q 118 979 125 978 q 106 985 111 981 q 95 992 100 989 q 84 1001 90 996 q 79 1012 81 1006 q 74 1023 76 1017 q 72 1035 72 1028 q 69 1047 72 1042 q 73 1063 72 1055 q 77 1078 75 1072 q 85 1092 79 1085 q 98 1104 92 1099 q 119 1114 109 1109 q 142 1119 130 1118 q 165 1122 155 1120 q 190 1123 176 1123 q 231 1115 209 1120 q 270 1100 252 1109 q 304 1078 288 1090 q 335 1050 321 1066 q 362 1012 351 1031 q 380 972 373 993 q 389 928 387 951 q 389 880 392 905 q 381 830 384 856 q 374 781 378 804 q 369 731 370 757 q 368 678 368 705 q 370 651 370 665 q 374 625 370 637 q 384 602 378 613 q 397 581 389 591 q 420 572 408 572 q 446 570 433 572 q 471 562 460 567 q 490 545 481 556 q 498 533 495 540 q 503 520 500 526 q 506 506 506 514 q 506 490 506 498 q 502 477 503 484 q 496 465 500 471 q 488 454 492 460 q 479 444 484 449 q 456 433 468 435 q 431 429 444 430 q 408 422 419 427 q 387 408 397 416 q 361 366 370 389 q 347 320 351 343 q 340 273 343 297 q 335 225 338 250 l 335 39 q 328 5 332 23 q 319 -28 324 -12 q 303 -58 313 -45 q 282 -85 293 -72 q 252 -106 269 -96 q 218 -119 236 -115 q 183 -125 201 -123 q 146 -126 165 -126 z "},"~":{"ha":781,"x_min":56,"x_max":730,"o":"m 530 830 q 456 852 492 836 q 391 894 420 868 q 331 944 361 920 q 258 963 301 968 q 243 959 250 960 q 229 954 236 958 q 216 945 222 949 q 203 936 209 941 q 199 920 201 928 q 195 903 198 911 q 188 887 193 895 q 178 873 183 879 q 163 864 170 868 q 148 859 156 860 q 130 857 140 857 q 113 857 121 857 q 102 861 107 860 q 91 867 96 863 q 81 875 85 871 q 72 884 77 879 q 62 901 66 892 q 57 917 58 909 q 56 935 56 925 q 56 955 56 944 q 64 982 58 968 q 77 1008 69 996 q 96 1030 85 1020 q 118 1051 107 1040 q 159 1078 137 1067 q 201 1096 180 1089 q 247 1104 222 1103 q 296 1105 271 1105 q 372 1085 334 1100 q 437 1044 410 1070 q 498 993 465 1017 q 574 974 530 968 l 590 993 q 591 1005 590 998 q 597 1017 593 1012 q 604 1026 601 1023 q 612 1035 606 1029 q 623 1042 617 1038 q 635 1048 628 1046 q 649 1051 642 1051 q 662 1054 656 1051 q 674 1051 667 1051 q 688 1047 681 1051 q 700 1039 694 1043 q 711 1032 705 1035 q 720 1019 716 1025 q 727 1004 724 1012 q 730 985 730 996 q 730 966 730 974 q 720 939 724 952 q 709 911 716 925 q 692 887 703 898 q 670 865 681 876 q 639 846 655 854 q 605 834 623 838 q 568 830 587 830 q 530 830 549 830 z "},"":{"ha":694,"x_min":0,"x_max":0,"o":""},"":{"ha":694,"x_min":0,"x_max":0,"o":""},"":{"ha":694,"x_min":0,"x_max":0,"o":""},"":{"ha":694,"x_min":0,"x_max":0,"o":""},"":{"ha":694,"x_min":0,"x_max":0,"o":""},"":{"ha":694,"x_min":0,"x_max":0,"o":""},"":{"ha":694,"x_min":0,"x_max":0,"o":""},"":{"ha":1389,"x_min":0,"x_max":0,"o":""},"":{"ha":1389,"x_min":0,"x_max":0,"o":""},"":{"ha":1405,"x_min":52,"x_max":1336,"o":"m 1204 490 q 1054 854 1204 699 q 690 1002 899 1002 q 326 854 479 1002 q 172 490 172 699 q 326 126 172 279 q 690 -22 479 -22 q 1054 126 899 -22 q 1204 490 1204 279 m 1336 494 q 1147 35 1336 221 q 694 -146 960 -146 q 236 35 423 -146 q 52 494 52 221 q 236 947 52 761 q 694 1134 423 1134 q 1147 947 960 1134 q 1336 494 1336 761 m 726 88 q 636 100 681 91 q 549 126 591 109 q 468 171 506 144 q 401 233 430 198 q 362 290 377 260 q 336 353 347 320 q 321 419 324 385 q 317 488 317 453 q 331 569 323 526 q 358 649 339 612 q 401 720 377 686 q 456 783 425 753 q 510 821 481 803 q 570 851 538 840 q 636 868 602 863 q 703 869 670 873 q 777 855 741 867 q 847 826 812 844 q 911 785 882 808 q 967 732 940 761 q 978 717 971 726 q 989 701 985 708 q 994 684 993 693 q 994 662 994 674 q 991 652 993 658 q 987 642 990 647 q 981 635 985 637 q 974 627 978 632 q 964 619 968 621 q 951 615 959 617 q 937 613 943 613 q 922 613 930 613 l 888 628 q 864 657 878 643 q 837 684 850 671 q 808 705 823 696 q 776 724 792 713 q 749 732 761 727 q 724 739 736 736 q 695 743 711 742 q 665 745 680 745 q 627 737 647 742 q 590 723 608 732 q 556 702 572 713 q 525 677 540 690 q 488 625 502 654 q 462 564 473 595 q 446 500 450 532 q 444 435 441 469 q 452 394 446 414 q 468 355 457 374 q 492 319 479 336 q 524 289 506 301 q 578 253 551 267 q 637 229 606 239 q 700 216 667 218 q 762 214 732 214 q 801 224 784 218 q 836 237 818 229 q 869 256 853 244 q 898 281 884 267 q 909 294 903 289 q 917 305 914 298 q 927 315 920 312 q 940 323 935 319 l 977 326 q 987 321 981 323 q 998 318 993 320 q 1007 311 1004 316 q 1016 301 1010 305 q 1021 292 1019 298 q 1027 282 1024 286 q 1029 271 1029 278 q 1029 258 1029 264 q 1020 235 1027 245 q 1005 214 1013 225 q 987 194 997 203 q 968 175 978 184 q 915 137 943 153 q 855 110 887 121 q 791 95 823 99 q 726 88 760 91 z "},"":{"ha":694,"x_min":0,"x_max":0,"o":""},"":{"ha":694,"x_min":0,"x_max":0,"o":""},"":{"ha":694,"x_min":0,"x_max":0,"o":""},"":{"ha":694,"x_min":0,"x_max":0,"o":""},"":{"ha":694,"x_min":0,"x_max":0,"o":""},"":{"ha":694,"x_min":0,"x_max":0,"o":""},"":{"ha":1389,"x_min":0,"x_max":0,"o":""},"":{"ha":879,"x_min":85,"x_max":825,"o":"m 418 248 q 407 254 412 251 q 396 259 401 256 q 387 266 391 262 q 377 275 382 270 l 363 305 l 363 518 l 142 518 q 132 524 137 521 q 121 529 126 526 q 111 536 115 532 q 102 545 107 540 q 94 557 96 551 q 90 570 91 564 q 88 585 88 576 q 88 601 88 593 q 92 613 91 606 q 98 625 94 620 q 106 635 102 631 q 115 644 110 639 q 126 650 121 647 q 137 655 132 652 q 148 658 142 658 q 159 661 153 658 l 363 661 l 363 887 q 368 899 366 892 q 373 911 369 906 q 381 921 377 917 q 391 930 385 925 q 401 937 396 936 q 412 941 407 939 q 425 944 418 944 q 437 947 431 944 q 452 943 445 944 q 465 939 458 941 q 479 930 472 936 q 491 920 486 925 q 496 910 494 914 q 500 902 498 906 q 503 892 503 898 q 506 882 503 887 l 506 661 l 727 661 q 742 656 735 658 q 755 652 749 655 q 769 644 762 650 q 781 633 776 639 q 789 621 787 628 q 793 608 792 614 q 796 594 795 601 q 798 579 798 587 l 773 534 l 743 518 l 506 518 l 506 311 l 483 264 q 468 255 475 259 q 453 250 461 251 q 435 248 445 248 q 418 248 426 248 m 142 -3 l 109 16 q 98 27 103 22 q 90 39 92 33 q 87 54 87 46 q 85 68 87 62 q 87 81 87 73 q 90 96 87 90 q 98 109 92 103 q 109 119 103 114 q 119 127 114 122 q 132 136 125 133 q 148 138 138 138 q 164 141 157 138 l 746 141 q 762 138 753 138 q 777 136 770 138 q 790 127 784 133 q 802 119 796 122 q 812 104 807 111 q 821 88 818 98 q 825 69 825 79 q 825 49 825 60 l 802 16 l 766 -3 l 142 -3 z "},"":{"ha":694,"x_min":0,"x_max":0,"o":""},"":{"ha":694,"x_min":0,"x_max":0,"o":""},"":{"ha":472,"x_min":77,"x_max":416,"o":"m 165 747 q 149 747 157 747 q 133 749 141 747 q 118 754 125 750 q 106 761 111 758 q 96 770 100 766 q 88 780 92 774 q 83 791 84 785 q 80 802 83 796 q 108 881 77 848 q 165 948 138 914 q 222 1016 193 982 q 279 1085 252 1050 q 290 1095 285 1090 q 302 1105 296 1100 q 315 1114 309 1111 q 327 1119 321 1116 q 343 1119 335 1119 q 359 1118 351 1119 q 374 1112 368 1116 q 387 1105 381 1108 q 396 1097 392 1100 q 404 1088 400 1093 q 410 1077 408 1082 q 414 1066 411 1072 q 385 986 416 1020 q 328 918 354 952 q 271 851 301 884 q 214 783 241 818 q 203 772 209 777 q 191 761 198 766 q 178 753 184 755 q 165 747 171 750 z "},"":{"ha":694,"x_min":0,"x_max":0,"o":""},"":{"ha":1389,"x_min":0,"x_max":0,"o":""},"":{"ha":694,"x_min":0,"x_max":0,"o":""},"":{"ha":694,"x_min":0,"x_max":0,"o":""},"":{"ha":694,"x_min":0,"x_max":0,"o":""},"":{"ha":694,"x_min":0,"x_max":0,"o":""},"":{"ha":694,"x_min":0,"x_max":0,"o":""},"":{"ha":694,"x_min":0,"x_max":0,"o":""},"":{"ha":694,"x_min":0,"x_max":0,"o":""},"":{"ha":694,"x_min":0,"x_max":0,"o":""},"":{"ha":694,"x_min":0,"x_max":0,"o":""},"":{"ha":694,"x_min":0,"x_max":0,"o":""},"":{"ha":694,"x_min":0,"x_max":0,"o":""},"":{"ha":694,"x_min":0,"x_max":0,"o":""},"":{"ha":694,"x_min":0,"x_max":0,"o":""},"":{"ha":694,"x_min":0,"x_max":0,"o":""},"":{"ha":694,"x_min":0,"x_max":0,"o":""},"":{"ha":694,"x_min":0,"x_max":0,"o":""},"":{"ha":694,"x_min":0,"x_max":0,"o":""},"":{"ha":694,"x_min":0,"x_max":0,"o":""},"":{"ha":694,"x_min":0,"x_max":0,"o":""},"":{"ha":694,"x_min":0,"x_max":0,"o":""},"":{"ha":694,"x_min":0,"x_max":0,"o":""},"":{"ha":694,"x_min":0,"x_max":0,"o":""},"":{"ha":694,"x_min":0,"x_max":0,"o":""},"":{"ha":694,"x_min":0,"x_max":0,"o":""},"":{"ha":694,"x_min":0,"x_max":0,"o":""},"":{"ha":694,"x_min":0,"x_max":0,"o":""},"":{"ha":694,"x_min":0,"x_max":0,"o":""},"":{"ha":694,"x_min":0,"x_max":0,"o":""},"":{"ha":694,"x_min":0,"x_max":0,"o":""},"":{"ha":694,"x_min":0,"x_max":0,"o":""},"":{"ha":694,"x_min":0,"x_max":0,"o":""},"":{"ha":694,"x_min":0,"x_max":0,"o":""},"":{"ha":852,"x_min":126,"x_max":755,"o":"m 182 98 q 171 100 176 98 q 160 106 165 103 q 151 112 155 109 q 141 121 146 115 q 133 132 136 125 q 129 144 130 138 q 127 158 127 151 q 127 172 127 165 q 286 372 233 312 q 420 535 338 433 q 526 675 503 637 q 632 815 548 712 q 646 824 640 821 q 659 830 651 827 q 675 834 667 833 q 690 836 682 836 q 703 831 696 833 q 716 827 709 830 q 728 820 723 825 q 739 810 734 815 q 747 800 745 806 q 751 787 750 793 q 754 775 753 781 q 755 762 755 769 q 656 618 680 656 q 549 476 632 581 q 393 296 465 372 q 247 110 320 220 q 233 102 241 106 q 217 98 225 98 q 199 98 209 98 q 182 98 190 98 m 700 98 q 682 98 692 98 q 665 98 673 98 q 648 102 656 98 q 635 110 640 106 q 489 296 562 220 q 333 476 416 372 q 226 618 250 581 q 126 762 202 656 q 127 775 126 769 q 130 787 129 781 q 134 800 132 793 q 142 810 137 806 q 153 820 148 815 q 165 827 159 825 q 179 831 172 830 q 191 836 186 833 q 207 834 199 836 q 222 830 214 833 q 236 824 231 827 q 250 815 241 821 q 356 675 334 712 q 461 535 378 637 q 596 372 544 433 q 754 172 648 312 q 754 158 754 165 q 753 144 754 151 q 749 132 751 138 q 741 121 746 125 q 731 112 735 115 q 722 106 727 109 q 711 100 716 103 q 700 98 705 98 z "},"":{"ha":694,"x_min":0,"x_max":0,"o":""},"":{"ha":694,"x_min":0,"x_max":0,"o":""},"":{"ha":694,"x_min":0,"x_max":0,"o":""},"":{"ha":694,"x_min":0,"x_max":0,"o":""},"":{"ha":694,"x_min":0,"x_max":0,"o":""},"":{"ha":694,"x_min":0,"x_max":0,"o":""},"":{"ha":694,"x_min":0,"x_max":0,"o":""},"":{"ha":694,"x_min":0,"x_max":0,"o":""},"":{"ha":694,"x_min":0,"x_max":0,"o":""},"":{"ha":694,"x_min":0,"x_max":0,"o":""},"":{"ha":694,"x_min":0,"x_max":0,"o":""},"":{"ha":694,"x_min":0,"x_max":0,"o":""},"":{"ha":694,"x_min":0,"x_max":0,"o":""},"":{"ha":694,"x_min":0,"x_max":0,"o":""},"":{"ha":694,"x_min":0,"x_max":0,"o":""},"":{"ha":694,"x_min":0,"x_max":0,"o":""},"":{"ha":694,"x_min":0,"x_max":0,"o":""},"":{"ha":694,"x_min":0,"x_max":0,"o":""},"":{"ha":694,"x_min":0,"x_max":0,"o":""},"":{"ha":694,"x_min":0,"x_max":0,"o":""},"":{"ha":694,"x_min":0,"x_max":0,"o":""},"":{"ha":694,"x_min":0,"x_max":0,"o":""},"":{"ha":694,"x_min":0,"x_max":0,"o":""},"":{"ha":694,"x_min":0,"x_max":0,"o":""},"":{"ha":694,"x_min":0,"x_max":0,"o":""},"":{"ha":694,"x_min":0,"x_max":0,"o":""},"":{"ha":694,"x_min":0,"x_max":0,"o":""},"":{"ha":694,"x_min":0,"x_max":0,"o":""},"":{"ha":694,"x_min":0,"x_max":0,"o":""},"":{"ha":694,"x_min":0,"x_max":0,"o":""},"":{"ha":694,"x_min":0,"x_max":0,"o":""},"":{"ha":1080,"x_min":107,"x_max":1020,"o":"m 179 350 l 136 369 q 123 380 130 374 q 113 392 117 385 q 110 407 110 399 q 107 420 110 415 q 110 434 110 426 q 113 449 110 442 q 123 461 117 456 q 136 472 130 467 q 149 480 142 475 q 165 488 156 486 q 185 491 174 491 q 205 494 197 491 l 924 494 q 943 491 932 491 q 962 488 954 491 q 979 480 971 486 q 993 472 986 475 q 1006 457 1000 464 q 1017 441 1013 450 q 1020 422 1020 431 q 1020 401 1020 412 l 993 369 l 949 350 l 179 350 m 538 -35 q 518 -30 528 -33 q 499 -23 509 -27 q 480 -12 490 -19 q 463 3 471 -5 q 449 26 456 14 q 438 50 442 38 q 434 77 434 62 q 434 104 434 92 q 439 121 437 113 q 446 137 442 129 q 455 152 450 145 q 465 167 460 159 q 488 184 476 178 q 514 195 500 191 q 543 199 528 199 q 574 199 557 199 q 591 193 582 194 q 609 186 601 191 q 624 175 617 180 q 639 161 631 170 q 652 141 647 151 q 662 119 658 132 q 667 96 666 107 q 669 71 669 84 q 663 49 666 60 q 655 28 661 38 q 642 9 650 19 q 625 -8 633 0 q 606 -22 617 -16 q 585 -30 595 -27 q 563 -34 574 -33 q 538 -35 552 -35 m 538 692 q 518 697 528 694 q 499 704 509 700 q 480 715 490 708 q 463 730 471 722 q 449 753 456 741 q 438 777 442 765 q 434 804 434 789 q 434 831 434 819 q 439 848 437 840 q 446 864 442 856 q 455 879 450 872 q 465 894 460 886 q 488 911 476 905 q 514 922 500 918 q 543 926 528 926 q 574 926 557 926 q 591 920 582 921 q 609 913 601 918 q 624 902 617 907 q 639 888 631 897 q 652 868 647 878 q 662 846 658 859 q 667 823 666 834 q 669 798 669 811 q 663 776 666 787 q 655 755 661 765 q 642 736 650 746 q 625 719 633 727 q 606 705 617 711 q 585 697 595 700 q 563 693 574 694 q 538 692 552 692 z "},"":{"ha":694,"x_min":0,"x_max":0,"o":""},"":{"ha":694,"x_min":0,"x_max":0,"o":""},"":{"ha":694,"x_min":0,"x_max":0,"o":""},"":{"ha":694,"x_min":0,"x_max":0,"o":""},"":{"ha":694,"x_min":0,"x_max":0,"o":""},"":{"ha":694,"x_min":0,"x_max":0,"o":""},"":{"ha":694,"x_min":0,"x_max":0,"o":""},"":{"ha":694,"x_min":0,"x_max":0,"o":""},"":{"ha":694,"x_min":0,"x_max":0,"o":""},"":{"ha":694,"x_min":0,"x_max":0,"o":""},"":{"ha":694,"x_min":0,"x_max":0,"o":""},"":{"ha":694,"x_min":0,"x_max":0,"o":""},"":{"ha":694,"x_min":0,"x_max":0,"o":""},"":{"ha":694,"x_min":0,"x_max":0,"o":""},"":{"ha":694,"x_min":0,"x_max":0,"o":""},"":{"ha":694,"x_min":0,"x_max":0,"o":""},"":{"ha":694,"x_min":0,"x_max":0,"o":""},"":{"ha":694,"x_min":0,"x_max":0,"o":""},"":{"ha":694,"x_min":0,"x_max":0,"o":""},"":{"ha":694,"x_min":0,"x_max":0,"o":""},"":{"ha":694,"x_min":0,"x_max":0,"o":""},"":{"ha":694,"x_min":0,"x_max":0,"o":""},"":{"ha":694,"x_min":0,"x_max":0,"o":""},"":{"ha":694,"x_min":0,"x_max":0,"o":""},"":{"ha":694,"x_min":0,"x_max":0,"o":""},"":{"ha":694,"x_min":0,"x_max":0,"o":""},"":{"ha":694,"x_min":0,"x_max":0,"o":""},"":{"ha":694,"x_min":0,"x_max":0,"o":""},"":{"ha":694,"x_min":0,"x_max":0,"o":""},"":{"ha":694,"x_min":0,"x_max":0,"o":""},"":{"ha":694,"x_min":0,"x_max":0,"o":""},"":{"ha":694,"x_min":0,"x_max":0,"o":""},"":{"ha":694,"x_min":0,"x_max":0,"o":""},"":{"ha":694,"x_min":0,"x_max":0,"o":""},"":{"ha":694,"x_min":0,"x_max":0,"o":""},"":{"ha":694,"x_min":0,"x_max":0,"o":""},"":{"ha":694,"x_min":0,"x_max":0,"o":""},"":{"ha":694,"x_min":0,"x_max":0,"o":""},"":{"ha":694,"x_min":0,"x_max":0,"o":""},"":{"ha":694,"x_min":0,"x_max":0,"o":""},"":{"ha":694,"x_min":0,"x_max":0,"o":""},"":{"ha":694,"x_min":0,"x_max":0,"o":""},"":{"ha":694,"x_min":0,"x_max":0,"o":""},"":{"ha":694,"x_min":0,"x_max":0,"o":""},"":{"ha":694,"x_min":0,"x_max":0,"o":""},"":{"ha":694,"x_min":0,"x_max":0,"o":""},"":{"ha":694,"x_min":0,"x_max":0,"o":""},"":{"ha":694,"x_min":0,"x_max":0,"o":""},"":{"ha":694,"x_min":0,"x_max":0,"o":""},"":{"ha":694,"x_min":0,"x_max":0,"o":""},"":{"ha":694,"x_min":0,"x_max":0,"o":""},"":{"ha":694,"x_min":0,"x_max":0,"o":""},"":{"ha":694,"x_min":0,"x_max":0,"o":""},"":{"ha":694,"x_min":0,"x_max":0,"o":""},"":{"ha":694,"x_min":0,"x_max":0,"o":""},"":{"ha":694,"x_min":0,"x_max":0,"o":""},"":{"ha":694,"x_min":0,"x_max":0,"o":""},"":{"ha":694,"x_min":0,"x_max":0,"o":""},"":{"ha":694,"x_min":0,"x_max":0,"o":""},"":{"ha":694,"x_min":0,"x_max":0,"o":""},"":{"ha":694,"x_min":0,"x_max":0,"o":""},"":{"ha":694,"x_min":0,"x_max":0,"o":""},"":{"ha":694,"x_min":0,"x_max":0,"o":""},"":{"ha":694,"x_min":0,"x_max":0,"o":""},"":{"ha":694,"x_min":0,"x_max":0,"o":""},"":{"ha":694,"x_min":0,"x_max":0,"o":""},"":{"ha":694,"x_min":0,"x_max":0,"o":""},"":{"ha":694,"x_min":0,"x_max":0,"o":""},"":{"ha":694,"x_min":0,"x_max":0,"o":""},"":{"ha":694,"x_min":0,"x_max":0,"o":""},"":{"ha":694,"x_min":0,"x_max":0,"o":""},"":{"ha":694,"x_min":0,"x_max":0,"o":""},"":{"ha":694,"x_min":0,"x_max":0,"o":""},"":{"ha":694,"x_min":0,"x_max":0,"o":""},"":{"ha":694,"x_min":0,"x_max":0,"o":""},"":{"ha":694,"x_min":0,"x_max":0,"o":""},"":{"ha":694,"x_min":0,"x_max":0,"o":""},"":{"ha":694,"x_min":0,"x_max":0,"o":""},"":{"ha":694,"x_min":0,"x_max":0,"o":""},"":{"ha":694,"x_min":0,"x_max":0,"o":""},"":{"ha":694,"x_min":0,"x_max":0,"o":""},"":{"ha":694,"x_min":0,"x_max":0,"o":""},"":{"ha":694,"x_min":0,"x_max":0,"o":""},"":{"ha":694,"x_min":0,"x_max":0,"o":""},"":{"ha":694,"x_min":0,"x_max":0,"o":""},"":{"ha":694,"x_min":0,"x_max":0,"o":""},"":{"ha":694,"x_min":0,"x_max":0,"o":""},"":{"ha":694,"x_min":0,"x_max":0,"o":""},"":{"ha":694,"x_min":0,"x_max":0,"o":""},"":{"ha":694,"x_min":0,"x_max":0,"o":""},"":{"ha":694,"x_min":0,"x_max":0,"o":""},"":{"ha":694,"x_min":0,"x_max":0,"o":""},"":{"ha":694,"x_min":0,"x_max":0,"o":""},"":{"ha":694,"x_min":0,"x_max":0,"o":""},"":{"ha":694,"x_min":0,"x_max":0,"o":""},"":{"ha":694,"x_min":0,"x_max":0,"o":""},"":{"ha":694,"x_min":0,"x_max":0,"o":""},"":{"ha":694,"x_min":0,"x_max":0,"o":""},"":{"ha":694,"x_min":0,"x_max":0,"o":""},"":{"ha":694,"x_min":0,"x_max":0,"o":""},"":{"ha":694,"x_min":0,"x_max":0,"o":""},"":{"ha":694,"x_min":0,"x_max":0,"o":""},"":{"ha":694,"x_min":0,"x_max":0,"o":""},"":{"ha":694,"x_min":0,"x_max":0,"o":""},"":{"ha":694,"x_min":0,"x_max":0,"o":""},"":{"ha":694,"x_min":0,"x_max":0,"o":""},"":{"ha":694,"x_min":0,"x_max":0,"o":""},"":{"ha":694,"x_min":0,"x_max":0,"o":""},"":{"ha":694,"x_min":0,"x_max":0,"o":""},"":{"ha":694,"x_min":0,"x_max":0,"o":""},"":{"ha":694,"x_min":0,"x_max":0,"o":""},"":{"ha":694,"x_min":0,"x_max":0,"o":""},"":{"ha":694,"x_min":0,"x_max":0,"o":""},"":{"ha":694,"x_min":0,"x_max":0,"o":""},"":{"ha":694,"x_min":0,"x_max":0,"o":""},"":{"ha":694,"x_min":0,"x_max":0,"o":""},"":{"ha":694,"x_min":0,"x_max":0,"o":""},"":{"ha":694,"x_min":0,"x_max":0,"o":""},"":{"ha":694,"x_min":0,"x_max":0,"o":""},"":{"ha":694,"x_min":0,"x_max":0,"o":""},"":{"ha":694,"x_min":0,"x_max":0,"o":""},"":{"ha":694,"x_min":0,"x_max":0,"o":""},"":{"ha":694,"x_min":0,"x_max":0,"o":""},"":{"ha":694,"x_min":0,"x_max":0,"o":""},"":{"ha":694,"x_min":0,"x_max":0,"o":""},"":{"ha":694,"x_min":0,"x_max":0,"o":""},"":{"ha":694,"x_min":0,"x_max":0,"o":""},"":{"ha":694,"x_min":0,"x_max":0,"o":""},"":{"ha":694,"x_min":0,"x_max":0,"o":""},"":{"ha":694,"x_min":0,"x_max":0,"o":""},"":{"ha":694,"x_min":0,"x_max":0,"o":""},"":{"ha":694,"x_min":0,"x_max":0,"o":""},"":{"ha":694,"x_min":0,"x_max":0,"o":""},"":{"ha":694,"x_min":0,"x_max":0,"o":""},"":{"ha":694,"x_min":0,"x_max":0,"o":""},"":{"ha":694,"x_min":0,"x_max":0,"o":""},"":{"ha":694,"x_min":0,"x_max":0,"o":""},"":{"ha":1389,"x_min":0,"x_max":0,"o":""},"":{"ha":1389,"x_min":0,"x_max":0,"o":""},"":{"ha":1389,"x_min":0,"x_max":0,"o":""},"":{"ha":1389,"x_min":0,"x_max":0,"o":""},"":{"ha":1389,"x_min":0,"x_max":0,"o":""},"":{"ha":1389,"x_min":0,"x_max":0,"o":""},"":{"ha":1389,"x_min":0,"x_max":0,"o":""},"":{"ha":1389,"x_min":0,"x_max":0,"o":""},"":{"ha":1389,"x_min":0,"x_max":0,"o":""},"":{"ha":1389,"x_min":0,"x_max":0,"o":""},"":{"ha":1389,"x_min":0,"x_max":0,"o":""},"":{"ha":1389,"x_min":0,"x_max":0,"o":""},"":{"ha":1389,"x_min":0,"x_max":0,"o":""},"":{"ha":1389,"x_min":0,"x_max":0,"o":""},"":{"ha":1389,"x_min":0,"x_max":0,"o":""},"":{"ha":1389,"x_min":0,"x_max":0,"o":""},"":{"ha":1389,"x_min":0,"x_max":0,"o":""},"":{"ha":694,"x_min":0,"x_max":0,"o":""},"":{"ha":694,"x_min":0,"x_max":0,"o":""},"":{"ha":694,"x_min":0,"x_max":0,"o":""},"":{"ha":694,"x_min":0,"x_max":0,"o":""},"":{"ha":694,"x_min":0,"x_max":0,"o":""},"":{"ha":694,"x_min":0,"x_max":0,"o":""},"":{"ha":694,"x_min":0,"x_max":0,"o":""},"":{"ha":694,"x_min":0,"x_max":0,"o":""},"":{"ha":694,"x_min":0,"x_max":0,"o":""},"":{"ha":694,"x_min":0,"x_max":0,"o":""},"":{"ha":694,"x_min":0,"x_max":0,"o":""},"":{"ha":694,"x_min":0,"x_max":0,"o":""},"":{"ha":694,"x_min":0,"x_max":0,"o":""},"":{"ha":694,"x_min":0,"x_max":0,"o":""},"":{"ha":694,"x_min":0,"x_max":0,"o":""},"":{"ha":694,"x_min":0,"x_max":0,"o":""},"":{"ha":694,"x_min":0,"x_max":0,"o":""},"":{"ha":694,"x_min":0,"x_max":0,"o":""},"":{"ha":694,"x_min":0,"x_max":0,"o":""},"":{"ha":694,"x_min":0,"x_max":0,"o":""},"":{"ha":694,"x_min":0,"x_max":0,"o":""},"":{"ha":694,"x_min":0,"x_max":0,"o":""},"":{"ha":694,"x_min":0,"x_max":0,"o":""},"":{"ha":694,"x_min":0,"x_max":0,"o":""},"":{"ha":694,"x_min":0,"x_max":0,"o":""},"":{"ha":694,"x_min":0,"x_max":0,"o":""},"":{"ha":694,"x_min":0,"x_max":0,"o":""},"":{"ha":694,"x_min":0,"x_max":0,"o":""},"":{"ha":694,"x_min":0,"x_max":0,"o":""},"":{"ha":694,"x_min":0,"x_max":0,"o":""},"":{"ha":694,"x_min":0,"x_max":0,"o":""},"":{"ha":694,"x_min":0,"x_max":0,"o":""},"":{"ha":694,"x_min":0,"x_max":0,"o":""},"":{"ha":694,"x_min":0,"x_max":0,"o":""},"":{"ha":694,"x_min":0,"x_max":0,"o":""},"":{"ha":694,"x_min":0,"x_max":0,"o":""},"":{"ha":694,"x_min":0,"x_max":0,"o":""},"":{"ha":694,"x_min":0,"x_max":0,"o":""},"":{"ha":694,"x_min":0,"x_max":0,"o":""},"":{"ha":694,"x_min":0,"x_max":0,"o":""},"":{"ha":694,"x_min":0,"x_max":0,"o":""},"":{"ha":694,"x_min":0,"x_max":0,"o":""},"":{"ha":694,"x_min":0,"x_max":0,"o":""},"":{"ha":694,"x_min":0,"x_max":0,"o":""},"":{"ha":694,"x_min":0,"x_max":0,"o":""},"":{"ha":694,"x_min":0,"x_max":0,"o":""},"":{"ha":694,"x_min":0,"x_max":0,"o":""},"":{"ha":694,"x_min":0,"x_max":0,"o":""},"":{"ha":694,"x_min":0,"x_max":0,"o":""},"":{"ha":694,"x_min":0,"x_max":0,"o":""},"":{"ha":694,"x_min":0,"x_max":0,"o":""},"":{"ha":694,"x_min":0,"x_max":0,"o":""},"":{"ha":694,"x_min":0,"x_max":0,"o":""},"":{"ha":694,"x_min":0,"x_max":0,"o":""},"":{"ha":694,"x_min":0,"x_max":0,"o":""},"":{"ha":694,"x_min":0,"x_max":0,"o":""},"":{"ha":694,"x_min":0,"x_max":0,"o":""},"":{"ha":694,"x_min":0,"x_max":0,"o":""},"":{"ha":694,"x_min":0,"x_max":0,"o":""},"":{"ha":694,"x_min":0,"x_max":0,"o":""},"":{"ha":694,"x_min":0,"x_max":0,"o":""},"":{"ha":694,"x_min":0,"x_max":0,"o":""},"":{"ha":694,"x_min":0,"x_max":0,"o":""},"":{"ha":694,"x_min":0,"x_max":0,"o":""},"":{"ha":694,"x_min":0,"x_max":0,"o":""},"":{"ha":694,"x_min":0,"x_max":0,"o":""},"":{"ha":694,"x_min":0,"x_max":0,"o":""},"":{"ha":694,"x_min":0,"x_max":0,"o":""},"":{"ha":694,"x_min":0,"x_max":0,"o":""},"":{"ha":694,"x_min":0,"x_max":0,"o":""},"":{"ha":694,"x_min":0,"x_max":0,"o":""},"":{"ha":694,"x_min":0,"x_max":0,"o":""},"":{"ha":694,"x_min":0,"x_max":0,"o":""},"":{"ha":694,"x_min":0,"x_max":0,"o":""},"":{"ha":694,"x_min":0,"x_max":0,"o":""},"":{"ha":694,"x_min":0,"x_max":0,"o":""},"":{"ha":694,"x_min":0,"x_max":0,"o":""},"":{"ha":694,"x_min":0,"x_max":0,"o":""},"":{"ha":694,"x_min":0,"x_max":0,"o":""},"":{"ha":694,"x_min":0,"x_max":0,"o":""},"":{"ha":694,"x_min":0,"x_max":0,"o":""},"":{"ha":694,"x_min":0,"x_max":0,"o":""},"":{"ha":694,"x_min":0,"x_max":0,"o":""},"":{"ha":694,"x_min":0,"x_max":0,"o":""},"":{"ha":694,"x_min":0,"x_max":0,"o":""},"":{"ha":694,"x_min":0,"x_max":0,"o":""},"":{"ha":694,"x_min":0,"x_max":0,"o":""},"":{"ha":694,"x_min":0,"x_max":0,"o":""},"":{"ha":694,"x_min":0,"x_max":0,"o":""},"":{"ha":694,"x_min":0,"x_max":0,"o":""},"":{"ha":694,"x_min":0,"x_max":0,"o":""},"":{"ha":694,"x_min":0,"x_max":0,"o":""},"":{"ha":694,"x_min":0,"x_max":0,"o":""},"":{"ha":694,"x_min":0,"x_max":0,"o":""},"":{"ha":694,"x_min":0,"x_max":0,"o":""},"":{"ha":694,"x_min":0,"x_max":0,"o":""},"":{"ha":694,"x_min":0,"x_max":0,"o":""},"":{"ha":694,"x_min":0,"x_max":0,"o":""},"":{"ha":694,"x_min":0,"x_max":0,"o":""},"":{"ha":694,"x_min":0,"x_max":0,"o":""},"":{"ha":694,"x_min":0,"x_max":0,"o":""},"":{"ha":694,"x_min":0,"x_max":0,"o":""},"":{"ha":694,"x_min":0,"x_max":0,"o":""},"":{"ha":694,"x_min":0,"x_max":0,"o":""},"":{"ha":694,"x_min":0,"x_max":0,"o":""},"":{"ha":694,"x_min":0,"x_max":0,"o":""},"":{"ha":694,"x_min":0,"x_max":0,"o":""},"":{"ha":694,"x_min":0,"x_max":0,"o":""},"":{"ha":694,"x_min":0,"x_max":0,"o":""},"":{"ha":694,"x_min":0,"x_max":0,"o":""},"":{"ha":694,"x_min":0,"x_max":0,"o":""},"":{"ha":694,"x_min":0,"x_max":0,"o":""},"":{"ha":694,"x_min":0,"x_max":0,"o":""},"":{"ha":694,"x_min":0,"x_max":0,"o":""},"":{"ha":694,"x_min":0,"x_max":0,"o":""},"":{"ha":694,"x_min":0,"x_max":0,"o":""},"":{"ha":694,"x_min":0,"x_max":0,"o":""},"":{"ha":694,"x_min":0,"x_max":0,"o":""},"":{"ha":694,"x_min":0,"x_max":0,"o":""},"":{"ha":1389,"x_min":0,"x_max":0,"o":""},"":{"ha":1389,"x_min":0,"x_max":0,"o":""},"":{"ha":1389,"x_min":0,"x_max":0,"o":""},"":{"ha":1389,"x_min":0,"x_max":0,"o":""},"":{"ha":1389,"x_min":0,"x_max":0,"o":""},"":{"ha":1389,"x_min":0,"x_max":0,"o":""},"":{"ha":1389,"x_min":0,"x_max":0,"o":""},"":{"ha":1389,"x_min":0,"x_max":0,"o":""},"":{"ha":1389,"x_min":0,"x_max":0,"o":""},"":{"ha":1389,"x_min":0,"x_max":0,"o":""},"":{"ha":1389,"x_min":0,"x_max":0,"o":""},"":{"ha":1389,"x_min":0,"x_max":0,"o":""},"":{"ha":1389,"x_min":0,"x_max":0,"o":""},"":{"ha":1389,"x_min":0,"x_max":0,"o":""},"":{"ha":1389,"x_min":0,"x_max":0,"o":""},"":{"ha":1389,"x_min":0,"x_max":0,"o":""},"":{"ha":1389,"x_min":0,"x_max":0,"o":""},"":{"ha":1389,"x_min":0,"x_max":0,"o":""},"":{"ha":1389,"x_min":0,"x_max":0,"o":""},"":{"ha":1389,"x_min":0,"x_max":0,"o":""},"":{"ha":1389,"x_min":0,"x_max":0,"o":""},"":{"ha":1389,"x_min":0,"x_max":0,"o":""},"":{"ha":1389,"x_min":0,"x_max":0,"o":""},"":{"ha":1389,"x_min":0,"x_max":0,"o":""},"":{"ha":694,"x_min":0,"x_max":0,"o":""},"":{"ha":694,"x_min":0,"x_max":0,"o":""},"":{"ha":694,"x_min":0,"x_max":0,"o":""},"":{"ha":694,"x_min":0,"x_max":0,"o":""},"":{"ha":694,"x_min":0,"x_max":0,"o":""},"":{"ha":694,"x_min":0,"x_max":0,"o":""},"":{"ha":694,"x_min":0,"x_max":0,"o":""},"":{"ha":1389,"x_min":0,"x_max":0,"o":""},"":{"ha":1389,"x_min":0,"x_max":0,"o":""},"":{"ha":1389,"x_min":0,"x_max":0,"o":""},"":{"ha":1389,"x_min":0,"x_max":0,"o":""},"":{"ha":1389,"x_min":0,"x_max":0,"o":""},"":{"ha":1389,"x_min":0,"x_max":0,"o":""},"":{"ha":1389,"x_min":0,"x_max":0,"o":""},"":{"ha":1389,"x_min":0,"x_max":0,"o":""},"":{"ha":1389,"x_min":0,"x_max":0,"o":""},"":{"ha":1389,"x_min":0,"x_max":0,"o":""},"":{"ha":1389,"x_min":0,"x_max":0,"o":""},"":{"ha":1389,"x_min":0,"x_max":0,"o":""},"":{"ha":1389,"x_min":0,"x_max":0,"o":""},"":{"ha":1389,"x_min":0,"x_max":0,"o":""},"":{"ha":1389,"x_min":0,"x_max":0,"o":""},"":{"ha":1389,"x_min":0,"x_max":0,"o":""},"":{"ha":1389,"x_min":0,"x_max":0,"o":""},"":{"ha":694,"x_min":0,"x_max":0,"o":""},"":{"ha":1389,"x_min":0,"x_max":0,"o":""},"":{"ha":1389,"x_min":0,"x_max":0,"o":""},"":{"ha":1389,"x_min":0,"x_max":0,"o":""},"":{"ha":1389,"x_min":0,"x_max":0,"o":""},"":{"ha":1389,"x_min":0,"x_max":0,"o":""},"":{"ha":1389,"x_min":0,"x_max":0,"o":""},"":{"ha":1389,"x_min":0,"x_max":0,"o":""},"":{"ha":694,"x_min":0,"x_max":0,"o":""},"":{"ha":694,"x_min":0,"x_max":0,"o":""},"":{"ha":694,"x_min":0,"x_max":0,"o":""},"":{"ha":694,"x_min":0,"x_max":0,"o":""},"":{"ha":694,"x_min":0,"x_max":0,"o":""},"":{"ha":1389,"x_min":0,"x_max":0,"o":""},"":{"ha":694,"x_min":0,"x_max":0,"o":""},"":{"ha":694,"x_min":0,"x_max":0,"o":""},"":{"ha":694,"x_min":0,"x_max":0,"o":""},"":{"ha":694,"x_min":0,"x_max":0,"o":""},"":{"ha":694,"x_min":0,"x_max":0,"o":""},"":{"ha":694,"x_min":0,"x_max":0,"o":""},"":{"ha":694,"x_min":0,"x_max":0,"o":""},"":{"ha":694,"x_min":0,"x_max":0,"o":""},"":{"ha":694,"x_min":0,"x_max":0,"o":""},"":{"ha":694,"x_min":0,"x_max":0,"o":""},"":{"ha":694,"x_min":0,"x_max":0,"o":""},"":{"ha":694,"x_min":0,"x_max":0,"o":""},"":{"ha":694,"x_min":0,"x_max":0,"o":""},"":{"ha":1389,"x_min":0,"x_max":0,"o":""},"":{"ha":1389,"x_min":0,"x_max":0,"o":""},"":{"ha":1389,"x_min":0,"x_max":0,"o":""},"":{"ha":1389,"x_min":0,"x_max":0,"o":""},"":{"ha":1389,"x_min":0,"x_max":0,"o":""},"":{"ha":1389,"x_min":0,"x_max":0,"o":""},"":{"ha":1389,"x_min":0,"x_max":0,"o":""},"":{"ha":1389,"x_min":0,"x_max":0,"o":""},"":{"ha":1389,"x_min":0,"x_max":0,"o":""},"":{"ha":1389,"x_min":0,"x_max":0,"o":""},"":{"ha":1389,"x_min":0,"x_max":0,"o":""},"":{"ha":1389,"x_min":0,"x_max":0,"o":""},"":{"ha":1389,"x_min":0,"x_max":0,"o":""},"":{"ha":1389,"x_min":0,"x_max":0,"o":""},"":{"ha":1389,"x_min":0,"x_max":0,"o":""},"":{"ha":1389,"x_min":0,"x_max":0,"o":""},"":{"ha":1389,"x_min":0,"x_max":0,"o":""},"":{"ha":1389,"x_min":0,"x_max":0,"o":""},"":{"ha":1389,"x_min":0,"x_max":0,"o":""},"":{"ha":1389,"x_min":0,"x_max":0,"o":""},"":{"ha":1389,"x_min":0,"x_max":0,"o":""},"":{"ha":1389,"x_min":0,"x_max":0,"o":""},"":{"ha":1389,"x_min":0,"x_max":0,"o":""},"":{"ha":1389,"x_min":0,"x_max":0,"o":""},"":{"ha":1389,"x_min":0,"x_max":0,"o":""},"":{"ha":1389,"x_min":0,"x_max":0,"o":""},"":{"ha":1389,"x_min":0,"x_max":0,"o":""},"":{"ha":1389,"x_min":0,"x_max":0,"o":""},"":{"ha":1389,"x_min":0,"x_max":0,"o":""},"":{"ha":1389,"x_min":0,"x_max":0,"o":""},"":{"ha":1389,"x_min":0,"x_max":0,"o":""},"":{"ha":1389,"x_min":0,"x_max":0,"o":""},"":{"ha":1389,"x_min":0,"x_max":0,"o":""},"":{"ha":1389,"x_min":0,"x_max":0,"o":""},"":{"ha":1389,"x_min":0,"x_max":0,"o":""},"":{"ha":1389,"x_min":0,"x_max":0,"o":""},"":{"ha":1389,"x_min":0,"x_max":0,"o":""},"":{"ha":1389,"x_min":0,"x_max":0,"o":""},"":{"ha":1389,"x_min":0,"x_max":0,"o":""},"":{"ha":1389,"x_min":0,"x_max":0,"o":""},"":{"ha":1389,"x_min":0,"x_max":0,"o":""},"":{"ha":1389,"x_min":0,"x_max":0,"o":""},"":{"ha":1389,"x_min":0,"x_max":0,"o":""},"":{"ha":1389,"x_min":0,"x_max":0,"o":""},"":{"ha":1389,"x_min":0,"x_max":0,"o":""},"":{"ha":1389,"x_min":0,"x_max":0,"o":""},"":{"ha":1389,"x_min":0,"x_max":0,"o":""},"":{"ha":1389,"x_min":0,"x_max":0,"o":""},"":{"ha":1389,"x_min":0,"x_max":0,"o":""},"":{"ha":1389,"x_min":0,"x_max":0,"o":""},"":{"ha":1389,"x_min":0,"x_max":0,"o":""},"":{"ha":1389,"x_min":0,"x_max":0,"o":""},"":{"ha":1389,"x_min":0,"x_max":0,"o":""},"":{"ha":1389,"x_min":0,"x_max":0,"o":""},"":{"ha":1389,"x_min":0,"x_max":0,"o":""},"":{"ha":1389,"x_min":0,"x_max":0,"o":""},"":{"ha":1389,"x_min":0,"x_max":0,"o":""},"":{"ha":1389,"x_min":0,"x_max":0,"o":""},"":{"ha":1389,"x_min":0,"x_max":0,"o":""},"":{"ha":1389,"x_min":0,"x_max":0,"o":""},"":{"ha":1389,"x_min":0,"x_max":0,"o":""},"":{"ha":1389,"x_min":0,"x_max":0,"o":""},"":{"ha":1389,"x_min":0,"x_max":0,"o":""},"":{"ha":1389,"x_min":0,"x_max":0,"o":""},"":{"ha":1389,"x_min":0,"x_max":0,"o":""},"":{"ha":694,"x_min":0,"x_max":0,"o":""},"":{"ha":694,"x_min":0,"x_max":0,"o":""},"":{"ha":694,"x_min":0,"x_max":0,"o":""},"":{"ha":694,"x_min":0,"x_max":0,"o":""},"":{"ha":694,"x_min":0,"x_max":0,"o":""},"":{"ha":694,"x_min":0,"x_max":0,"o":""},"":{"ha":694,"x_min":0,"x_max":0,"o":""},"":{"ha":694,"x_min":0,"x_max":0,"o":""},"":{"ha":694,"x_min":0,"x_max":0,"o":""},"":{"ha":694,"x_min":0,"x_max":0,"o":""},"":{"ha":694,"x_min":0,"x_max":0,"o":""},"":{"ha":694,"x_min":0,"x_max":0,"o":""},"":{"ha":694,"x_min":0,"x_max":0,"o":""},"":{"ha":694,"x_min":0,"x_max":0,"o":""},"":{"ha":694,"x_min":0,"x_max":0,"o":""},"":{"ha":694,"x_min":0,"x_max":0,"o":""},"":{"ha":694,"x_min":0,"x_max":0,"o":""},"":{"ha":694,"x_min":0,"x_max":0,"o":""},"":{"ha":694,"x_min":0,"x_max":0,"o":""},"":{"ha":694,"x_min":0,"x_max":0,"o":""},"":{"ha":694,"x_min":0,"x_max":0,"o":""},"":{"ha":694,"x_min":0,"x_max":0,"o":""},"":{"ha":694,"x_min":0,"x_max":0,"o":""},"":{"ha":694,"x_min":0,"x_max":0,"o":""},"":{"ha":694,"x_min":0,"x_max":0,"o":""},"":{"ha":694,"x_min":0,"x_max":0,"o":""},"":{"ha":694,"x_min":0,"x_max":0,"o":""},"":{"ha":694,"x_min":0,"x_max":0,"o":""},"":{"ha":694,"x_min":0,"x_max":0,"o":""},"":{"ha":694,"x_min":0,"x_max":0,"o":""},"":{"ha":694,"x_min":0,"x_max":0,"o":""},"":{"ha":694,"x_min":0,"x_max":0,"o":""},"":{"ha":694,"x_min":0,"x_max":0,"o":""},"":{"ha":694,"x_min":0,"x_max":0,"o":""},"":{"ha":694,"x_min":0,"x_max":0,"o":""},"":{"ha":694,"x_min":0,"x_max":0,"o":""},"":{"ha":694,"x_min":0,"x_max":0,"o":""},"":{"ha":694,"x_min":0,"x_max":0,"o":""},"":{"ha":694,"x_min":0,"x_max":0,"o":""},"":{"ha":694,"x_min":0,"x_max":0,"o":""},"":{"ha":694,"x_min":0,"x_max":0,"o":""},"":{"ha":694,"x_min":0,"x_max":0,"o":""},"":{"ha":694,"x_min":0,"x_max":0,"o":""},"":{"ha":694,"x_min":0,"x_max":0,"o":""},"":{"ha":694,"x_min":0,"x_max":0,"o":""},"":{"ha":694,"x_min":0,"x_max":0,"o":""},"":{"ha":694,"x_min":0,"x_max":0,"o":""},"":{"ha":694,"x_min":0,"x_max":0,"o":""},"":{"ha":694,"x_min":0,"x_max":0,"o":""},"":{"ha":694,"x_min":0,"x_max":0,"o":""},"":{"ha":694,"x_min":0,"x_max":0,"o":""},"":{"ha":694,"x_min":0,"x_max":0,"o":""},"":{"ha":694,"x_min":0,"x_max":0,"o":""},"":{"ha":694,"x_min":0,"x_max":0,"o":""},"":{"ha":694,"x_min":0,"x_max":0,"o":""},"":{"ha":694,"x_min":0,"x_max":0,"o":""},"":{"ha":694,"x_min":0,"x_max":0,"o":""},"":{"ha":694,"x_min":0,"x_max":0,"o":""},"":{"ha":694,"x_min":0,"x_max":0,"o":""},"":{"ha":694,"x_min":0,"x_max":0,"o":""},"":{"ha":694,"x_min":0,"x_max":0,"o":""},"":{"ha":694,"x_min":0,"x_max":0,"o":""},"":{"ha":694,"x_min":0,"x_max":0,"o":""},"":{"ha":694,"x_min":0,"x_max":0,"o":""},"":{"ha":694,"x_min":0,"x_max":0,"o":""},"":{"ha":694,"x_min":0,"x_max":0,"o":""},"":{"ha":694,"x_min":0,"x_max":0,"o":""},"":{"ha":694,"x_min":0,"x_max":0,"o":""},"":{"ha":694,"x_min":0,"x_max":0,"o":""},"":{"ha":694,"x_min":0,"x_max":0,"o":""},"":{"ha":694,"x_min":0,"x_max":0,"o":""},"":{"ha":694,"x_min":0,"x_max":0,"o":""},"":{"ha":694,"x_min":0,"x_max":0,"o":""},"":{"ha":694,"x_min":0,"x_max":0,"o":""},"":{"ha":694,"x_min":0,"x_max":0,"o":""},"":{"ha":694,"x_min":0,"x_max":0,"o":""},"":{"ha":694,"x_min":0,"x_max":0,"o":""},"":{"ha":694,"x_min":0,"x_max":0,"o":""},"":{"ha":694,"x_min":0,"x_max":0,"o":""},"":{"ha":694,"x_min":0,"x_max":0,"o":""},"":{"ha":694,"x_min":0,"x_max":0,"o":""},"":{"ha":694,"x_min":0,"x_max":0,"o":""},"":{"ha":694,"x_min":0,"x_max":0,"o":""},"":{"ha":694,"x_min":0,"x_max":0,"o":""},"":{"ha":694,"x_min":0,"x_max":0,"o":""},"":{"ha":694,"x_min":0,"x_max":0,"o":""},"":{"ha":694,"x_min":0,"x_max":0,"o":""},"":{"ha":694,"x_min":0,"x_max":0,"o":""},"":{"ha":694,"x_min":0,"x_max":0,"o":""},"":{"ha":694,"x_min":0,"x_max":0,"o":""},"":{"ha":694,"x_min":0,"x_max":0,"o":""},"":{"ha":694,"x_min":0,"x_max":0,"o":""},"":{"ha":694,"x_min":0,"x_max":0,"o":""},"":{"ha":694,"x_min":0,"x_max":0,"o":""},"":{"ha":694,"x_min":0,"x_max":0,"o":""},"":{"ha":694,"x_min":0,"x_max":0,"o":""},"":{"ha":694,"x_min":0,"x_max":0,"o":""},"":{"ha":694,"x_min":0,"x_max":0,"o":""},"":{"ha":694,"x_min":0,"x_max":0,"o":""},"":{"ha":694,"x_min":0,"x_max":0,"o":""},"":{"ha":694,"x_min":0,"x_max":0,"o":""},"":{"ha":694,"x_min":0,"x_max":0,"o":""},"":{"ha":694,"x_min":0,"x_max":0,"o":""},"":{"ha":694,"x_min":0,"x_max":0,"o":""},"":{"ha":694,"x_min":0,"x_max":0,"o":""},"":{"ha":694,"x_min":0,"x_max":0,"o":""},"":{"ha":694,"x_min":0,"x_max":0,"o":""},"":{"ha":694,"x_min":0,"x_max":0,"o":""},"":{"ha":694,"x_min":0,"x_max":0,"o":""},"":{"ha":694,"x_min":0,"x_max":0,"o":""},"":{"ha":694,"x_min":0,"x_max":0,"o":""},"":{"ha":694,"x_min":0,"x_max":0,"o":""},"":{"ha":694,"x_min":0,"x_max":0,"o":""},"":{"ha":694,"x_min":0,"x_max":0,"o":""},"":{"ha":694,"x_min":0,"x_max":0,"o":""},"":{"ha":694,"x_min":0,"x_max":0,"o":""},"":{"ha":694,"x_min":0,"x_max":0,"o":""},"":{"ha":694,"x_min":0,"x_max":0,"o":""},"":{"ha":694,"x_min":0,"x_max":0,"o":""},"":{"ha":694,"x_min":0,"x_max":0,"o":""},"":{"ha":694,"x_min":0,"x_max":0,"o":""},"":{"ha":694,"x_min":0,"x_max":0,"o":""},"":{"ha":694,"x_min":0,"x_max":0,"o":""},"":{"ha":694,"x_min":0,"x_max":0,"o":""},"":{"ha":694,"x_min":0,"x_max":0,"o":""},"":{"ha":694,"x_min":0,"x_max":0,"o":""},"":{"ha":694,"x_min":0,"x_max":0,"o":""},"":{"ha":694,"x_min":0,"x_max":0,"o":""},"":{"ha":694,"x_min":0,"x_max":0,"o":""},"":{"ha":694,"x_min":0,"x_max":0,"o":""},"":{"ha":694,"x_min":0,"x_max":0,"o":""},"":{"ha":694,"x_min":0,"x_max":0,"o":""},"":{"ha":694,"x_min":0,"x_max":0,"o":""},"":{"ha":694,"x_min":0,"x_max":0,"o":""},"":{"ha":694,"x_min":0,"x_max":0,"o":""},"":{"ha":694,"x_min":0,"x_max":0,"o":""},"":{"ha":694,"x_min":0,"x_max":0,"o":""},"":{"ha":694,"x_min":0,"x_max":0,"o":""},"":{"ha":694,"x_min":0,"x_max":0,"o":""},"":{"ha":694,"x_min":0,"x_max":0,"o":""},"":{"ha":694,"x_min":0,"x_max":0,"o":""},"":{"ha":694,"x_min":0,"x_max":0,"o":""},"":{"ha":694,"x_min":0,"x_max":0,"o":""},"":{"ha":694,"x_min":0,"x_max":0,"o":""},"":{"ha":694,"x_min":0,"x_max":0,"o":""},"":{"ha":694,"x_min":0,"x_max":0,"o":""},"":{"ha":694,"x_min":0,"x_max":0,"o":""},"":{"ha":694,"x_min":0,"x_max":0,"o":""},"":{"ha":694,"x_min":0,"x_max":0,"o":""},"":{"ha":694,"x_min":0,"x_max":0,"o":""},"":{"ha":694,"x_min":0,"x_max":0,"o":""},"":{"ha":694,"x_min":0,"x_max":0,"o":""},"":{"ha":694,"x_min":0,"x_max":0,"o":""},"":{"ha":694,"x_min":0,"x_max":0,"o":""},"":{"ha":694,"x_min":0,"x_max":0,"o":""},"":{"ha":694,"x_min":0,"x_max":0,"o":""},"":{"ha":1389,"x_min":0,"x_max":0,"o":""},"":{"ha":694,"x_min":0,"x_max":0,"o":""},"":{"ha":1389,"x_min":0,"x_max":0,"o":""},"":{"ha":694,"x_min":0,"x_max":0,"o":""},"":{"ha":694,"x_min":0,"x_max":0,"o":""},"":{"ha":694,"x_min":0,"x_max":0,"o":""},"":{"ha":694,"x_min":0,"x_max":0,"o":""},"":{"ha":694,"x_min":0,"x_max":0,"o":""},"":{"ha":694,"x_min":0,"x_max":0,"o":""},"":{"ha":694,"x_min":0,"x_max":0,"o":""},"":{"ha":694,"x_min":0,"x_max":0,"o":""},"":{"ha":694,"x_min":0,"x_max":0,"o":""},"":{"ha":694,"x_min":0,"x_max":0,"o":""},"":{"ha":694,"x_min":0,"x_max":0,"o":""},"":{"ha":694,"x_min":0,"x_max":0,"o":""},"":{"ha":635,"x_min":47,"x_max":605,"o":"m 102 350 l 69 369 q 61 380 66 374 q 53 392 56 385 q 50 407 50 399 q 47 420 50 415 q 50 434 50 426 q 53 449 50 442 q 61 461 56 456 q 69 472 66 467 q 80 480 75 475 q 92 488 85 486 q 107 491 99 491 q 121 494 115 491 l 536 494 q 549 491 541 491 q 564 488 557 491 q 576 480 571 486 q 586 472 582 475 q 597 457 591 464 q 604 441 602 450 q 605 422 605 431 q 605 401 605 412 l 586 369 l 555 350 l 102 350 z "},"":{"ha":694,"x_min":0,"x_max":0,"o":""},"":{"ha":694,"x_min":0,"x_max":0,"o":""},"":{"ha":694,"x_min":0,"x_max":0,"o":""},"":{"ha":694,"x_min":0,"x_max":0,"o":""},"":{"ha":1329,"x_min":47,"x_max":1251,"o":"m 102 350 l 69 369 q 61 380 66 374 q 53 392 56 385 q 50 407 50 399 q 47 420 50 415 q 50 434 50 426 q 53 449 50 442 q 61 461 56 456 q 69 472 66 467 q 80 480 75 475 q 92 488 85 486 q 107 491 99 491 q 121 494 115 491 l 1181 494 q 1195 491 1187 491 q 1210 488 1203 491 q 1222 480 1217 486 q 1232 472 1227 475 q 1242 457 1237 464 q 1249 441 1248 450 q 1251 422 1251 431 q 1251 401 1251 412 l 1232 369 l 1200 350 l 102 350 z "},"":{"ha":694,"x_min":0,"x_max":0,"o":""},"":{"ha":434,"x_min":99,"x_max":355,"o":"m 243 772 q 220 779 232 774 q 197 787 208 783 q 175 799 186 791 q 156 818 164 807 q 132 852 142 834 q 113 888 121 869 q 102 928 104 907 q 102 970 99 948 q 111 1005 104 987 q 127 1039 118 1023 q 149 1070 137 1055 q 175 1099 161 1085 q 187 1108 180 1104 q 201 1116 194 1112 q 216 1120 208 1120 q 232 1120 224 1120 l 254 1109 q 260 1099 256 1104 q 266 1088 264 1093 q 267 1074 267 1082 q 267 1061 267 1066 q 247 1031 262 1044 q 220 1004 232 1017 q 201 975 208 990 q 197 940 194 959 l 202 935 l 221 975 q 233 982 227 979 q 247 986 240 985 q 261 987 254 987 q 277 987 269 987 q 288 983 282 985 q 298 980 293 982 q 308 974 304 978 q 317 967 312 970 q 334 944 326 956 q 346 920 342 932 q 353 892 350 907 q 355 864 355 878 q 351 844 353 853 q 346 826 350 834 q 336 810 342 818 q 323 793 331 802 q 305 783 315 788 q 285 774 296 777 q 264 772 274 772 q 243 772 254 772 z "},"":{"ha":434,"x_min":99,"x_max":353,"o":"m 221 747 l 194 766 l 186 802 l 199 829 q 216 842 208 834 q 232 859 224 850 q 245 878 240 867 q 256 897 251 888 l 256 930 l 254 933 l 227 888 l 186 878 q 170 883 178 880 q 153 890 161 886 q 138 899 145 894 q 126 911 132 903 q 113 935 118 922 q 103 959 107 947 q 99 986 99 971 q 99 1015 99 1001 q 104 1032 102 1023 q 111 1048 107 1042 q 121 1063 115 1055 q 134 1077 126 1072 q 151 1086 142 1082 q 168 1092 159 1090 q 187 1095 178 1093 q 208 1096 197 1096 q 233 1089 221 1093 q 259 1080 245 1085 q 282 1065 273 1074 q 301 1044 292 1055 q 321 1016 312 1031 q 338 985 331 1001 q 349 951 345 968 q 353 914 353 933 q 346 878 350 897 q 332 840 342 859 q 311 804 323 821 q 286 774 300 788 q 271 762 278 769 q 256 751 264 755 q 240 747 248 747 q 221 747 232 747 z "},"":{"ha":694,"x_min":0,"x_max":0,"o":""},"":{"ha":694,"x_min":0,"x_max":0,"o":""},"":{"ha":662,"x_min":61,"x_max":609,"o":"m 495 753 q 470 760 481 755 q 448 769 458 764 q 427 785 437 774 q 407 804 418 796 q 384 838 393 821 q 368 873 374 856 q 359 911 361 891 q 358 954 358 932 q 368 987 361 971 q 382 1020 374 1004 q 403 1050 391 1036 q 429 1077 415 1063 q 441 1086 434 1080 q 454 1096 448 1093 q 469 1100 461 1099 q 484 1101 476 1101 l 514 1082 q 519 1073 517 1077 q 522 1063 522 1069 q 522 1053 522 1058 q 522 1042 522 1047 q 502 1012 517 1025 q 475 985 487 998 q 456 954 463 971 q 453 918 450 937 l 458 913 q 463 925 461 918 q 467 939 465 932 q 473 951 468 945 q 484 962 479 956 q 495 964 490 963 q 506 967 500 966 q 518 968 511 968 q 530 968 525 968 q 545 964 538 966 q 559 958 552 962 q 571 948 566 954 q 582 937 576 943 q 597 913 590 926 q 606 886 604 899 q 609 857 609 872 q 609 826 609 842 q 604 811 606 818 q 597 798 601 804 q 587 784 593 791 q 576 772 582 777 q 559 761 568 764 q 538 755 549 758 q 517 753 528 753 q 495 753 506 753 m 205 755 q 182 762 194 758 q 159 770 170 766 q 137 783 148 774 q 118 802 126 791 q 94 836 104 818 q 75 872 83 853 q 64 911 66 891 q 64 954 61 932 q 73 989 66 971 q 90 1023 80 1006 q 111 1054 99 1039 q 137 1082 123 1069 q 149 1092 142 1088 q 163 1100 156 1096 q 178 1104 170 1104 q 194 1104 186 1104 l 216 1093 q 222 1082 218 1088 q 228 1072 227 1077 q 229 1058 229 1066 q 229 1044 229 1050 q 209 1015 224 1028 q 182 987 194 1001 q 163 958 170 974 q 159 924 156 943 l 164 918 l 183 959 q 195 966 189 963 q 209 970 202 968 q 223 971 216 971 q 239 971 231 971 q 250 967 244 968 q 260 964 255 966 q 270 958 266 962 q 279 951 274 954 q 296 928 288 940 q 308 903 304 916 q 315 876 312 891 q 317 848 317 861 q 313 827 315 837 q 308 810 312 818 q 298 793 304 802 q 285 777 293 785 q 267 766 277 772 q 247 758 258 761 q 226 755 236 755 q 205 755 216 755 z "},"":{"ha":662,"x_min":58,"x_max":606,"o":"m 473 765 l 444 789 l 438 817 q 456 849 441 836 q 484 876 471 863 q 505 905 498 890 q 511 940 511 921 l 506 951 q 499 939 500 945 q 495 926 498 932 q 488 916 492 921 q 479 905 484 910 q 468 899 473 902 q 456 897 463 897 q 442 897 449 897 q 429 897 435 897 l 385 924 q 370 947 377 935 q 359 972 363 959 q 354 1000 355 986 q 353 1029 353 1013 q 358 1046 355 1038 q 363 1062 361 1054 q 372 1078 366 1070 q 385 1092 377 1086 q 403 1103 393 1097 q 422 1111 412 1108 q 441 1114 431 1114 q 463 1114 452 1114 q 486 1108 473 1111 q 509 1101 498 1105 q 529 1089 519 1097 q 547 1073 538 1081 q 571 1039 560 1057 q 591 1002 582 1021 q 604 963 601 983 q 606 921 606 943 q 598 885 604 902 q 583 850 593 868 q 562 818 574 833 q 536 789 549 803 q 521 779 528 784 q 507 769 514 773 q 491 765 500 765 q 473 765 481 765 m 183 768 l 159 781 l 145 819 l 159 849 q 174 863 167 854 q 189 878 180 871 q 201 892 197 884 q 212 907 206 899 l 217 945 l 212 956 l 189 910 q 178 905 183 907 q 165 901 172 902 q 152 899 159 899 q 137 899 145 899 q 126 903 132 902 q 115 909 121 905 q 104 917 110 913 q 94 924 99 921 q 77 947 85 935 q 66 972 69 959 q 61 1000 64 986 q 58 1029 58 1013 q 64 1047 61 1038 q 69 1066 66 1057 q 79 1082 72 1076 q 94 1097 85 1089 q 111 1107 102 1103 q 132 1114 121 1111 q 153 1116 142 1116 q 175 1116 164 1116 q 197 1109 186 1114 q 220 1101 209 1105 q 240 1088 231 1097 q 258 1070 250 1078 q 282 1036 271 1054 q 300 1001 293 1019 q 309 963 307 983 q 312 921 312 943 q 304 888 309 905 q 290 856 298 871 q 271 826 282 841 q 247 798 260 811 q 232 785 239 792 q 217 774 225 779 q 201 769 209 770 q 183 768 194 768 z "},"":{"ha":694,"x_min":0,"x_max":0,"o":""},"":{"ha":694,"x_min":0,"x_max":0,"o":""},"":{"ha":1389,"x_min":0,"x_max":0,"o":""},"":{"ha":1389,"x_min":0,"x_max":0,"o":""},"":{"ha":694,"x_min":0,"x_max":0,"o":""},"":{"ha":694,"x_min":0,"x_max":0,"o":""},"":{"ha":694,"x_min":0,"x_max":0,"o":""},"":{"ha":1090,"x_min":152,"x_max":869,"o":"m 248 404 q 228 411 237 407 q 209 419 218 415 q 191 431 199 423 q 175 448 183 439 q 163 469 168 458 q 155 491 157 479 q 152 517 152 503 q 152 544 152 530 q 159 562 155 552 q 167 581 163 571 q 177 597 171 590 q 191 612 183 604 q 212 625 202 620 q 233 633 221 631 q 258 637 245 636 q 283 639 270 639 q 301 633 292 636 q 319 627 311 631 q 335 617 327 623 q 351 606 343 612 q 368 585 359 595 q 380 562 376 574 q 385 536 384 549 q 387 509 387 522 q 381 488 384 498 q 374 470 378 479 q 363 453 370 461 q 351 437 357 445 q 328 422 340 429 q 304 410 316 415 q 277 404 292 404 q 248 404 262 404 m 731 404 q 711 411 720 407 q 692 419 701 415 q 674 431 682 423 q 658 448 666 439 q 646 469 651 458 q 637 491 640 479 q 635 517 635 503 q 635 544 635 530 q 642 562 637 552 q 650 581 646 571 q 660 597 654 590 q 674 612 666 604 q 694 625 685 620 q 716 633 704 631 q 741 637 728 636 q 766 639 753 639 q 784 633 774 636 q 802 627 793 631 q 818 617 810 623 q 834 606 826 612 q 850 585 842 595 q 863 562 859 574 q 868 536 867 549 q 869 509 869 522 q 864 488 867 498 q 857 470 861 479 q 846 453 853 461 q 834 437 840 445 q 811 422 823 429 q 787 410 799 415 q 760 404 774 404 q 731 404 745 404 z "},"":{"ha":1381,"x_min":190,"x_max":1184,"o":"m 286 404 q 266 411 275 407 q 247 419 256 415 q 229 431 237 423 q 213 448 221 439 q 201 469 206 458 q 193 491 195 479 q 190 517 190 503 q 190 544 190 530 q 197 562 193 552 q 205 581 201 571 q 215 597 209 590 q 229 612 221 604 q 250 625 240 620 q 271 633 259 631 q 296 637 283 636 q 321 639 308 639 q 339 633 330 636 q 357 627 349 631 q 373 617 365 623 q 389 606 381 612 q 406 585 397 595 q 418 562 414 574 q 423 536 422 549 q 425 509 425 522 q 419 488 422 498 q 412 470 416 479 q 401 453 408 461 q 389 437 395 445 q 366 422 378 429 q 342 410 354 415 q 315 404 330 404 q 286 404 300 404 m 666 404 q 646 411 655 407 q 627 419 636 415 q 609 431 617 423 q 593 448 601 439 q 581 469 586 458 q 572 491 575 479 q 570 517 570 503 q 570 544 570 530 q 576 562 572 552 q 585 581 581 571 q 595 597 589 590 q 609 612 601 604 q 629 625 620 620 q 651 633 639 631 q 675 637 663 636 q 701 639 688 639 q 719 633 709 636 q 736 627 728 631 q 753 617 745 623 q 769 606 761 612 q 785 585 777 595 q 798 562 793 574 q 803 536 802 549 q 804 509 804 522 q 799 488 802 498 q 792 470 796 479 q 781 453 788 461 q 769 437 774 445 q 746 422 758 429 q 722 410 734 415 q 694 404 709 404 q 666 404 680 404 m 1046 404 q 1025 411 1035 407 q 1006 419 1016 415 q 989 431 997 423 q 972 448 981 439 q 960 469 966 458 q 952 491 955 479 q 949 517 949 503 q 949 544 949 530 q 956 562 952 552 q 964 581 960 571 q 975 597 968 590 q 989 612 981 604 q 1009 625 1000 620 q 1031 633 1019 631 q 1055 637 1043 636 q 1081 639 1067 639 q 1099 633 1089 636 q 1116 627 1108 631 q 1133 617 1124 623 q 1149 606 1141 612 q 1165 585 1157 595 q 1177 562 1173 574 q 1183 536 1181 549 q 1184 509 1184 522 q 1179 488 1181 498 q 1172 470 1176 479 q 1161 453 1168 461 q 1149 437 1154 445 q 1126 422 1138 429 q 1101 410 1114 415 q 1074 404 1089 404 q 1046 404 1059 404 z "},"":{"ha":694,"x_min":0,"x_max":0,"o":""},"":{"ha":694,"x_min":0,"x_max":0,"o":""},"":{"ha":694,"x_min":0,"x_max":0,"o":""},"":{"ha":694,"x_min":0,"x_max":0,"o":""},"":{"ha":694,"x_min":0,"x_max":0,"o":""},"":{"ha":694,"x_min":0,"x_max":0,"o":""},"":{"ha":694,"x_min":0,"x_max":0,"o":""},"":{"ha":694,"x_min":0,"x_max":0,"o":""},"":{"ha":1389,"x_min":0,"x_max":0,"o":""},"":{"ha":694,"x_min":0,"x_max":0,"o":""},"":{"ha":1389,"x_min":0,"x_max":0,"o":""},"":{"ha":1389,"x_min":0,"x_max":0,"o":""},"":{"ha":694,"x_min":0,"x_max":0,"o":""},"":{"ha":694,"x_min":0,"x_max":0,"o":""},"":{"ha":694,"x_min":0,"x_max":0,"o":""},"":{"ha":694,"x_min":0,"x_max":0,"o":""},"":{"ha":694,"x_min":0,"x_max":0,"o":""},"":{"ha":694,"x_min":0,"x_max":0,"o":""},"":{"ha":694,"x_min":0,"x_max":0,"o":""},"":{"ha":1389,"x_min":0,"x_max":0,"o":""},"":{"ha":694,"x_min":0,"x_max":0,"o":""},"":{"ha":694,"x_min":0,"x_max":0,"o":""},"":{"ha":694,"x_min":0,"x_max":0,"o":""},"":{"ha":694,"x_min":0,"x_max":0,"o":""},"":{"ha":694,"x_min":0,"x_max":0,"o":""},"":{"ha":694,"x_min":0,"x_max":0,"o":""},"":{"ha":694,"x_min":0,"x_max":0,"o":""},"":{"ha":694,"x_min":0,"x_max":0,"o":""},"":{"ha":694,"x_min":0,"x_max":0,"o":""},"":{"ha":694,"x_min":0,"x_max":0,"o":""},"":{"ha":694,"x_min":0,"x_max":0,"o":""},"":{"ha":694,"x_min":0,"x_max":0,"o":""},"":{"ha":694,"x_min":0,"x_max":0,"o":""},"":{"ha":694,"x_min":0,"x_max":0,"o":""},"":{"ha":694,"x_min":0,"x_max":0,"o":""},"":{"ha":694,"x_min":0,"x_max":0,"o":""},"":{"ha":694,"x_min":0,"x_max":0,"o":""},"":{"ha":694,"x_min":0,"x_max":0,"o":""},"":{"ha":694,"x_min":0,"x_max":0,"o":""},"":{"ha":694,"x_min":0,"x_max":0,"o":""},"":{"ha":694,"x_min":0,"x_max":0,"o":""},"":{"ha":694,"x_min":0,"x_max":0,"o":""},"":{"ha":694,"x_min":0,"x_max":0,"o":""},"":{"ha":694,"x_min":0,"x_max":0,"o":""},"":{"ha":694,"x_min":0,"x_max":0,"o":""},"":{"ha":694,"x_min":0,"x_max":0,"o":""},"":{"ha":694,"x_min":0,"x_max":0,"o":""},"":{"ha":694,"x_min":0,"x_max":0,"o":""},"":{"ha":694,"x_min":0,"x_max":0,"o":""},"":{"ha":694,"x_min":0,"x_max":0,"o":""},"":{"ha":694,"x_min":0,"x_max":0,"o":""},"":{"ha":694,"x_min":0,"x_max":0,"o":""},"":{"ha":694,"x_min":0,"x_max":0,"o":""},"":{"ha":694,"x_min":0,"x_max":0,"o":""},"":{"ha":694,"x_min":0,"x_max":0,"o":""},"":{"ha":694,"x_min":0,"x_max":0,"o":""},"":{"ha":694,"x_min":0,"x_max":0,"o":""},"":{"ha":694,"x_min":0,"x_max":0,"o":""},"":{"ha":694,"x_min":0,"x_max":0,"o":""},"":{"ha":694,"x_min":0,"x_max":0,"o":""},"":{"ha":694,"x_min":0,"x_max":0,"o":""},"":{"ha":694,"x_min":0,"x_max":0,"o":""},"":{"ha":694,"x_min":0,"x_max":0,"o":""},"":{"ha":694,"x_min":0,"x_max":0,"o":""},"":{"ha":694,"x_min":0,"x_max":0,"o":""},"":{"ha":694,"x_min":0,"x_max":0,"o":""},"":{"ha":694,"x_min":0,"x_max":0,"o":""},"":{"ha":694,"x_min":0,"x_max":0,"o":""},"":{"ha":694,"x_min":0,"x_max":0,"o":""},"":{"ha":694,"x_min":0,"x_max":0,"o":""},"":{"ha":694,"x_min":0,"x_max":0,"o":""},"":{"ha":694,"x_min":0,"x_max":0,"o":""},"":{"ha":694,"x_min":0,"x_max":0,"o":""},"":{"ha":1389,"x_min":0,"x_max":0,"o":""},"":{"ha":694,"x_min":0,"x_max":0,"o":""},"":{"ha":694,"x_min":0,"x_max":0,"o":""},"":{"ha":694,"x_min":0,"x_max":0,"o":""},"":{"ha":694,"x_min":0,"x_max":0,"o":""},"":{"ha":694,"x_min":0,"x_max":0,"o":""},"":{"ha":694,"x_min":0,"x_max":0,"o":""},"":{"ha":694,"x_min":0,"x_max":0,"o":""},"":{"ha":694,"x_min":0,"x_max":0,"o":""},"":{"ha":694,"x_min":0,"x_max":0,"o":""},"":{"ha":694,"x_min":0,"x_max":0,"o":""},"":{"ha":694,"x_min":0,"x_max":0,"o":""},"":{"ha":694,"x_min":0,"x_max":0,"o":""},"":{"ha":694,"x_min":0,"x_max":0,"o":""},"":{"ha":694,"x_min":0,"x_max":0,"o":""},"":{"ha":694,"x_min":0,"x_max":0,"o":""},"":{"ha":694,"x_min":0,"x_max":0,"o":""},"":{"ha":694,"x_min":0,"x_max":0,"o":""},"":{"ha":694,"x_min":0,"x_max":0,"o":""},"":{"ha":1389,"x_min":0,"x_max":0,"o":""},"":{"ha":694,"x_min":0,"x_max":0,"o":""},"":{"ha":694,"x_min":0,"x_max":0,"o":""},"":{"ha":694,"x_min":0,"x_max":0,"o":""},"":{"ha":694,"x_min":0,"x_max":0,"o":""},"":{"ha":694,"x_min":0,"x_max":0,"o":""},"":{"ha":694,"x_min":0,"x_max":0,"o":""},"":{"ha":694,"x_min":0,"x_max":0,"o":""},"":{"ha":694,"x_min":0,"x_max":0,"o":""},"":{"ha":694,"x_min":0,"x_max":0,"o":""},"":{"ha":694,"x_min":0,"x_max":0,"o":""},"":{"ha":1389,"x_min":0,"x_max":0,"o":""},"":{"ha":694,"x_min":0,"x_max":0,"o":""},"":{"ha":694,"x_min":0,"x_max":0,"o":""},"":{"ha":694,"x_min":0,"x_max":0,"o":""},"":{"ha":694,"x_min":0,"x_max":0,"o":""},"":{"ha":694,"x_min":0,"x_max":0,"o":""},"":{"ha":694,"x_min":0,"x_max":0,"o":""},"":{"ha":694,"x_min":0,"x_max":0,"o":""},"":{"ha":694,"x_min":0,"x_max":0,"o":""},"":{"ha":694,"x_min":0,"x_max":0,"o":""},"":{"ha":1389,"x_min":0,"x_max":0,"o":""},"":{"ha":694,"x_min":0,"x_max":0,"o":""},"":{"ha":694,"x_min":0,"x_max":0,"o":""},"":{"ha":694,"x_min":0,"x_max":0,"o":""},"":{"ha":694,"x_min":0,"x_max":0,"o":""},"":{"ha":694,"x_min":0,"x_max":0,"o":""},"":{"ha":694,"x_min":0,"x_max":0,"o":""},"":{"ha":694,"x_min":0,"x_max":0,"o":""},"":{"ha":694,"x_min":0,"x_max":0,"o":""},"":{"ha":694,"x_min":0,"x_max":0,"o":""},"":{"ha":694,"x_min":0,"x_max":0,"o":""},"":{"ha":694,"x_min":0,"x_max":0,"o":""},"":{"ha":694,"x_min":0,"x_max":0,"o":""},"":{"ha":694,"x_min":0,"x_max":0,"o":""},"":{"ha":694,"x_min":0,"x_max":0,"o":""},"":{"ha":694,"x_min":0,"x_max":0,"o":""},"":{"ha":694,"x_min":0,"x_max":0,"o":""},"":{"ha":694,"x_min":0,"x_max":0,"o":""},"":{"ha":694,"x_min":0,"x_max":0,"o":""},"":{"ha":694,"x_min":0,"x_max":0,"o":""},"":{"ha":694,"x_min":0,"x_max":0,"o":""},"":{"ha":694,"x_min":0,"x_max":0,"o":""},"":{"ha":694,"x_min":0,"x_max":0,"o":""},"":{"ha":694,"x_min":0,"x_max":0,"o":""},"":{"ha":694,"x_min":0,"x_max":0,"o":""},"":{"ha":694,"x_min":0,"x_max":0,"o":""},"":{"ha":694,"x_min":0,"x_max":0,"o":""},"":{"ha":1389,"x_min":0,"x_max":0,"o":""},"":{"ha":1389,"x_min":0,"x_max":0,"o":""},"":{"ha":1389,"x_min":0,"x_max":0,"o":""},"":{"ha":1389,"x_min":0,"x_max":0,"o":""},"":{"ha":1389,"x_min":0,"x_max":0,"o":""},"":{"ha":1389,"x_min":0,"x_max":0,"o":""},"":{"ha":1389,"x_min":0,"x_max":0,"o":""},"":{"ha":1389,"x_min":0,"x_max":0,"o":""},"":{"ha":1389,"x_min":0,"x_max":0,"o":""},"":{"ha":1389,"x_min":0,"x_max":0,"o":""},"":{"ha":1389,"x_min":0,"x_max":0,"o":""},"":{"ha":1389,"x_min":0,"x_max":0,"o":""},"":{"ha":1389,"x_min":0,"x_max":0,"o":""},"":{"ha":1389,"x_min":0,"x_max":0,"o":""},"":{"ha":1389,"x_min":0,"x_max":0,"o":""},"":{"ha":1389,"x_min":0,"x_max":0,"o":""},"":{"ha":1389,"x_min":0,"x_max":0,"o":""},"":{"ha":1389,"x_min":0,"x_max":0,"o":""},"":{"ha":1389,"x_min":0,"x_max":0,"o":""},"":{"ha":1389,"x_min":0,"x_max":0,"o":""},"":{"ha":1389,"x_min":0,"x_max":0,"o":""},"":{"ha":1389,"x_min":0,"x_max":0,"o":""},"":{"ha":1389,"x_min":0,"x_max":0,"o":""},"":{"ha":1389,"x_min":0,"x_max":0,"o":""},"":{"ha":1389,"x_min":0,"x_max":0,"o":""},"":{"ha":1389,"x_min":0,"x_max":0,"o":""},"":{"ha":1389,"x_min":0,"x_max":0,"o":""},"":{"ha":1389,"x_min":0,"x_max":0,"o":""},"":{"ha":1389,"x_min":0,"x_max":0,"o":""},"":{"ha":1389,"x_min":0,"x_max":0,"o":""},"":{"ha":1389,"x_min":0,"x_max":0,"o":""},"":{"ha":1389,"x_min":0,"x_max":0,"o":""},"":{"ha":1389,"x_min":0,"x_max":0,"o":""},"":{"ha":1389,"x_min":0,"x_max":0,"o":""},"":{"ha":1389,"x_min":0,"x_max":0,"o":""},"":{"ha":1389,"x_min":0,"x_max":0,"o":""},"":{"ha":1389,"x_min":0,"x_max":0,"o":""},"":{"ha":1389,"x_min":0,"x_max":0,"o":""},"":{"ha":1389,"x_min":0,"x_max":0,"o":""},"":{"ha":694,"x_min":0,"x_max":0,"o":""},"":{"ha":694,"x_min":0,"x_max":0,"o":""},"":{"ha":694,"x_min":0,"x_max":0,"o":""},"":{"ha":694,"x_min":0,"x_max":0,"o":""},"":{"ha":694,"x_min":0,"x_max":0,"o":""},"":{"ha":694,"x_min":0,"x_max":0,"o":""},"":{"ha":694,"x_min":0,"x_max":0,"o":""},"":{"ha":694,"x_min":0,"x_max":0,"o":""},"":{"ha":694,"x_min":0,"x_max":0,"o":""},"":{"ha":694,"x_min":0,"x_max":0,"o":""},"":{"ha":694,"x_min":0,"x_max":0,"o":""},"":{"ha":694,"x_min":0,"x_max":0,"o":""},"":{"ha":694,"x_min":0,"x_max":0,"o":""},"":{"ha":694,"x_min":0,"x_max":0,"o":""},"":{"ha":694,"x_min":0,"x_max":0,"o":""},"":{"ha":694,"x_min":0,"x_max":0,"o":""},"":{"ha":694,"x_min":0,"x_max":0,"o":""},"":{"ha":694,"x_min":0,"x_max":0,"o":""},"":{"ha":694,"x_min":0,"x_max":0,"o":""},"":{"ha":694,"x_min":0,"x_max":0,"o":""},"":{"ha":694,"x_min":0,"x_max":0,"o":""},"":{"ha":694,"x_min":0,"x_max":0,"o":""},"":{"ha":694,"x_min":0,"x_max":0,"o":""},"":{"ha":694,"x_min":0,"x_max":0,"o":""},"":{"ha":694,"x_min":0,"x_max":0,"o":""},"":{"ha":694,"x_min":0,"x_max":0,"o":""},"":{"ha":694,"x_min":0,"x_max":0,"o":""},"":{"ha":694,"x_min":0,"x_max":0,"o":""},"":{"ha":694,"x_min":0,"x_max":0,"o":""},"":{"ha":694,"x_min":0,"x_max":0,"o":""},"":{"ha":694,"x_min":0,"x_max":0,"o":""},"":{"ha":694,"x_min":0,"x_max":0,"o":""},"":{"ha":694,"x_min":0,"x_max":0,"o":""},"":{"ha":694,"x_min":0,"x_max":0,"o":""},"":{"ha":694,"x_min":0,"x_max":0,"o":""},"":{"ha":694,"x_min":0,"x_max":0,"o":""},"":{"ha":694,"x_min":0,"x_max":0,"o":""},"":{"ha":694,"x_min":0,"x_max":0,"o":""},"":{"ha":694,"x_min":0,"x_max":0,"o":""},"":{"ha":694,"x_min":0,"x_max":0,"o":""},"":{"ha":694,"x_min":0,"x_max":0,"o":""},"":{"ha":694,"x_min":0,"x_max":0,"o":""},"":{"ha":694,"x_min":0,"x_max":0,"o":""},"":{"ha":694,"x_min":0,"x_max":0,"o":""},"":{"ha":694,"x_min":0,"x_max":0,"o":""},"":{"ha":694,"x_min":0,"x_max":0,"o":""},"":{"ha":694,"x_min":0,"x_max":0,"o":""},"":{"ha":694,"x_min":0,"x_max":0,"o":""},"":{"ha":694,"x_min":0,"x_max":0,"o":""},"":{"ha":694,"x_min":0,"x_max":0,"o":""},"":{"ha":694,"x_min":0,"x_max":0,"o":""},"":{"ha":694,"x_min":0,"x_max":0,"o":""},"":{"ha":694,"x_min":0,"x_max":0,"o":""},"":{"ha":694,"x_min":0,"x_max":0,"o":""},"":{"ha":694,"x_min":0,"x_max":0,"o":""},"":{"ha":694,"x_min":0,"x_max":0,"o":""},"":{"ha":694,"x_min":0,"x_max":0,"o":""},"":{"ha":694,"x_min":0,"x_max":0,"o":""},"":{"ha":694,"x_min":0,"x_max":0,"o":""},"":{"ha":694,"x_min":0,"x_max":0,"o":""},"":{"ha":694,"x_min":0,"x_max":0,"o":""},"":{"ha":694,"x_min":0,"x_max":0,"o":""},"":{"ha":1389,"x_min":0,"x_max":0,"o":""},"":{"ha":694,"x_min":0,"x_max":0,"o":""},"":{"ha":1389,"x_min":0,"x_max":0,"o":""},"":{"ha":694,"x_min":0,"x_max":0,"o":""},"":{"ha":694,"x_min":0,"x_max":0,"o":""},"":{"ha":694,"x_min":0,"x_max":0,"o":""},"":{"ha":694,"x_min":0,"x_max":0,"o":""},"":{"ha":694,"x_min":0,"x_max":0,"o":""},"":{"ha":694,"x_min":0,"x_max":0,"o":""},"":{"ha":694,"x_min":0,"x_max":0,"o":""},"":{"ha":694,"x_min":0,"x_max":0,"o":""},"":{"ha":694,"x_min":0,"x_max":0,"o":""},"":{"ha":694,"x_min":0,"x_max":0,"o":""},"":{"ha":694,"x_min":0,"x_max":0,"o":""},"":{"ha":694,"x_min":0,"x_max":0,"o":""},"":{"ha":694,"x_min":0,"x_max":0,"o":""},"":{"ha":694,"x_min":0,"x_max":0,"o":""},"":{"ha":694,"x_min":0,"x_max":0,"o":""},"":{"ha":694,"x_min":0,"x_max":0,"o":""},"":{"ha":694,"x_min":0,"x_max":0,"o":""},"":{"ha":694,"x_min":0,"x_max":0,"o":""},"":{"ha":694,"x_min":0,"x_max":0,"o":""},"":{"ha":694,"x_min":0,"x_max":0,"o":""},"":{"ha":694,"x_min":0,"x_max":0,"o":""},"":{"ha":694,"x_min":0,"x_max":0,"o":""},"":{"ha":1389,"x_min":0,"x_max":0,"o":""},"":{"ha":694,"x_min":0,"x_max":0,"o":""},"":{"ha":1389,"x_min":0,"x_max":0,"o":""},"":{"ha":1389,"x_min":0,"x_max":0,"o":""},"":{"ha":694,"x_min":0,"x_max":0,"o":""},"":{"ha":694,"x_min":0,"x_max":0,"o":""},"":{"ha":694,"x_min":0,"x_max":0,"o":""},"":{"ha":1389,"x_min":0,"x_max":0,"o":""},"":{"ha":1389,"x_min":0,"x_max":0,"o":""},"":{"ha":694,"x_min":0,"x_max":0,"o":""},"":{"ha":694,"x_min":0,"x_max":0,"o":""},"":{"ha":1389,"x_min":0,"x_max":0,"o":""},"":{"ha":694,"x_min":0,"x_max":0,"o":""},"":{"ha":694,"x_min":0,"x_max":0,"o":""},"":{"ha":694,"x_min":0,"x_max":0,"o":""},"":{"ha":694,"x_min":0,"x_max":0,"o":""},"":{"ha":694,"x_min":0,"x_max":0,"o":""},"":{"ha":1389,"x_min":0,"x_max":0,"o":""},"":{"ha":694,"x_min":0,"x_max":0,"o":""},"":{"ha":694,"x_min":0,"x_max":0,"o":""},"":{"ha":694,"x_min":0,"x_max":0,"o":""},"":{"ha":694,"x_min":0,"x_max":0,"o":""},"":{"ha":694,"x_min":0,"x_max":0,"o":""},"":{"ha":694,"x_min":0,"x_max":0,"o":""},"":{"ha":694,"x_min":0,"x_max":0,"o":""},"":{"ha":694,"x_min":0,"x_max":0,"o":""},"":{"ha":1389,"x_min":0,"x_max":0,"o":""},"":{"ha":694,"x_min":0,"x_max":0,"o":""},"":{"ha":694,"x_min":0,"x_max":0,"o":""},"":{"ha":1389,"x_min":0,"x_max":0,"o":""},"":{"ha":1389,"x_min":0,"x_max":0,"o":""},"":{"ha":1389,"x_min":0,"x_max":0,"o":""},"":{"ha":1389,"x_min":0,"x_max":0,"o":""},"":{"ha":694,"x_min":0,"x_max":0,"o":""},"":{"ha":694,"x_min":0,"x_max":0,"o":""},"":{"ha":694,"x_min":0,"x_max":0,"o":""},"":{"ha":694,"x_min":0,"x_max":0,"o":""},"":{"ha":678,"x_min":151,"x_max":576,"o":"m 208 -114 l 167 -85 l 151 -45 l 151 1013 q 155 1028 153 1019 q 160 1044 156 1038 q 170 1056 164 1050 q 180 1069 175 1062 q 193 1075 186 1072 q 205 1082 199 1078 q 217 1085 210 1085 q 232 1085 224 1085 l 275 1059 l 294 1016 l 294 -47 q 290 -62 292 -54 q 285 -75 289 -69 q 277 -86 281 -81 q 267 -98 273 -91 q 255 -105 262 -100 q 240 -112 248 -110 q 224 -114 232 -114 q 208 -114 216 -114 m 490 -114 l 449 -85 l 433 -45 l 433 1013 q 437 1028 435 1019 q 442 1044 438 1038 q 452 1056 446 1050 q 463 1069 457 1062 q 475 1075 468 1072 q 487 1082 481 1078 q 499 1085 492 1085 q 514 1085 506 1085 l 557 1059 l 576 1016 l 576 -47 q 572 -62 574 -54 q 567 -75 571 -69 q 559 -86 563 -81 q 549 -98 555 -91 q 537 -105 544 -100 q 522 -112 530 -110 q 506 -114 514 -114 q 490 -114 498 -114 z "},"":{"ha":694,"x_min":0,"x_max":0,"o":""},"":{"ha":1389,"x_min":0,"x_max":0,"o":""},"":{"ha":1389,"x_min":0,"x_max":0,"o":""},"":{"ha":1389,"x_min":0,"x_max":0,"o":""},"":{"ha":1389,"x_min":0,"x_max":0,"o":""},"":{"ha":1389,"x_min":0,"x_max":0,"o":""},"":{"ha":1389,"x_min":0,"x_max":0,"o":""},"":{"ha":694,"x_min":0,"x_max":0,"o":""},"":{"ha":1389,"x_min":0,"x_max":0,"o":""},"":{"ha":694,"x_min":0,"x_max":0,"o":""},"":{"ha":694,"x_min":0,"x_max":0,"o":""},"":{"ha":694,"x_min":0,"x_max":0,"o":""},"":{"ha":694,"x_min":0,"x_max":0,"o":""},"":{"ha":694,"x_min":0,"x_max":0,"o":""},"":{"ha":1389,"x_min":0,"x_max":0,"o":""},"":{"ha":1389,"x_min":0,"x_max":0,"o":""},"":{"ha":694,"x_min":0,"x_max":0,"o":""},"":{"ha":694,"x_min":0,"x_max":0,"o":""},"":{"ha":694,"x_min":0,"x_max":0,"o":""},"":{"ha":694,"x_min":0,"x_max":0,"o":""},"":{"ha":694,"x_min":0,"x_max":0,"o":""},"":{"ha":694,"x_min":0,"x_max":0,"o":""},"":{"ha":694,"x_min":0,"x_max":0,"o":""},"":{"ha":1389,"x_min":0,"x_max":0,"o":""},"":{"ha":694,"x_min":0,"x_max":0,"o":""},"":{"ha":694,"x_min":0,"x_max":0,"o":""},"":{"ha":694,"x_min":0,"x_max":0,"o":""},"":{"ha":694,"x_min":0,"x_max":0,"o":""},"":{"ha":694,"x_min":0,"x_max":0,"o":""},"":{"ha":694,"x_min":0,"x_max":0,"o":""},"":{"ha":694,"x_min":0,"x_max":0,"o":""},"":{"ha":694,"x_min":0,"x_max":0,"o":""},"":{"ha":694,"x_min":0,"x_max":0,"o":""},"":{"ha":694,"x_min":0,"x_max":0,"o":""},"":{"ha":694,"x_min":0,"x_max":0,"o":""},"":{"ha":694,"x_min":0,"x_max":0,"o":""},"":{"ha":694,"x_min":0,"x_max":0,"o":""},"":{"ha":694,"x_min":0,"x_max":0,"o":""},"":{"ha":694,"x_min":0,"x_max":0,"o":""},"":{"ha":694,"x_min":0,"x_max":0,"o":""},"":{"ha":694,"x_min":0,"x_max":0,"o":""},"":{"ha":694,"x_min":0,"x_max":0,"o":""},"":{"ha":694,"x_min":0,"x_max":0,"o":""},"":{"ha":694,"x_min":0,"x_max":0,"o":""},"":{"ha":1389,"x_min":0,"x_max":0,"o":""},"":{"ha":694,"x_min":0,"x_max":0,"o":""},"":{"ha":694,"x_min":0,"x_max":0,"o":""},"":{"ha":694,"x_min":0,"x_max":0,"o":""},"":{"ha":694,"x_min":0,"x_max":0,"o":""},"":{"ha":694,"x_min":0,"x_max":0,"o":""},"":{"ha":694,"x_min":0,"x_max":0,"o":""},"":{"ha":694,"x_min":0,"x_max":0,"o":""},"":{"ha":694,"x_min":0,"x_max":0,"o":""},"":{"ha":694,"x_min":0,"x_max":0,"o":""},"":{"ha":694,"x_min":0,"x_max":0,"o":""},"":{"ha":694,"x_min":0,"x_max":0,"o":""},"":{"ha":694,"x_min":0,"x_max":0,"o":""},"":{"ha":694,"x_min":0,"x_max":0,"o":""},"":{"ha":1096,"x_min":92,"x_max":1004,"o":"m 163 193 l 118 212 q 102 227 110 220 q 94 243 95 233 q 92 262 92 252 q 92 282 92 271 l 118 313 q 132 321 125 316 q 149 330 140 327 q 170 332 159 332 q 189 335 182 332 l 902 335 q 921 332 910 332 q 941 330 932 332 q 958 321 951 327 q 972 313 966 316 q 984 302 977 308 q 996 291 991 297 q 1000 277 1000 285 q 1004 263 1000 269 q 1000 250 1000 258 q 996 235 1000 241 q 984 222 991 228 q 972 212 977 217 l 928 193 l 163 193 m 208 548 l 163 567 q 147 582 155 575 q 138 598 140 589 q 137 617 137 608 q 137 637 137 627 l 163 670 q 177 678 170 673 q 194 686 184 684 q 215 689 203 689 q 233 692 227 689 l 857 692 q 876 689 865 689 q 897 686 887 689 q 913 678 906 684 q 928 670 921 673 q 943 655 936 662 q 953 639 951 648 q 955 620 955 629 q 955 600 955 610 l 928 567 l 883 548 l 208 548 m 187 -49 q 176 -43 182 -46 q 165 -38 171 -41 q 156 -31 160 -35 q 146 -22 152 -27 q 138 -8 141 -16 q 134 7 136 0 q 133 22 133 14 q 133 38 133 30 q 281 281 198 164 q 448 515 365 399 q 615 747 530 631 q 784 979 700 863 q 798 989 792 985 q 811 996 803 993 q 827 1000 819 998 q 842 1001 834 1001 q 854 997 848 998 q 868 993 861 996 q 880 985 875 990 q 891 974 886 979 q 899 962 897 968 q 903 948 902 955 q 906 935 905 941 q 907 920 907 928 q 745 683 831 799 q 576 448 659 567 q 409 211 492 330 q 252 -33 326 92 q 239 -42 247 -38 q 222 -47 231 -46 q 205 -49 214 -49 q 187 -49 195 -49 z "},"":{"ha":1389,"x_min":0,"x_max":0,"o":""},"":{"ha":694,"x_min":0,"x_max":0,"o":""},"":{"ha":694,"x_min":0,"x_max":0,"o":""},"":{"ha":694,"x_min":0,"x_max":0,"o":""},"":{"ha":694,"x_min":0,"x_max":0,"o":""},"":{"ha":895,"x_min":98,"x_max":819,"o":"m 693 353 q 537 390 620 353 q 401 458 454 427 q 296 524 347 490 q 190 591 244 559 q 163 608 176 600 q 138 625 151 616 q 113 643 125 633 q 98 663 102 652 q 189 761 118 720 q 321 845 260 802 q 449 931 382 888 q 578 1017 515 974 q 604 1036 589 1025 q 633 1055 618 1046 q 662 1072 647 1065 q 696 1082 677 1080 q 713 1082 705 1082 q 730 1080 722 1082 q 746 1076 738 1077 q 761 1070 754 1074 q 774 1062 768 1066 q 786 1053 781 1058 q 792 1042 791 1047 q 796 1031 793 1036 q 698 935 768 975 q 566 850 628 894 q 438 764 503 807 q 309 678 373 720 l 696 469 q 718 456 707 463 q 736 443 728 450 q 749 427 745 435 q 758 410 754 418 q 756 398 758 403 q 751 388 754 393 q 745 377 749 382 q 735 368 742 372 l 693 353 m 768 -90 l 212 -90 l 179 -71 q 171 -60 176 -65 q 163 -47 165 -54 q 160 -33 160 -41 q 157 -19 160 -24 q 160 -5 160 -14 q 163 9 160 3 q 171 20 165 15 q 179 31 176 26 q 190 39 184 34 q 202 47 195 45 q 217 50 209 50 q 231 53 225 50 l 749 53 q 762 50 754 50 q 777 47 770 50 q 789 39 784 45 q 800 31 795 34 l 819 0 q 819 -20 819 -11 q 818 -39 819 -30 q 811 -56 817 -49 q 800 -71 806 -62 l 768 -90 m 768 165 l 212 165 l 179 184 q 171 195 176 190 q 163 208 165 201 q 160 222 160 214 q 157 236 160 231 q 160 250 160 241 q 163 264 160 258 q 171 275 165 270 q 179 286 176 281 q 190 294 184 289 q 202 302 195 300 q 217 305 209 305 q 231 308 225 305 l 749 308 q 762 305 754 305 q 777 302 770 305 q 789 294 784 300 q 800 286 795 289 l 819 255 q 819 235 819 244 q 818 216 819 225 q 811 199 817 206 q 800 184 806 193 l 768 165 z "},"":{"ha":906,"x_min":98,"x_max":819,"o":"m 224 353 l 182 368 q 172 377 175 372 q 165 388 168 382 q 161 398 163 393 q 159 410 159 403 q 168 427 163 418 q 180 443 172 435 q 199 456 189 450 q 221 469 210 463 l 608 678 q 479 764 544 720 q 351 850 414 807 q 219 935 289 894 q 121 1031 149 975 q 125 1042 123 1036 q 131 1053 126 1047 q 142 1062 136 1058 q 156 1070 149 1066 q 171 1076 163 1074 q 187 1080 179 1077 q 203 1082 195 1082 q 221 1082 212 1082 q 255 1072 240 1080 q 284 1055 270 1065 q 313 1036 298 1046 q 339 1017 328 1025 q 468 931 401 974 q 595 845 534 888 q 728 761 656 802 q 819 663 799 720 q 804 643 815 652 q 779 625 792 633 q 753 608 766 616 q 727 591 741 600 q 621 524 673 559 q 516 458 570 490 q 380 390 463 427 q 224 353 297 353 m 149 -90 l 117 -71 q 106 -56 111 -62 q 99 -39 100 -49 q 98 -20 98 -30 q 98 0 98 -11 l 117 31 q 127 39 122 34 q 140 47 133 45 q 155 50 146 50 q 168 53 163 50 l 686 53 q 700 50 692 50 q 715 47 708 50 q 727 39 722 45 q 738 31 732 34 q 746 20 741 26 q 754 9 751 15 q 757 -5 757 3 q 760 -19 757 -14 q 757 -33 757 -24 q 754 -47 757 -41 q 746 -60 751 -54 q 738 -71 741 -65 l 705 -90 l 149 -90 m 149 165 l 117 184 q 106 199 111 193 q 99 216 100 206 q 98 235 98 225 q 98 255 98 244 l 117 286 q 127 294 122 289 q 140 302 133 300 q 155 305 146 305 q 168 308 163 305 l 686 308 q 700 305 692 305 q 715 302 708 305 q 727 294 722 300 q 738 286 732 289 q 746 275 741 281 q 754 264 751 270 q 757 250 757 258 q 760 236 757 241 q 757 222 757 231 q 754 208 757 214 q 746 195 751 201 q 738 184 741 190 l 705 165 l 149 165 z "},"":{"ha":694,"x_min":0,"x_max":0,"o":""},"":{"ha":694,"x_min":0,"x_max":0,"o":""},"":{"ha":1389,"x_min":0,"x_max":0,"o":""},"":{"ha":1389,"x_min":0,"x_max":0,"o":""},"":{"ha":694,"x_min":0,"x_max":0,"o":""},"":{"ha":694,"x_min":0,"x_max":0,"o":""},"":{"ha":694,"x_min":0,"x_max":0,"o":""},"":{"ha":694,"x_min":0,"x_max":0,"o":""},"":{"ha":694,"x_min":0,"x_max":0,"o":""},"":{"ha":694,"x_min":0,"x_max":0,"o":""},"":{"ha":694,"x_min":0,"x_max":0,"o":""},"":{"ha":694,"x_min":0,"x_max":0,"o":""},"":{"ha":694,"x_min":0,"x_max":0,"o":""},"":{"ha":694,"x_min":0,"x_max":0,"o":""},"":{"ha":694,"x_min":0,"x_max":0,"o":""},"":{"ha":694,"x_min":0,"x_max":0,"o":""},"":{"ha":694,"x_min":0,"x_max":0,"o":""},"":{"ha":694,"x_min":0,"x_max":0,"o":""},"":{"ha":694,"x_min":0,"x_max":0,"o":""},"":{"ha":694,"x_min":0,"x_max":0,"o":""},"":{"ha":694,"x_min":0,"x_max":0,"o":""},"":{"ha":694,"x_min":0,"x_max":0,"o":""},"":{"ha":694,"x_min":0,"x_max":0,"o":""},"":{"ha":694,"x_min":0,"x_max":0,"o":""},"":{"ha":694,"x_min":0,"x_max":0,"o":""},"":{"ha":694,"x_min":0,"x_max":0,"o":""},"":{"ha":1389,"x_min":0,"x_max":0,"o":""},"":{"ha":1389,"x_min":0,"x_max":0,"o":""},"":{"ha":694,"x_min":0,"x_max":0,"o":""},"":{"ha":694,"x_min":0,"x_max":0,"o":""},"":{"ha":1389,"x_min":0,"x_max":0,"o":""},"":{"ha":1389,"x_min":0,"x_max":0,"o":""},"":{"ha":694,"x_min":0,"x_max":0,"o":""},"":{"ha":694,"x_min":0,"x_max":0,"o":""},"":{"ha":694,"x_min":0,"x_max":0,"o":""},"":{"ha":694,"x_min":0,"x_max":0,"o":""},"":{"ha":694,"x_min":0,"x_max":0,"o":""},"":{"ha":694,"x_min":0,"x_max":0,"o":""},"":{"ha":694,"x_min":0,"x_max":0,"o":""},"":{"ha":694,"x_min":0,"x_max":0,"o":""},"":{"ha":694,"x_min":0,"x_max":0,"o":""},"":{"ha":694,"x_min":0,"x_max":0,"o":""},"":{"ha":694,"x_min":0,"x_max":0,"o":""},"":{"ha":694,"x_min":0,"x_max":0,"o":""},"":{"ha":694,"x_min":0,"x_max":0,"o":""},"":{"ha":694,"x_min":0,"x_max":0,"o":""},"":{"ha":694,"x_min":0,"x_max":0,"o":""},"":{"ha":694,"x_min":0,"x_max":0,"o":""},"":{"ha":694,"x_min":0,"x_max":0,"o":""},"":{"ha":694,"x_min":0,"x_max":0,"o":""},"":{"ha":694,"x_min":0,"x_max":0,"o":""},"":{"ha":694,"x_min":0,"x_max":0,"o":""},"":{"ha":694,"x_min":0,"x_max":0,"o":""},"":{"ha":694,"x_min":0,"x_max":0,"o":""},"":{"ha":694,"x_min":0,"x_max":0,"o":""},"":{"ha":694,"x_min":0,"x_max":0,"o":""},"":{"ha":694,"x_min":0,"x_max":0,"o":""},"":{"ha":694,"x_min":0,"x_max":0,"o":""},"":{"ha":694,"x_min":0,"x_max":0,"o":""},"":{"ha":694,"x_min":0,"x_max":0,"o":""},"":{"ha":694,"x_min":0,"x_max":0,"o":""},"":{"ha":1389,"x_min":0,"x_max":0,"o":""},"":{"ha":694,"x_min":0,"x_max":0,"o":""},"":{"ha":694,"x_min":0,"x_max":0,"o":""},"":{"ha":694,"x_min":0,"x_max":0,"o":""},"":{"ha":694,"x_min":0,"x_max":0,"o":""},"":{"ha":694,"x_min":0,"x_max":0,"o":""},"":{"ha":694,"x_min":0,"x_max":0,"o":""},"":{"ha":694,"x_min":0,"x_max":0,"o":""},"":{"ha":694,"x_min":0,"x_max":0,"o":""},"":{"ha":694,"x_min":0,"x_max":0,"o":""},"":{"ha":694,"x_min":0,"x_max":0,"o":""},"":{"ha":694,"x_min":0,"x_max":0,"o":""},"":{"ha":694,"x_min":0,"x_max":0,"o":""},"":{"ha":694,"x_min":0,"x_max":0,"o":""},"":{"ha":694,"x_min":0,"x_max":0,"o":""},"":{"ha":694,"x_min":0,"x_max":0,"o":""},"":{"ha":694,"x_min":0,"x_max":0,"o":""},"":{"ha":694,"x_min":0,"x_max":0,"o":""},"":{"ha":694,"x_min":0,"x_max":0,"o":""},"":{"ha":694,"x_min":0,"x_max":0,"o":""},"":{"ha":694,"x_min":0,"x_max":0,"o":""},"":{"ha":694,"x_min":0,"x_max":0,"o":""},"":{"ha":694,"x_min":0,"x_max":0,"o":""},"":{"ha":694,"x_min":0,"x_max":0,"o":""},"":{"ha":694,"x_min":0,"x_max":0,"o":""},"":{"ha":694,"x_min":0,"x_max":0,"o":""},"":{"ha":1389,"x_min":0,"x_max":0,"o":""},"":{"ha":694,"x_min":0,"x_max":0,"o":""},"":{"ha":694,"x_min":0,"x_max":0,"o":""},"":{"ha":694,"x_min":0,"x_max":0,"o":""},"":{"ha":694,"x_min":0,"x_max":0,"o":""},"":{"ha":694,"x_min":0,"x_max":0,"o":""},"":{"ha":694,"x_min":0,"x_max":0,"o":""},"":{"ha":694,"x_min":0,"x_max":0,"o":""},"":{"ha":694,"x_min":0,"x_max":0,"o":""},"":{"ha":694,"x_min":0,"x_max":0,"o":""},"":{"ha":694,"x_min":0,"x_max":0,"o":""},"":{"ha":694,"x_min":0,"x_max":0,"o":""},"":{"ha":694,"x_min":0,"x_max":0,"o":""},"":{"ha":694,"x_min":0,"x_max":0,"o":""},"":{"ha":694,"x_min":0,"x_max":0,"o":""},"":{"ha":694,"x_min":0,"x_max":0,"o":""},"":{"ha":694,"x_min":0,"x_max":0,"o":""},"":{"ha":694,"x_min":0,"x_max":0,"o":""},"":{"ha":694,"x_min":0,"x_max":0,"o":""},"":{"ha":694,"x_min":0,"x_max":0,"o":""},"":{"ha":694,"x_min":0,"x_max":0,"o":""},"":{"ha":694,"x_min":0,"x_max":0,"o":""},"":{"ha":694,"x_min":0,"x_max":0,"o":""},"":{"ha":694,"x_min":0,"x_max":0,"o":""},"":{"ha":694,"x_min":0,"x_max":0,"o":""},"":{"ha":694,"x_min":0,"x_max":0,"o":""},"":{"ha":694,"x_min":0,"x_max":0,"o":""},"":{"ha":694,"x_min":0,"x_max":0,"o":""},"":{"ha":694,"x_min":0,"x_max":0,"o":""},"":{"ha":694,"x_min":0,"x_max":0,"o":""},"":{"ha":694,"x_min":0,"x_max":0,"o":""},"":{"ha":694,"x_min":0,"x_max":0,"o":""},"":{"ha":694,"x_min":0,"x_max":0,"o":""},"":{"ha":694,"x_min":0,"x_max":0,"o":""},"":{"ha":694,"x_min":0,"x_max":0,"o":""},"":{"ha":694,"x_min":0,"x_max":0,"o":""},"":{"ha":694,"x_min":0,"x_max":0,"o":""},"":{"ha":694,"x_min":0,"x_max":0,"o":""},"":{"ha":694,"x_min":0,"x_max":0,"o":""},"":{"ha":694,"x_min":0,"x_max":0,"o":""},"":{"ha":694,"x_min":0,"x_max":0,"o":""},"":{"ha":694,"x_min":0,"x_max":0,"o":""},"":{"ha":694,"x_min":0,"x_max":0,"o":""},"":{"ha":694,"x_min":0,"x_max":0,"o":""},"":{"ha":694,"x_min":0,"x_max":0,"o":""},"":{"ha":694,"x_min":0,"x_max":0,"o":""},"":{"ha":694,"x_min":0,"x_max":0,"o":""},"":{"ha":694,"x_min":0,"x_max":0,"o":""},"":{"ha":694,"x_min":0,"x_max":0,"o":""},"":{"ha":694,"x_min":0,"x_max":0,"o":""},"":{"ha":694,"x_min":0,"x_max":0,"o":""},"":{"ha":694,"x_min":0,"x_max":0,"o":""},"":{"ha":694,"x_min":0,"x_max":0,"o":""},"":{"ha":1389,"x_min":0,"x_max":0,"o":""},"":{"ha":694,"x_min":0,"x_max":0,"o":""},"":{"ha":694,"x_min":0,"x_max":0,"o":""},"":{"ha":1389,"x_min":0,"x_max":0,"o":""},"":{"ha":1389,"x_min":0,"x_max":0,"o":""},"":{"ha":1389,"x_min":0,"x_max":0,"o":""},"":{"ha":1389,"x_min":0,"x_max":0,"o":""},"":{"ha":1389,"x_min":0,"x_max":0,"o":""},"":{"ha":1389,"x_min":0,"x_max":0,"o":""},"":{"ha":1389,"x_min":0,"x_max":0,"o":""},"":{"ha":1389,"x_min":0,"x_max":0,"o":""},"":{"ha":1389,"x_min":0,"x_max":0,"o":""},"":{"ha":1389,"x_min":0,"x_max":0,"o":""},"":{"ha":1389,"x_min":0,"x_max":0,"o":""},"":{"ha":1389,"x_min":0,"x_max":0,"o":""},"":{"ha":1389,"x_min":0,"x_max":0,"o":""},"":{"ha":1389,"x_min":0,"x_max":0,"o":""},"":{"ha":1389,"x_min":0,"x_max":0,"o":""},"":{"ha":1389,"x_min":0,"x_max":0,"o":""},"":{"ha":1389,"x_min":0,"x_max":0,"o":""},"":{"ha":1389,"x_min":0,"x_max":0,"o":""},"":{"ha":1389,"x_min":0,"x_max":0,"o":""},"":{"ha":1389,"x_min":0,"x_max":0,"o":""},"":{"ha":1389,"x_min":0,"x_max":0,"o":""},"":{"ha":1389,"x_min":0,"x_max":0,"o":""},"":{"ha":1389,"x_min":0,"x_max":0,"o":""},"":{"ha":1389,"x_min":0,"x_max":0,"o":""},"":{"ha":1389,"x_min":0,"x_max":0,"o":""},"":{"ha":1389,"x_min":0,"x_max":0,"o":""},"":{"ha":1389,"x_min":0,"x_max":0,"o":""},"":{"ha":1389,"x_min":0,"x_max":0,"o":""},"":{"ha":1389,"x_min":0,"x_max":0,"o":""},"":{"ha":1389,"x_min":0,"x_max":0,"o":""},"":{"ha":1389,"x_min":0,"x_max":0,"o":""},"":{"ha":1389,"x_min":0,"x_max":0,"o":""},"":{"ha":1389,"x_min":0,"x_max":0,"o":""},"":{"ha":1389,"x_min":0,"x_max":0,"o":""},"":{"ha":1389,"x_min":0,"x_max":0,"o":""},"":{"ha":1389,"x_min":0,"x_max":0,"o":""},"":{"ha":1389,"x_min":0,"x_max":0,"o":""},"":{"ha":1389,"x_min":0,"x_max":0,"o":""},"":{"ha":1389,"x_min":0,"x_max":0,"o":""},"":{"ha":1389,"x_min":0,"x_max":0,"o":""},"":{"ha":1389,"x_min":0,"x_max":0,"o":""},"":{"ha":1389,"x_min":0,"x_max":0,"o":""},"":{"ha":1389,"x_min":0,"x_max":0,"o":""},"":{"ha":1389,"x_min":0,"x_max":0,"o":""},"":{"ha":1389,"x_min":0,"x_max":0,"o":""},"":{"ha":1389,"x_min":0,"x_max":0,"o":""},"":{"ha":1389,"x_min":0,"x_max":0,"o":""},"":{"ha":1389,"x_min":0,"x_max":0,"o":""},"":{"ha":1389,"x_min":0,"x_max":0,"o":""},"":{"ha":1389,"x_min":0,"x_max":0,"o":""},"":{"ha":1389,"x_min":0,"x_max":0,"o":""},"":{"ha":1389,"x_min":0,"x_max":0,"o":""},"":{"ha":1389,"x_min":0,"x_max":0,"o":""},"":{"ha":1389,"x_min":0,"x_max":0,"o":""},"":{"ha":1389,"x_min":0,"x_max":0,"o":""},"":{"ha":1389,"x_min":0,"x_max":0,"o":""},"":{"ha":1389,"x_min":0,"x_max":0,"o":""},"":{"ha":1389,"x_min":0,"x_max":0,"o":""},"":{"ha":1389,"x_min":0,"x_max":0,"o":""},"":{"ha":1389,"x_min":0,"x_max":0,"o":""},"":{"ha":1389,"x_min":0,"x_max":0,"o":""},"":{"ha":1389,"x_min":0,"x_max":0,"o":""},"":{"ha":1389,"x_min":0,"x_max":0,"o":""},"":{"ha":1389,"x_min":0,"x_max":0,"o":""},"":{"ha":1389,"x_min":0,"x_max":0,"o":""},"":{"ha":1389,"x_min":0,"x_max":0,"o":""},"":{"ha":1389,"x_min":0,"x_max":0,"o":""},"":{"ha":1389,"x_min":0,"x_max":0,"o":""},"":{"ha":1389,"x_min":0,"x_max":0,"o":""},"":{"ha":1389,"x_min":0,"x_max":0,"o":""},"":{"ha":1389,"x_min":0,"x_max":0,"o":""},"":{"ha":1389,"x_min":0,"x_max":0,"o":""},"":{"ha":1389,"x_min":0,"x_max":0,"o":""},"":{"ha":1389,"x_min":0,"x_max":0,"o":""},"":{"ha":1389,"x_min":0,"x_max":0,"o":""},"":{"ha":1389,"x_min":0,"x_max":0,"o":""},"":{"ha":1389,"x_min":0,"x_max":0,"o":""},"":{"ha":1389,"x_min":0,"x_max":0,"o":""},"":{"ha":1389,"x_min":0,"x_max":0,"o":""},"":{"ha":1389,"x_min":0,"x_max":0,"o":""},"":{"ha":1389,"x_min":0,"x_max":0,"o":""},"":{"ha":1389,"x_min":0,"x_max":0,"o":""},"":{"ha":1389,"x_min":0,"x_max":0,"o":""},"":{"ha":1389,"x_min":0,"x_max":0,"o":""},"":{"ha":1389,"x_min":0,"x_max":0,"o":""},"":{"ha":1389,"x_min":0,"x_max":0,"o":""},"":{"ha":1389,"x_min":0,"x_max":0,"o":""},"":{"ha":1389,"x_min":0,"x_max":0,"o":""},"":{"ha":1389,"x_min":0,"x_max":0,"o":""},"":{"ha":1389,"x_min":0,"x_max":0,"o":""},"":{"ha":1389,"x_min":0,"x_max":0,"o":""},"":{"ha":1389,"x_min":0,"x_max":0,"o":""},"":{"ha":1389,"x_min":0,"x_max":0,"o":""},"":{"ha":1389,"x_min":0,"x_max":0,"o":""},"":{"ha":1389,"x_min":0,"x_max":0,"o":""},"":{"ha":1389,"x_min":0,"x_max":0,"o":""},"":{"ha":1389,"x_min":0,"x_max":0,"o":""},"":{"ha":1389,"x_min":0,"x_max":0,"o":""},"":{"ha":1389,"x_min":0,"x_max":0,"o":""},"":{"ha":1389,"x_min":0,"x_max":0,"o":""},"":{"ha":1389,"x_min":0,"x_max":0,"o":""},"":{"ha":1389,"x_min":0,"x_max":0,"o":""},"":{"ha":1389,"x_min":0,"x_max":0,"o":""},"":{"ha":1389,"x_min":0,"x_max":0,"o":""},"":{"ha":1389,"x_min":0,"x_max":0,"o":""},"":{"ha":1389,"x_min":0,"x_max":0,"o":""},"":{"ha":1389,"x_min":0,"x_max":0,"o":""},"":{"ha":1389,"x_min":0,"x_max":0,"o":""},"":{"ha":1389,"x_min":0,"x_max":0,"o":""},"":{"ha":1389,"x_min":0,"x_max":0,"o":""},"":{"ha":1389,"x_min":0,"x_max":0,"o":""},"":{"ha":1389,"x_min":0,"x_max":0,"o":""},"":{"ha":1389,"x_min":0,"x_max":0,"o":""},"":{"ha":1389,"x_min":0,"x_max":0,"o":""},"":{"ha":1389,"x_min":0,"x_max":0,"o":""},"":{"ha":1389,"x_min":0,"x_max":0,"o":""},"":{"ha":1389,"x_min":0,"x_max":0,"o":""},"":{"ha":1389,"x_min":0,"x_max":0,"o":""},"":{"ha":1389,"x_min":0,"x_max":0,"o":""},"":{"ha":1389,"x_min":0,"x_max":0,"o":""},"":{"ha":1389,"x_min":0,"x_max":0,"o":""},"":{"ha":1389,"x_min":0,"x_max":0,"o":""},"":{"ha":1389,"x_min":0,"x_max":0,"o":""},"":{"ha":1389,"x_min":0,"x_max":0,"o":""},"":{"ha":1389,"x_min":0,"x_max":0,"o":""},"":{"ha":1389,"x_min":0,"x_max":0,"o":""},"":{"ha":1389,"x_min":0,"x_max":0,"o":""},"":{"ha":1389,"x_min":0,"x_max":0,"o":""},"":{"ha":1389,"x_min":0,"x_max":0,"o":""},"":{"ha":1389,"x_min":0,"x_max":0,"o":""},"":{"ha":1389,"x_min":0,"x_max":0,"o":""},"":{"ha":1389,"x_min":0,"x_max":0,"o":""},"":{"ha":1389,"x_min":0,"x_max":0,"o":""},"":{"ha":1389,"x_min":0,"x_max":0,"o":""},"":{"ha":1389,"x_min":0,"x_max":0,"o":""},"":{"ha":1389,"x_min":0,"x_max":0,"o":""},"":{"ha":1389,"x_min":0,"x_max":0,"o":""},"":{"ha":1389,"x_min":0,"x_max":0,"o":""},"":{"ha":1389,"x_min":0,"x_max":0,"o":""},"":{"ha":1389,"x_min":0,"x_max":0,"o":""},"":{"ha":1389,"x_min":0,"x_max":0,"o":""},"":{"ha":1389,"x_min":0,"x_max":0,"o":""},"":{"ha":1389,"x_min":0,"x_max":0,"o":""},"":{"ha":694,"x_min":0,"x_max":0,"o":""},"":{"ha":694,"x_min":0,"x_max":0,"o":""},"":{"ha":694,"x_min":0,"x_max":0,"o":""},"":{"ha":694,"x_min":0,"x_max":0,"o":""},"":{"ha":694,"x_min":0,"x_max":0,"o":""},"":{"ha":694,"x_min":0,"x_max":0,"o":""},"":{"ha":694,"x_min":0,"x_max":0,"o":""},"":{"ha":694,"x_min":0,"x_max":0,"o":""},"":{"ha":1389,"x_min":0,"x_max":0,"o":""},"":{"ha":694,"x_min":0,"x_max":0,"o":""},"":{"ha":694,"x_min":0,"x_max":0,"o":""},"":{"ha":1389,"x_min":0,"x_max":0,"o":""},"":{"ha":1389,"x_min":0,"x_max":0,"o":""},"":{"ha":694,"x_min":0,"x_max":0,"o":""},"":{"ha":694,"x_min":0,"x_max":0,"o":""},"":{"ha":1389,"x_min":0,"x_max":0,"o":""},"":{"ha":1389,"x_min":0,"x_max":0,"o":""},"":{"ha":694,"x_min":0,"x_max":0,"o":""},"":{"ha":694,"x_min":0,"x_max":0,"o":""},"":{"ha":1389,"x_min":0,"x_max":0,"o":""},"":{"ha":1389,"x_min":0,"x_max":0,"o":""},"":{"ha":694,"x_min":0,"x_max":0,"o":""},"":{"ha":694,"x_min":0,"x_max":0,"o":""},"":{"ha":1389,"x_min":0,"x_max":0,"o":""},"":{"ha":1389,"x_min":0,"x_max":0,"o":""}}}
